<svg version="1.1" xmlns="http://www.w3.org/2000/svg" xmlns:xlink="http://www.w3.org/1999/xlink" width="332" height="284"><defs/><g><g transform="translate(-230,-270) scale(1,1)"><rect fill="#C0C0C0" stroke="none" x="343" y="287" width="123.60693359375" height="145" opacity="0.2"/></g><g transform="translate(-230,-270) scale(1,1)"><rect fill="#ffffff" stroke="none" x="336" y="280" width="123.60693359375" height="145"/></g><g transform="translate(-230,-270) scale(1,1)"><path fill="none" stroke="#000000" d="M 336 280 L 459.60693359375 280 L 459.60693359375 425 L 336 425 L 336 280 Z Z" stroke-miterlimit="10"/></g><g transform="translate(-230,-270) scale(1,1)"><path fill="none" stroke="#000000" d="M 336 305 L 459.60693359375 305" stroke-miterlimit="10"/></g><g transform="translate(-230,-270) scale(1,1)"><path fill="none" stroke="#000000" d="M 336 358 L 459.60693359375 358" stroke-miterlimit="10"/></g><g transform="translate(-230,-270) scale(1,1)"><g><path fill="none" stroke="none"/><text fill="#000000" stroke="none" font-family="Arial" font-size="13px" font-style="normal" font-weight="bold" text-decoration="none" x="383.303466796875" y="299.5">Fund</text></g></g><g transform="translate(-230,-270) scale(1,1)"><g><path fill="none" stroke="none"/><text fill="#000000" stroke="none" font-family="Arial" font-size="13px" font-style="normal" font-weight="normal" text-decoration="none" x="341" y="322.5">-*stock1_: Stock1</text></g></g><g transform="translate(-230,-270) scale(1,1)"><g><path fill="none" stroke="none"/><text fill="#000000" stroke="none" font-family="Arial" font-size="13px" font-style="normal" font-weight="normal" text-decoration="none" x="341" y="337.5">-*stock2_: Stock2</text></g></g><g transform="translate(-230,-270) scale(1,1)"><g><path fill="none" stroke="none"/><text fill="#000000" stroke="none" font-family="Arial" font-size="13px" font-style="normal" font-weight="normal" text-decoration="none" x="341" y="352.5">-reality1_: Reality1</text></g></g><g transform="translate(-230,-270) scale(1,1)"><g><path fill="none" stroke="none"/><text fill="#000000" stroke="none" font-family="Arial" font-size="13px" font-style="normal" font-weight="normal" text-decoration="none" x="341" y="375.5">+Fund()</text></g></g><g transform="translate(-230,-270) scale(1,1)"><g><path fill="none" stroke="none"/><text fill="#000000" stroke="none" font-family="Arial" font-size="13px" font-style="normal" font-weight="normal" text-decoration="none" x="341" y="390.5">+~Fund()</text></g></g><g transform="translate(-230,-270) scale(1,1)"><g><path fill="none" stroke="none"/><text fill="#000000" stroke="none" font-family="Arial" font-size="13px" font-style="normal" font-weight="normal" text-decoration="none" x="341" y="405.5">+BuyFund()</text></g></g><g transform="translate(-230,-270) scale(1,1)"><g><path fill="none" stroke="none"/><text fill="#000000" stroke="none" font-family="Arial" font-size="13px" font-style="normal" font-weight="normal" text-decoration="none" x="341" y="420.5">+SellFund()</text></g></g><g transform="translate(-230,-270) scale(1,1)"><rect fill="#C0C0C0" stroke="none" x="247" y="479" width="88" height="72" opacity="0.2"/></g><g transform="translate(-230,-270) scale(1,1)"><rect fill="#ffffff" stroke="none" x="240" y="472" width="88" height="72"/></g><g transform="translate(-230,-270) scale(1,1)"><path fill="none" stroke="#000000" d="M 240 472 L 328 472 L 328 544 L 240 544 L 240 472 Z Z" stroke-miterlimit="10"/></g><g transform="translate(-230,-270) scale(1,1)"><path fill="none" stroke="#000000" d="M 240 497 L 328 497" stroke-miterlimit="10"/></g><g transform="translate(-230,-270) scale(1,1)"><path fill="none" stroke="#000000" d="M 240 507 L 328 507" stroke-miterlimit="10"/></g><g transform="translate(-230,-270) scale(1,1)"><g><path fill="none" stroke="none"/><text fill="#000000" stroke="none" font-family="Arial" font-size="13px" font-style="normal" font-weight="bold" text-decoration="none" x="263.5" y="491.5">Stock1</text></g></g><g transform="translate(-230,-270) scale(1,1)"><g><path fill="none" stroke="none"/><text fill="#000000" stroke="none" font-family="Arial" font-size="13px" font-style="normal" font-weight="normal" text-decoration="none" x="245" y="524.5">+Buy()</text></g></g><g transform="translate(-230,-270) scale(1,1)"><g><path fill="none" stroke="none"/><text fill="#000000" stroke="none" font-family="Arial" font-size="13px" font-style="normal" font-weight="normal" text-decoration="none" x="245" y="539.5">+Sell()</text></g></g><g transform="translate(-230,-270) scale(1,1)"><rect fill="#C0C0C0" stroke="none" x="359" y="479" width="88" height="72" opacity="0.2"/></g><g transform="translate(-230,-270) scale(1,1)"><rect fill="#ffffff" stroke="none" x="352" y="472" width="88" height="72"/></g><g transform="translate(-230,-270) scale(1,1)"><path fill="none" stroke="#000000" d="M 352 472 L 440 472 L 440 544 L 352 544 L 352 472 Z Z" stroke-miterlimit="10"/></g><g transform="translate(-230,-270) scale(1,1)"><path fill="none" stroke="#000000" d="M 352 497 L 440 497" stroke-miterlimit="10"/></g><g transform="translate(-230,-270) scale(1,1)"><path fill="none" stroke="#000000" d="M 352 507 L 440 507" stroke-miterlimit="10"/></g><g transform="translate(-230,-270) scale(1,1)"><g><path fill="none" stroke="none"/><text fill="#000000" stroke="none" font-family="Arial" font-size="13px" font-style="normal" font-weight="bold" text-decoration="none" x="375.5" y="491.5">Stock2</text></g></g><g transform="translate(-230,-270) scale(1,1)"><g><path fill="none" stroke="none"/><text fill="#000000" stroke="none" font-family="Arial" font-size="13px" font-style="normal" font-weight="normal" text-decoration="none" x="357" y="524.5">+Buy()</text></g></g><g transform="translate(-230,-270) scale(1,1)"><g><path fill="none" stroke="none"/><text fill="#000000" stroke="none" font-family="Arial" font-size="13px" font-style="normal" font-weight="normal" text-decoration="none" x="357" y="539.5">+Sell()</text></g></g><g transform="translate(-230,-270) scale(1,1)"><rect fill="#C0C0C0" stroke="none" x="471" y="479" width="88" height="72" opacity="0.2"/></g><g transform="translate(-230,-270) scale(1,1)"><rect fill="#ffffff" stroke="none" x="464" y="472" width="88" height="72"/></g><g transform="translate(-230,-270) scale(1,1)"><path fill="none" stroke="#000000" d="M 464 472 L 552 472 L 552 544 L 464 544 L 464 472 Z Z" stroke-miterlimit="10"/></g><g transform="translate(-230,-270) scale(1,1)"><path fill="none" stroke="#000000" d="M 464 497 L 552 497" stroke-miterlimit="10"/></g><g transform="translate(-230,-270) scale(1,1)"><path fill="none" stroke="#000000" d="M 464 507 L 552 507" stroke-miterlimit="10"/></g><g transform="translate(-230,-270) scale(1,1)"><g><path fill="none" stroke="none"/><text fill="#000000" stroke="none" font-family="Arial" font-size="13px" font-style="normal" font-weight="bold" text-decoration="none" x="484.5" y="491.5">Reality1</text></g></g><g transform="translate(-230,-270) scale(1,1)"><g><path fill="none" stroke="none"/><text fill="#000000" stroke="none" font-family="Arial" font-size="13px" font-style="normal" font-weight="normal" text-decoration="none" x="469" y="524.5">+Buy()</text></g></g><g transform="translate(-230,-270) scale(1,1)"><g><path fill="none" stroke="none"/><text fill="#000000" stroke="none" font-family="Arial" font-size="13px" font-style="normal" font-weight="normal" text-decoration="none" x="469" y="539.5">+Sell()</text></g></g><g transform="translate(-230,-270) scale(1,1)"><path fill="none" stroke="#000000" d="M 343 426 L 311 471" stroke-miterlimit="10"/></g><g transform="translate(-230,-270) scale(1,1)"><path fill="none" stroke="#000000" d="M 313.458942903904 460.2783583442021 L 311 471 L 320.3200807221679 465.15738968163424" stroke-miterlimit="10"/></g><g transform="translate(-230,-270) scale(1,1)"><path fill="none" stroke="#000000" d="M 397 426 L 396 471" stroke-miterlimit="10"/></g><g transform="translate(-230,-270) scale(1,1)"><path fill="none" stroke="#000000" d="M 392.01730272371066 460.74631176573826 L 396 471 L 400.43426023114176 460.9333552659034" stroke-miterlimit="10"/></g><g transform="translate(-230,-270) scale(1,1)"><path fill="none" stroke="#000000" d="M 450 426 L 482 471" stroke-miterlimit="10"/></g><g transform="translate(-230,-270) scale(1,1)"><path fill="none" stroke="#000000" d="M 472.6799192778321 465.15738968163424 L 482 471 L 479.541057096096 460.2783583442021" stroke-miterlimit="10"/></g></g></svg>