<svg version="1.1" xmlns="http://www.w3.org/2000/svg" xmlns:xlink="http://www.w3.org/1999/xlink" width="504" height="226"><defs/><g><g transform="translate(-78,-206) scale(1,1)"><rect fill="#C0C0C0" stroke="none" x="95" y="223" width="215" height="85" opacity="0.2"/></g><g transform="translate(-78,-206) scale(1,1)"><rect fill="#ffffff" stroke="none" x="88" y="216" width="215" height="85"/></g><g transform="translate(-78,-206) scale(1,1)"><path fill="none" stroke="#000000" d="M 88 216 L 303 216 L 303 301 L 88 301 L 88 216 Z Z" stroke-miterlimit="10"/></g><g transform="translate(-78,-206) scale(1,1)"><path fill="none" stroke="#000000" d="M 88 241 L 303 241" stroke-miterlimit="10"/></g><g transform="translate(-78,-206) scale(1,1)"><path fill="none" stroke="#000000" d="M 88 264 L 303 264" stroke-miterlimit="10"/></g><g transform="translate(-78,-206) scale(1,1)"><g><path fill="none" stroke="none"/><text fill="#000000" stroke="none" font-family="Arial" font-size="13px" font-style="normal" font-weight="bold" text-decoration="none" x="150" y="235.5">WebsiteFactory</text></g></g><g transform="translate(-78,-206) scale(1,1)"><g><path fill="none" stroke="none"/><text fill="#000000" stroke="none" font-family="Arial" font-size="13px" font-style="normal" font-weight="normal" text-decoration="none" x="93" y="258.5">-flyweights_: map&lt;string,Website*&gt;</text></g></g><g transform="translate(-78,-206) scale(1,1)"><g><path fill="none" stroke="none"/><text fill="#000000" stroke="none" font-family="Arial" font-size="13px" font-style="normal" font-weight="normal" text-decoration="none" x="93" y="281.5">+GetWebsiteCategory()</text></g></g><g transform="translate(-78,-206) scale(1,1)"><g><path fill="none" stroke="none"/><text fill="#000000" stroke="none" font-family="Arial" font-size="13px" font-style="normal" font-weight="normal" text-decoration="none" x="93" y="296.5">+GetWebsiteCount()</text></g></g><g transform="translate(-78,-206) scale(1,1)"><rect fill="#C0C0C0" stroke="none" x="383" y="239" width="58" height="57" opacity="0.2"/></g><g transform="translate(-78,-206) scale(1,1)"><rect fill="#ffffff" stroke="none" x="376" y="232" width="58" height="57"/></g><g transform="translate(-78,-206) scale(1,1)"><path fill="none" stroke="#000000" d="M 376 232 L 434 232 L 434 289 L 376 289 L 376 232 Z Z" stroke-miterlimit="10"/></g><g transform="translate(-78,-206) scale(1,1)"><path fill="none" stroke="#000000" d="M 376 257 L 434 257" stroke-miterlimit="10"/></g><g transform="translate(-78,-206) scale(1,1)"><path fill="none" stroke="#000000" d="M 376 267 L 434 267" stroke-miterlimit="10"/></g><g transform="translate(-78,-206) scale(1,1)"><g><path fill="none" stroke="none"/><text fill="#000000" stroke="none" font-family="Arial" font-size="13px" font-style="italic" font-weight="bold" text-decoration="none" x="381.5" y="251.5">Website</text></g></g><g transform="translate(-78,-206) scale(1,1)"><g><path fill="none" stroke="none"/><text fill="#000000" stroke="none" font-family="Arial" font-size="13px" font-style="italic" font-weight="normal" text-decoration="none" x="381" y="284.5">+Use()</text></g></g><g transform="translate(-78,-206) scale(1,1)"><rect fill="#C0C0C0" stroke="none" x="343" y="359" width="147" height="70" opacity="0.2"/></g><g transform="translate(-78,-206) scale(1,1)"><rect fill="#ffffff" stroke="none" x="336" y="352" width="147" height="70"/></g><g transform="translate(-78,-206) scale(1,1)"><path fill="none" stroke="#000000" d="M 336 352 L 483 352 L 483 422 L 336 422 L 336 352 Z Z" stroke-miterlimit="10"/></g><g transform="translate(-78,-206) scale(1,1)"><path fill="none" stroke="#000000" d="M 336 377 L 483 377" stroke-miterlimit="10"/></g><g transform="translate(-78,-206) scale(1,1)"><path fill="none" stroke="#000000" d="M 336 400 L 483 400" stroke-miterlimit="10"/></g><g transform="translate(-78,-206) scale(1,1)"><g><path fill="none" stroke="none"/><text fill="#000000" stroke="none" font-family="Arial" font-size="13px" font-style="normal" font-weight="bold" text-decoration="none" x="360" y="371.5">ConcreteWebsite</text></g></g><g transform="translate(-78,-206) scale(1,1)"><g><path fill="none" stroke="none"/><text fill="#000000" stroke="none" font-family="Arial" font-size="13px" font-style="normal" font-weight="normal" text-decoration="none" x="341" y="394.5">-website_name_: string</text></g></g><g transform="translate(-78,-206) scale(1,1)"><g><path fill="none" stroke="none"/><text fill="#000000" stroke="none" font-family="Arial" font-size="13px" font-style="normal" font-weight="normal" text-decoration="none" x="341" y="417.5">+Use()</text></g></g><g transform="translate(-78,-206) scale(1,1)"><path fill="none" stroke="#000000" d="M 408 351 L 406 290" stroke-miterlimit="10"/></g><g transform="translate(-78,-206) scale(1,1)"><path fill="#FFFFFF" stroke="none" d="M 415.0805610216545 310.03854813932406 L 406 290 L 398.25153300094104 310.5903195498393"/></g><g transform="translate(-78,-206) scale(1,1)"><path fill="none" stroke="#000000" d="M 415.0805610216545 310.03854813932406 L 406 290 L 398.25153300094104 310.5903195498393 L 415.0805610216545 310.03854813932406" stroke-miterlimit="10"/></g><g transform="translate(-78,-206) scale(1,1)"><path fill="none" stroke="#000000" d="M 375 260 L 304 259" stroke-miterlimit="10"/></g><g transform="translate(-78,-206) scale(1,1)"><path fill="#FFFFFF" stroke="none" d="M 314.22095010837666 254.93402178042288 L 304 259 L 314.10238390302226 263.35222236058274 L 325.9978182178753 259.3098284256039"/></g><g transform="translate(-78,-206) scale(1,1)"><path fill="none" stroke="#000000" d="M 314.22095010837666 254.93402178042288 L 304 259 L 314.10238390302226 263.35222236058274 L 325.9978182178753 259.3098284256039 L 314.22095010837666 254.93402178042288" stroke-miterlimit="10"/></g><g transform="translate(-78,-206) scale(1,1)"><rect fill="#C0C0C0" stroke="none" x="487" y="239" width="92" height="57" opacity="0.2"/></g><g transform="translate(-78,-206) scale(1,1)"><rect fill="#ffffff" stroke="none" x="480" y="232" width="92" height="57"/></g><g transform="translate(-78,-206) scale(1,1)"><path fill="none" stroke="#000000" d="M 480 232 L 572 232 L 572 289 L 480 289 L 480 232 Z Z" stroke-miterlimit="10"/></g><g transform="translate(-78,-206) scale(1,1)"><path fill="none" stroke="#000000" d="M 480 257 L 572 257" stroke-miterlimit="10"/></g><g transform="translate(-78,-206) scale(1,1)"><path fill="none" stroke="#000000" d="M 480 280 L 572 280" stroke-miterlimit="10"/></g><g transform="translate(-78,-206) scale(1,1)"><g><path fill="none" stroke="none"/><text fill="#000000" stroke="none" font-family="Arial" font-size="13px" font-style="normal" font-weight="bold" text-decoration="none" x="512.5" y="251.5">User</text></g></g><g transform="translate(-78,-206) scale(1,1)"><g><path fill="none" stroke="none"/><text fill="#000000" stroke="none" font-family="Arial" font-size="13px" font-style="normal" font-weight="normal" text-decoration="none" x="485" y="274.5">-name_: string</text></g></g><g transform="translate(-78,-206) scale(1,1)"><path fill="none" stroke="#000000" d="M 435 260 L 479 260" stroke-miterlimit="10" stroke-dasharray="3"/></g><g transform="translate(-78,-206) scale(1,1)"><path fill="none" stroke="#000000" d="M 468.83732514237585 264.209517756016 L 479 260 L 468.83732514237585 255.790482243984" stroke-miterlimit="10"/></g></g></svg>