<svg version="1.1" xmlns="http://www.w3.org/2000/svg" xmlns:xlink="http://www.w3.org/1999/xlink" width="452.4794921875" height="332"><defs/><g><g transform="translate(-254,-278) scale(1,1)"><rect fill="#C0C0C0" stroke="none" x="407" y="295" width="93.728515625" height="85" opacity="0.2"/></g><g transform="translate(-254,-278) scale(1,1)"><rect fill="#ffffff" stroke="none" x="400" y="288" width="93.728515625" height="85"/></g><g transform="translate(-254,-278) scale(1,1)"><path fill="none" stroke="#000000" d="M 400 288 L 493.728515625 288 L 493.728515625 373 L 400 373 L 400 288 Z Z" stroke-miterlimit="10"/></g><g transform="translate(-254,-278) scale(1,1)"><path fill="none" stroke="#000000" d="M 400 313 L 493.728515625 313" stroke-miterlimit="10"/></g><g transform="translate(-254,-278) scale(1,1)"><path fill="none" stroke="#000000" d="M 400 336 L 493.728515625 336" stroke-miterlimit="10"/></g><g transform="translate(-254,-278) scale(1,1)"><g><path fill="none" stroke="none"/><text fill="#000000" stroke="none" font-family="Arial" font-size="13px" font-style="italic" font-weight="bold" text-decoration="none" x="428.3642578125" y="307.5">Player</text></g></g><g transform="translate(-254,-278) scale(1,1)"><g><path fill="none" stroke="none"/><text fill="#000000" stroke="none" font-family="Arial" font-size="13px" font-style="normal" font-weight="normal" text-decoration="none" x="405" y="330.5">#name: string</text></g></g><g transform="translate(-254,-278) scale(1,1)"><g><path fill="none" stroke="none"/><text fill="#000000" stroke="none" font-family="Arial" font-size="13px" font-style="italic" font-weight="normal" text-decoration="none" x="405" y="353.5">+Attack()</text></g></g><g transform="translate(-254,-278) scale(1,1)"><g><path fill="none" stroke="none"/><text fill="#000000" stroke="none" font-family="Arial" font-size="13px" font-style="italic" font-weight="normal" text-decoration="none" x="405" y="368.5">+Defense()</text></g></g><g transform="translate(-254,-278) scale(1,1)"><rect fill="#C0C0C0" stroke="none" x="271" y="431" width="71.41015625" height="44" opacity="0.2"/></g><g transform="translate(-254,-278) scale(1,1)"><rect fill="#ffffff" stroke="none" x="264" y="424" width="71.41015625" height="44"/></g><g transform="translate(-254,-278) scale(1,1)"><path fill="none" stroke="#000000" d="M 264 424 L 335.41015625 424 L 335.41015625 468 L 264 468 L 264 424 Z Z" stroke-miterlimit="10"/></g><g transform="translate(-254,-278) scale(1,1)"><path fill="none" stroke="#000000" d="M 264 449 L 335.41015625 449" stroke-miterlimit="10"/></g><g transform="translate(-254,-278) scale(1,1)"><path fill="none" stroke="#000000" d="M 264 459 L 335.41015625 459" stroke-miterlimit="10"/></g><g transform="translate(-254,-278) scale(1,1)"><g><path fill="none" stroke="none"/><text fill="#000000" stroke="none" font-family="Arial" font-size="13px" font-style="normal" font-weight="bold" text-decoration="none" x="273.205078125" y="443.5">Forwards</text></g></g><g transform="translate(-254,-278) scale(1,1)"><rect fill="#C0C0C0" stroke="none" x="383" y="431" width="53.21142578125" height="44" opacity="0.2"/></g><g transform="translate(-254,-278) scale(1,1)"><rect fill="#ffffff" stroke="none" x="376" y="424" width="53.21142578125" height="44"/></g><g transform="translate(-254,-278) scale(1,1)"><path fill="none" stroke="#000000" d="M 376 424 L 429.21142578125 424 L 429.21142578125 468 L 376 468 L 376 424 Z Z" stroke-miterlimit="10"/></g><g transform="translate(-254,-278) scale(1,1)"><path fill="none" stroke="#000000" d="M 376 449 L 429.21142578125 449" stroke-miterlimit="10"/></g><g transform="translate(-254,-278) scale(1,1)"><path fill="none" stroke="#000000" d="M 376 459 L 429.21142578125 459" stroke-miterlimit="10"/></g><g transform="translate(-254,-278) scale(1,1)"><g><path fill="none" stroke="none"/><text fill="#000000" stroke="none" font-family="Arial" font-size="13px" font-style="normal" font-weight="bold" text-decoration="none" x="383.605712890625" y="443.5">Center</text></g></g><g transform="translate(-254,-278) scale(1,1)"><rect fill="#C0C0C0" stroke="none" x="487" y="431" width="216.4794921875" height="57" opacity="0.2"/></g><g transform="translate(-254,-278) scale(1,1)"><rect fill="#ffffff" stroke="none" x="480" y="424" width="216.4794921875" height="57"/></g><g transform="translate(-254,-278) scale(1,1)"><path fill="none" stroke="#000000" d="M 480 424 L 696.4794921875 424 L 696.4794921875 481 L 480 481 L 480 424 Z Z" stroke-miterlimit="10"/></g><g transform="translate(-254,-278) scale(1,1)"><path fill="none" stroke="#000000" d="M 480 449 L 696.4794921875 449" stroke-miterlimit="10"/></g><g transform="translate(-254,-278) scale(1,1)"><path fill="none" stroke="#000000" d="M 480 472 L 696.4794921875 472" stroke-miterlimit="10"/></g><g transform="translate(-254,-278) scale(1,1)"><g><path fill="none" stroke="none"/><text fill="#000000" stroke="none" font-family="Arial" font-size="13px" font-style="normal" font-weight="bold" text-decoration="none" x="559.23974609375" y="443.5">Translator</text></g></g><g transform="translate(-254,-278) scale(1,1)"><g><path fill="none" stroke="none"/><text fill="#000000" stroke="none" font-family="Arial" font-size="13px" font-style="normal" font-weight="normal" text-decoration="none" x="485" y="466.5">-*_foreign_center: ForeignCenter</text></g></g><g transform="translate(-254,-278) scale(1,1)"><rect fill="#C0C0C0" stroke="none" x="535" y="535" width="103.8466796875" height="72" opacity="0.2"/></g><g transform="translate(-254,-278) scale(1,1)"><rect fill="#ffffff" stroke="none" x="528" y="528" width="103.8466796875" height="72"/></g><g transform="translate(-254,-278) scale(1,1)"><path fill="none" stroke="#000000" d="M 528 528 L 631.8466796875 528 L 631.8466796875 600 L 528 600 L 528 528 Z Z" stroke-miterlimit="10"/></g><g transform="translate(-254,-278) scale(1,1)"><path fill="none" stroke="#000000" d="M 528 553 L 631.8466796875 553" stroke-miterlimit="10"/></g><g transform="translate(-254,-278) scale(1,1)"><path fill="none" stroke="#000000" d="M 528 563 L 631.8466796875 563" stroke-miterlimit="10"/></g><g transform="translate(-254,-278) scale(1,1)"><g><path fill="none" stroke="none"/><text fill="#000000" stroke="none" font-family="Arial" font-size="13px" font-style="normal" font-weight="bold" text-decoration="none" x="539.42333984375" y="547.5">ForeignCenter</text></g></g><g transform="translate(-254,-278) scale(1,1)"><g><path fill="none" stroke="none"/><text fill="#000000" stroke="none" font-family="Arial" font-size="13px" font-style="normal" font-weight="normal" text-decoration="none" x="533" y="580.5">+Gong()</text></g></g><g transform="translate(-254,-278) scale(1,1)"><g><path fill="none" stroke="none"/><text fill="#000000" stroke="none" font-family="Arial" font-size="13px" font-style="normal" font-weight="normal" text-decoration="none" x="533" y="595.5">+Shou()</text></g></g><g transform="translate(-254,-278) scale(1,1)"><path fill="none" stroke="#000000" d="M 328 423 L 399 367" stroke-miterlimit="10"/></g><g transform="translate(-254,-278) scale(1,1)"><path fill="#FFFFFF" stroke="none" d="M 388.25501945235385 386.1975361187499 L 399 367 L 377.82744341940014 372.97685936268357"/></g><g transform="translate(-254,-278) scale(1,1)"><path fill="none" stroke="#000000" d="M 388.25501945235385 386.1975361187499 L 399 367 L 377.82744341940014 372.97685936268357 L 388.25501945235385 386.1975361187499" stroke-miterlimit="10"/></g><g transform="translate(-254,-278) scale(1,1)"><path fill="none" stroke="#000000" d="M 411 423 L 429 374" stroke-miterlimit="10"/></g><g transform="translate(-254,-278) scale(1,1)"><path fill="#FFFFFF" stroke="none" d="M 429.8941585225541 395.98182159277394 L 429 374 L 414.0887704436704 390.1757606658371"/></g><g transform="translate(-254,-278) scale(1,1)"><path fill="none" stroke="#000000" d="M 429.8941585225541 395.98182159277394 L 429 374 L 414.0887704436704 390.1757606658371 L 429.8941585225541 395.98182159277394" stroke-miterlimit="10"/></g><g transform="translate(-254,-278) scale(1,1)"><path fill="none" stroke="#000000" d="M 554 423 L 495 372" stroke-miterlimit="10"/></g><g transform="translate(-254,-278) scale(1,1)"><path fill="#FFFFFF" stroke="none" d="M 515.8824896223737 378.9225448479195 L 495 372 L 504.8711716150063 391.66112842507"/></g><g transform="translate(-254,-278) scale(1,1)"><path fill="none" stroke="#000000" d="M 515.8824896223737 378.9225448479195 L 495 372 L 504.8711716150063 391.66112842507 L 515.8824896223737 378.9225448479195" stroke-miterlimit="10"/></g><g transform="translate(-254,-278) scale(1,1)"><path fill="none" stroke="#000000" d="M 586 482 L 582 527" stroke-miterlimit="10"/></g><g transform="translate(-254,-278) scale(1,1)"><path fill="none" stroke="#000000" d="M 578.7068156333388 516.5045277987516 L 582 527 L 587.092786567894 517.2499474373788" stroke-miterlimit="10"/></g></g></svg>