<svg version="1.1" xmlns="http://www.w3.org/2000/svg" xmlns:xlink="http://www.w3.org/1999/xlink" width="432" height="332"><defs/><g><g transform="translate(-254,-278) scale(1,1)"><rect fill="#C0C0C0" stroke="none" x="407" y="295" width="89" height="85" opacity="0.2"/></g><g transform="translate(-254,-278) scale(1,1)"><rect fill="#ffffff" stroke="none" x="400" y="288" width="89" height="85"/></g><g transform="translate(-254,-278) scale(1,1)"><path fill="none" stroke="#000000" d="M 400 288 L 489 288 L 489 373 L 400 373 L 400 288 Z Z" stroke-miterlimit="10"/></g><g transform="translate(-254,-278) scale(1,1)"><path fill="none" stroke="#000000" d="M 400 313 L 489 313" stroke-miterlimit="10"/></g><g transform="translate(-254,-278) scale(1,1)"><path fill="none" stroke="#000000" d="M 400 336 L 489 336" stroke-miterlimit="10"/></g><g transform="translate(-254,-278) scale(1,1)"><g><path fill="none" stroke="none"/><text fill="#000000" stroke="none" font-family="Arial" font-size="13px" font-style="italic" font-weight="bold" text-decoration="none" x="426" y="307.5">Player</text></g></g><g transform="translate(-254,-278) scale(1,1)"><g><path fill="none" stroke="none"/><text fill="#000000" stroke="none" font-family="Arial" font-size="13px" font-style="normal" font-weight="normal" text-decoration="none" x="405" y="330.5">#name: string</text></g></g><g transform="translate(-254,-278) scale(1,1)"><g><path fill="none" stroke="none"/><text fill="#000000" stroke="none" font-family="Arial" font-size="13px" font-style="italic" font-weight="normal" text-decoration="none" x="405" y="353.5">+Attack()</text></g></g><g transform="translate(-254,-278) scale(1,1)"><g><path fill="none" stroke="none"/><text fill="#000000" stroke="none" font-family="Arial" font-size="13px" font-style="italic" font-weight="normal" text-decoration="none" x="405" y="368.5">+Defense()</text></g></g><g transform="translate(-254,-278) scale(1,1)"><rect fill="#C0C0C0" stroke="none" x="271" y="431" width="67" height="44" opacity="0.2"/></g><g transform="translate(-254,-278) scale(1,1)"><rect fill="#ffffff" stroke="none" x="264" y="424" width="67" height="44"/></g><g transform="translate(-254,-278) scale(1,1)"><path fill="none" stroke="#000000" d="M 264 424 L 331 424 L 331 468 L 264 468 L 264 424 Z Z" stroke-miterlimit="10"/></g><g transform="translate(-254,-278) scale(1,1)"><path fill="none" stroke="#000000" d="M 264 449 L 331 449" stroke-miterlimit="10"/></g><g transform="translate(-254,-278) scale(1,1)"><path fill="none" stroke="#000000" d="M 264 459 L 331 459" stroke-miterlimit="10"/></g><g transform="translate(-254,-278) scale(1,1)"><g><path fill="none" stroke="none"/><text fill="#000000" stroke="none" font-family="Arial" font-size="13px" font-style="normal" font-weight="bold" text-decoration="none" x="271" y="443.5">Forwards</text></g></g><g transform="translate(-254,-278) scale(1,1)"><rect fill="#C0C0C0" stroke="none" x="383" y="431" width="50" height="44" opacity="0.2"/></g><g transform="translate(-254,-278) scale(1,1)"><rect fill="#ffffff" stroke="none" x="376" y="424" width="50" height="44"/></g><g transform="translate(-254,-278) scale(1,1)"><path fill="none" stroke="#000000" d="M 376 424 L 426 424 L 426 468 L 376 468 L 376 424 Z Z" stroke-miterlimit="10"/></g><g transform="translate(-254,-278) scale(1,1)"><path fill="none" stroke="#000000" d="M 376 449 L 426 449" stroke-miterlimit="10"/></g><g transform="translate(-254,-278) scale(1,1)"><path fill="none" stroke="#000000" d="M 376 459 L 426 459" stroke-miterlimit="10"/></g><g transform="translate(-254,-278) scale(1,1)"><g><path fill="none" stroke="none"/><text fill="#000000" stroke="none" font-family="Arial" font-size="13px" font-style="normal" font-weight="bold" text-decoration="none" x="382" y="443.5">Center</text></g></g><g transform="translate(-254,-278) scale(1,1)"><rect fill="#C0C0C0" stroke="none" x="487" y="431" width="196" height="57" opacity="0.2"/></g><g transform="translate(-254,-278) scale(1,1)"><rect fill="#ffffff" stroke="none" x="480" y="424" width="196" height="57"/></g><g transform="translate(-254,-278) scale(1,1)"><path fill="none" stroke="#000000" d="M 480 424 L 676 424 L 676 481 L 480 481 L 480 424 Z Z" stroke-miterlimit="10"/></g><g transform="translate(-254,-278) scale(1,1)"><path fill="none" stroke="#000000" d="M 480 449 L 676 449" stroke-miterlimit="10"/></g><g transform="translate(-254,-278) scale(1,1)"><path fill="none" stroke="#000000" d="M 480 472 L 676 472" stroke-miterlimit="10"/></g><g transform="translate(-254,-278) scale(1,1)"><g><path fill="none" stroke="none"/><text fill="#000000" stroke="none" font-family="Arial" font-size="13px" font-style="normal" font-weight="bold" text-decoration="none" x="549" y="443.5">Translator</text></g></g><g transform="translate(-254,-278) scale(1,1)"><g><path fill="none" stroke="none"/><text fill="#000000" stroke="none" font-family="Arial" font-size="13px" font-style="normal" font-weight="normal" text-decoration="none" x="485" y="466.5">-*_foreign_center: ForeignCenter</text></g></g><g transform="translate(-254,-278) scale(1,1)"><rect fill="#C0C0C0" stroke="none" x="535" y="535" width="97" height="72" opacity="0.2"/></g><g transform="translate(-254,-278) scale(1,1)"><rect fill="#ffffff" stroke="none" x="528" y="528" width="97" height="72"/></g><g transform="translate(-254,-278) scale(1,1)"><path fill="none" stroke="#000000" d="M 528 528 L 625 528 L 625 600 L 528 600 L 528 528 Z Z" stroke-miterlimit="10"/></g><g transform="translate(-254,-278) scale(1,1)"><path fill="none" stroke="#000000" d="M 528 553 L 625 553" stroke-miterlimit="10"/></g><g transform="translate(-254,-278) scale(1,1)"><path fill="none" stroke="#000000" d="M 528 563 L 625 563" stroke-miterlimit="10"/></g><g transform="translate(-254,-278) scale(1,1)"><g><path fill="none" stroke="none"/><text fill="#000000" stroke="none" font-family="Arial" font-size="13px" font-style="normal" font-weight="bold" text-decoration="none" x="536" y="547.5">ForeignCenter</text></g></g><g transform="translate(-254,-278) scale(1,1)"><g><path fill="none" stroke="none"/><text fill="#000000" stroke="none" font-family="Arial" font-size="13px" font-style="normal" font-weight="normal" text-decoration="none" x="533" y="580.5">+Gong()</text></g></g><g transform="translate(-254,-278) scale(1,1)"><g><path fill="none" stroke="none"/><text fill="#000000" stroke="none" font-family="Arial" font-size="13px" font-style="normal" font-weight="normal" text-decoration="none" x="533" y="595.5">+Shou()</text></g></g><g transform="translate(-254,-278) scale(1,1)"><path fill="none" stroke="#000000" d="M 326 423 L 399 366" stroke-miterlimit="10"/></g><g transform="translate(-254,-278) scale(1,1)"><path fill="#FFFFFF" stroke="none" d="M 388.16116736619796 385.1447044149662 L 399 366 L 377.79843762885787 371.8731382601272"/></g><g transform="translate(-254,-278) scale(1,1)"><path fill="none" stroke="#000000" d="M 388.16116736619796 385.1447044149662 L 399 366 L 377.79843762885787 371.8731382601272 L 388.16116736619796 385.1447044149662" stroke-miterlimit="10"/></g><g transform="translate(-254,-278) scale(1,1)"><path fill="none" stroke="#000000" d="M 410 423 L 428 374" stroke-miterlimit="10"/></g><g transform="translate(-254,-278) scale(1,1)"><path fill="#FFFFFF" stroke="none" d="M 428.8941585225541 395.98182159277394 L 428 374 L 413.0887704436704 390.1757606658371"/></g><g transform="translate(-254,-278) scale(1,1)"><path fill="none" stroke="#000000" d="M 428.8941585225541 395.98182159277394 L 428 374 L 413.0887704436704 390.1757606658371 L 428.8941585225541 395.98182159277394" stroke-miterlimit="10"/></g><g transform="translate(-254,-278) scale(1,1)"><path fill="none" stroke="#000000" d="M 546 423 L 490 372" stroke-miterlimit="10"/></g><g transform="translate(-254,-278) scale(1,1)"><path fill="#FFFFFF" stroke="none" d="M 510.6961788561864 379.4611112277424 L 490 372 L 499.3586060695353 391.91021075818276"/></g><g transform="translate(-254,-278) scale(1,1)"><path fill="none" stroke="#000000" d="M 510.6961788561864 379.4611112277424 L 490 372 L 499.3586060695353 391.91021075818276 L 510.6961788561864 379.4611112277424" stroke-miterlimit="10"/></g><g transform="translate(-254,-278) scale(1,1)"><path fill="none" stroke="#000000" d="M 577 482 L 577 527" stroke-miterlimit="10"/></g><g transform="translate(-254,-278) scale(1,1)"><path fill="none" stroke="#000000" d="M 572.790482243984 516.8373251423759 L 577 527 L 581.209517756016 516.8373251423759" stroke-miterlimit="10"/></g></g></svg>