<svg version="1.1" xmlns="http://www.w3.org/2000/svg" xmlns:xlink="http://www.w3.org/1999/xlink" width="642" height="309"><defs/><g><g transform="translate(-126,-134) scale(1,1)"><rect fill="#C0C0C0" stroke="none" x="151" y="159" width="50" height="44" opacity="0.2"/></g><g transform="translate(-126,-134) scale(1,1)"><rect fill="#ffffff" stroke="none" x="144" y="152" width="50" height="44"/></g><g transform="translate(-126,-134) scale(1,1)"><path fill="none" stroke="#000000" d="M 144 152 L 194 152 L 194 196 L 144 196 L 144 152 Z Z" stroke-miterlimit="10"/></g><g transform="translate(-126,-134) scale(1,1)"><path fill="none" stroke="#000000" d="M 144 177 L 194 177" stroke-miterlimit="10"/></g><g transform="translate(-126,-134) scale(1,1)"><path fill="none" stroke="#000000" d="M 144 187 L 194 187" stroke-miterlimit="10"/></g><g transform="translate(-126,-134) scale(1,1)"><g><path fill="none" stroke="none"/><text fill="#000000" stroke="none" font-family="Arial" font-size="13px" font-style="normal" font-weight="bold" text-decoration="none" x="157.5" y="171.5">Pen</text></g></g><g transform="translate(-126,-134) scale(1,1)"><rect fill="#C0C0C0" stroke="none" x="143" y="255" width="65" height="44" opacity="0.2"/></g><g transform="translate(-126,-134) scale(1,1)"><rect fill="#ffffff" stroke="none" x="136" y="248" width="65" height="44"/></g><g transform="translate(-126,-134) scale(1,1)"><path fill="none" stroke="#000000" d="M 136 248 L 201 248 L 201 292 L 136 292 L 136 248 Z Z" stroke-miterlimit="10"/></g><g transform="translate(-126,-134) scale(1,1)"><path fill="none" stroke="#000000" d="M 136 273 L 201 273" stroke-miterlimit="10"/></g><g transform="translate(-126,-134) scale(1,1)"><path fill="none" stroke="#000000" d="M 136 283 L 201 283" stroke-miterlimit="10"/></g><g transform="translate(-126,-134) scale(1,1)"><g><path fill="none" stroke="none"/><text fill="#000000" stroke="none" font-family="Arial" font-size="13px" font-style="normal" font-weight="bold" text-decoration="none" x="142.5" y="267.5">Graphics</text></g></g><g transform="translate(-126,-134) scale(1,1)"><rect fill="#C0C0C0" stroke="none" x="367" y="151" width="130" height="115" opacity="0.2"/></g><g transform="translate(-126,-134) scale(1,1)"><rect fill="#ffffff" stroke="none" x="360" y="144" width="130" height="115"/></g><g transform="translate(-126,-134) scale(1,1)"><path fill="none" stroke="#000000" d="M 360 144 L 490 144 L 490 259 L 360 259 L 360 144 Z Z" stroke-miterlimit="10"/></g><g transform="translate(-126,-134) scale(1,1)"><path fill="none" stroke="#000000" d="M 360 169 L 490 169" stroke-miterlimit="10"/></g><g transform="translate(-126,-134) scale(1,1)"><path fill="none" stroke="#000000" d="M 360 207 L 490 207" stroke-miterlimit="10"/></g><g transform="translate(-126,-134) scale(1,1)"><g><path fill="none" stroke="none"/><text fill="#000000" stroke="none" font-family="Arial" font-size="13px" font-style="normal" font-weight="bold" text-decoration="none" x="384.5" y="163.5">PersonBuilder</text></g></g><g transform="translate(-126,-134) scale(1,1)"><g><path fill="none" stroke="none"/><text fill="#000000" stroke="none" font-family="Arial" font-size="13px" font-style="normal" font-weight="normal" text-decoration="none" x="365" y="186.5">#*graphic_: Graphics</text></g></g><g transform="translate(-126,-134) scale(1,1)"><g><path fill="none" stroke="none"/><text fill="#000000" stroke="none" font-family="Arial" font-size="13px" font-style="normal" font-weight="normal" text-decoration="none" x="365" y="201.5">#*pen_: Pen</text></g></g><g transform="translate(-126,-134) scale(1,1)"><g><path fill="none" stroke="none"/><text fill="#000000" stroke="none" font-family="Arial" font-size="13px" font-style="normal" font-weight="normal" text-decoration="none" x="365" y="224.5">+PersonBuilder()</text></g></g><g transform="translate(-126,-134) scale(1,1)"><g><path fill="none" stroke="none"/><text fill="#000000" stroke="none" font-family="Arial" font-size="13px" font-style="italic" font-weight="normal" text-decoration="none" x="365" y="239.5">+BuildHead()</text></g></g><g transform="translate(-126,-134) scale(1,1)"><g><path fill="none" stroke="none"/><text fill="#000000" stroke="none" font-family="Arial" font-size="13px" font-style="italic" font-weight="normal" text-decoration="none" x="365" y="254.5">+BuildBody()</text></g></g><g transform="translate(-126,-134) scale(1,1)"><rect fill="#C0C0C0" stroke="none" x="247" y="383" width="131" height="57" opacity="0.2"/></g><g transform="translate(-126,-134) scale(1,1)"><rect fill="#ffffff" stroke="none" x="240" y="376" width="131" height="57"/></g><g transform="translate(-126,-134) scale(1,1)"><path fill="none" stroke="#000000" d="M 240 376 L 371 376 L 371 433 L 240 433 L 240 376 Z Z" stroke-miterlimit="10"/></g><g transform="translate(-126,-134) scale(1,1)"><path fill="none" stroke="#000000" d="M 240 401 L 371 401" stroke-miterlimit="10"/></g><g transform="translate(-126,-134) scale(1,1)"><path fill="none" stroke="#000000" d="M 240 411 L 371 411" stroke-miterlimit="10"/></g><g transform="translate(-126,-134) scale(1,1)"><g><path fill="none" stroke="none"/><text fill="#000000" stroke="none" font-family="Arial" font-size="13px" font-style="normal" font-weight="bold" text-decoration="none" x="252.5" y="395.5">PersonThinBuilder</text></g></g><g transform="translate(-126,-134) scale(1,1)"><g><path fill="none" stroke="none"/><text fill="#000000" stroke="none" font-family="Arial" font-size="13px" font-style="normal" font-weight="normal" text-decoration="none" x="245" y="428.5">+PersonThinBuilder()</text></g></g><g transform="translate(-126,-134) scale(1,1)"><rect fill="#C0C0C0" stroke="none" x="447" y="383" width="118" height="57" opacity="0.2"/></g><g transform="translate(-126,-134) scale(1,1)"><rect fill="#ffffff" stroke="none" x="440" y="376" width="118" height="57"/></g><g transform="translate(-126,-134) scale(1,1)"><path fill="none" stroke="#000000" d="M 440 376 L 558 376 L 558 433 L 440 433 L 440 376 Z Z" stroke-miterlimit="10"/></g><g transform="translate(-126,-134) scale(1,1)"><path fill="none" stroke="#000000" d="M 440 401 L 558 401" stroke-miterlimit="10"/></g><g transform="translate(-126,-134) scale(1,1)"><path fill="none" stroke="#000000" d="M 440 411 L 558 411" stroke-miterlimit="10"/></g><g transform="translate(-126,-134) scale(1,1)"><g><path fill="none" stroke="none"/><text fill="#000000" stroke="none" font-family="Arial" font-size="13px" font-style="normal" font-weight="bold" text-decoration="none" x="449" y="395.5">PersonFatBuilder</text></g></g><g transform="translate(-126,-134) scale(1,1)"><g><path fill="none" stroke="none"/><text fill="#000000" stroke="none" font-family="Arial" font-size="13px" font-style="normal" font-weight="normal" text-decoration="none" x="445" y="428.5">+PersonFatBuiler()</text></g></g><g transform="translate(-126,-134) scale(1,1)"><path fill="none" stroke="#000000" d="M 322 375 L 390 260" stroke-miterlimit="10"/></g><g transform="translate(-126,-134) scale(1,1)"><path fill="#FFFFFF" stroke="none" d="M 386.9016898732441 281.78073631350514 L 390 260 L 372.4078575526364 273.2104702456675"/></g><g transform="translate(-126,-134) scale(1,1)"><path fill="none" stroke="#000000" d="M 386.9016898732441 281.78073631350514 L 390 260 L 372.4078575526364 273.2104702456675 L 386.9016898732441 281.78073631350514" stroke-miterlimit="10"/></g><g transform="translate(-126,-134) scale(1,1)"><path fill="none" stroke="#000000" d="M 488 375 L 447 260" stroke-miterlimit="10"/></g><g transform="translate(-126,-134) scale(1,1)"><path fill="#FFFFFF" stroke="none" d="M 461.7557252395963 276.31773797600454 L 447 260 L 445.895490201786 281.9722565547021"/></g><g transform="translate(-126,-134) scale(1,1)"><path fill="none" stroke="#000000" d="M 461.7557252395963 276.31773797600454 L 447 260 L 445.895490201786 281.9722565547021 L 461.7557252395963 276.31773797600454" stroke-miterlimit="10"/></g><g transform="translate(-126,-134) scale(1,1)"><rect fill="#C0C0C0" stroke="none" x="567" y="183" width="198" height="85" opacity="0.2"/></g><g transform="translate(-126,-134) scale(1,1)"><rect fill="#ffffff" stroke="none" x="560" y="176" width="198" height="85"/></g><g transform="translate(-126,-134) scale(1,1)"><path fill="none" stroke="#000000" d="M 560 176 L 758 176 L 758 261 L 560 261 L 560 176 Z Z" stroke-miterlimit="10"/></g><g transform="translate(-126,-134) scale(1,1)"><path fill="none" stroke="#000000" d="M 560 201 L 758 201" stroke-miterlimit="10"/></g><g transform="translate(-126,-134) scale(1,1)"><path fill="none" stroke="#000000" d="M 560 224 L 758 224" stroke-miterlimit="10"/></g><g transform="translate(-126,-134) scale(1,1)"><g><path fill="none" stroke="none"/><text fill="#000000" stroke="none" font-family="Arial" font-size="13px" font-style="normal" font-weight="bold" text-decoration="none" x="616" y="195.5">PersonDirector</text></g></g><g transform="translate(-126,-134) scale(1,1)"><g><path fill="none" stroke="none"/><text fill="#000000" stroke="none" font-family="Arial" font-size="13px" font-style="normal" font-weight="normal" text-decoration="none" x="565" y="218.5">-*person_builder_: PersonBuilder</text></g></g><g transform="translate(-126,-134) scale(1,1)"><g><path fill="none" stroke="none"/><text fill="#000000" stroke="none" font-family="Arial" font-size="13px" font-style="normal" font-weight="normal" text-decoration="none" x="565" y="241.5">+PersonDirector()</text></g></g><g transform="translate(-126,-134) scale(1,1)"><g><path fill="none" stroke="none"/><text fill="#000000" stroke="none" font-family="Arial" font-size="13px" font-style="normal" font-weight="normal" text-decoration="none" x="565" y="256.5">+CreatePerson()</text></g></g><g transform="translate(-126,-134) scale(1,1)"><path fill="none" stroke="#000000" d="M 491 206 L 559 211" stroke-miterlimit="10"/></g><g transform="translate(-126,-134) scale(1,1)"><path fill="#FFFFFF" stroke="none" d="M 548.5559968596106 214.452940544454 L 559 211 L 549.1733768826796 206.05657223071438 L 537.0592322436127 209.38670825320682"/></g><g transform="translate(-126,-134) scale(1,1)"><path fill="none" stroke="#000000" d="M 548.5559968596106 214.452940544454 L 559 211 L 549.1733768826796 206.05657223071438 L 537.0592322436127 209.38670825320682 L 548.5559968596106 214.452940544454" stroke-miterlimit="10"/></g><g transform="translate(-126,-134) scale(1,1)"><path fill="none" stroke="#000000" d="M 359 194 L 195 177" stroke-miterlimit="10"/></g><g transform="translate(-126,-134) scale(1,1)"><path fill="none" stroke="#000000" d="M 205.5425383737314 173.86075094355334 L 195 177 L 204.67448467063176 182.23491607933795" stroke-miterlimit="10"/></g><g transform="translate(-126,-134) scale(1,1)"><path fill="none" stroke="#000000" d="M 359 219 L 202 261" stroke-miterlimit="10"/></g><g transform="translate(-126,-134) scale(1,1)"><path fill="none" stroke="#000000" d="M 210.72959330179393 254.30715301345722 L 202 261 L 212.9053121103275 262.4401971310708" stroke-miterlimit="10"/></g></g></svg>