<svg version="1.1" xmlns="http://www.w3.org/2000/svg" xmlns:xlink="http://www.w3.org/1999/xlink" width="480" height="253"><defs/><g><g transform="translate(-174,-190) scale(1,1)"><rect fill="#C0C0C0" stroke="none" x="327" y="207" width="90" height="115" opacity="0.2"/></g><g transform="translate(-174,-190) scale(1,1)"><rect fill="#ffffff" stroke="none" x="320" y="200" width="90" height="115"/></g><g transform="translate(-174,-190) scale(1,1)"><path fill="none" stroke="#000000" d="M 320 200 L 410 200 L 410 315 L 320 315 L 320 200 Z Z" stroke-miterlimit="10"/></g><g transform="translate(-174,-190) scale(1,1)"><path fill="none" stroke="#000000" d="M 320 225 L 410 225" stroke-miterlimit="10"/></g><g transform="translate(-174,-190) scale(1,1)"><path fill="none" stroke="#000000" d="M 320 248 L 410 248" stroke-miterlimit="10"/></g><g transform="translate(-174,-190) scale(1,1)"><g><path fill="none" stroke="none"/><text fill="#000000" stroke="none" font-family="Arial" font-size="13px" font-style="italic" font-weight="bold" text-decoration="none" x="337.5" y="219.5">Company</text></g></g><g transform="translate(-174,-190) scale(1,1)"><g><path fill="none" stroke="none"/><text fill="#000000" stroke="none" font-family="Arial" font-size="13px" font-style="normal" font-weight="normal" text-decoration="none" x="325" y="242.5">#name: string</text></g></g><g transform="translate(-174,-190) scale(1,1)"><g><path fill="none" stroke="none"/><text fill="#000000" stroke="none" font-family="Arial" font-size="13px" font-style="italic" font-weight="normal" text-decoration="none" x="325" y="265.5">+Add()</text></g></g><g transform="translate(-174,-190) scale(1,1)"><g><path fill="none" stroke="none"/><text fill="#000000" stroke="none" font-family="Arial" font-size="13px" font-style="italic" font-weight="normal" text-decoration="none" x="325" y="280.5">+Remove()</text></g></g><g transform="translate(-174,-190) scale(1,1)"><g><path fill="none" stroke="none"/><text fill="#000000" stroke="none" font-family="Arial" font-size="13px" font-style="italic" font-weight="normal" text-decoration="none" x="325" y="295.5">+Display()</text></g></g><g transform="translate(-174,-190) scale(1,1)"><g><path fill="none" stroke="none"/><text fill="#000000" stroke="none" font-family="Arial" font-size="13px" font-style="italic" font-weight="normal" text-decoration="none" x="325" y="310.5">+LineOfDuty()</text></g></g><g transform="translate(-174,-190) scale(1,1)"><rect fill="#C0C0C0" stroke="none" x="455" y="383" width="196" height="57" opacity="0.2"/></g><g transform="translate(-174,-190) scale(1,1)"><rect fill="#ffffff" stroke="none" x="448" y="376" width="196" height="57"/></g><g transform="translate(-174,-190) scale(1,1)"><path fill="none" stroke="#000000" d="M 448 376 L 644 376 L 644 433 L 448 433 L 448 376 Z Z" stroke-miterlimit="10"/></g><g transform="translate(-174,-190) scale(1,1)"><path fill="none" stroke="#000000" d="M 448 401 L 644 401" stroke-miterlimit="10"/></g><g transform="translate(-174,-190) scale(1,1)"><path fill="none" stroke="#000000" d="M 448 424 L 644 424" stroke-miterlimit="10"/></g><g transform="translate(-174,-190) scale(1,1)"><g><path fill="none" stroke="none"/><text fill="#000000" stroke="none" font-family="Arial" font-size="13px" font-style="normal" font-weight="bold" text-decoration="none" x="492.5" y="395.5">ConcreteCompany</text></g></g><g transform="translate(-174,-190) scale(1,1)"><g><path fill="none" stroke="none"/><text fill="#000000" stroke="none" font-family="Arial" font-size="13px" font-style="normal" font-weight="normal" text-decoration="none" x="453" y="418.5">-companies: vector&lt;Company*&gt;</text></g></g><g transform="translate(-174,-190) scale(1,1)"><rect fill="#C0C0C0" stroke="none" x="191" y="383" width="94" height="44" opacity="0.2"/></g><g transform="translate(-174,-190) scale(1,1)"><rect fill="#ffffff" stroke="none" x="184" y="376" width="94" height="44"/></g><g transform="translate(-174,-190) scale(1,1)"><path fill="none" stroke="#000000" d="M 184 376 L 278 376 L 278 420 L 184 420 L 184 376 Z Z" stroke-miterlimit="10"/></g><g transform="translate(-174,-190) scale(1,1)"><path fill="none" stroke="#000000" d="M 184 401 L 278 401" stroke-miterlimit="10"/></g><g transform="translate(-174,-190) scale(1,1)"><path fill="none" stroke="#000000" d="M 184 411 L 278 411" stroke-miterlimit="10"/></g><g transform="translate(-174,-190) scale(1,1)"><g><path fill="none" stroke="none"/><text fill="#000000" stroke="none" font-family="Arial" font-size="13px" font-style="normal" font-weight="bold" text-decoration="none" x="191" y="395.5">HrDepartment</text></g></g><g transform="translate(-174,-190) scale(1,1)"><rect fill="#C0C0C0" stroke="none" x="311" y="383" width="129" height="44" opacity="0.2"/></g><g transform="translate(-174,-190) scale(1,1)"><rect fill="#ffffff" stroke="none" x="304" y="376" width="129" height="44"/></g><g transform="translate(-174,-190) scale(1,1)"><path fill="none" stroke="#000000" d="M 304 376 L 433 376 L 433 420 L 304 420 L 304 376 Z Z" stroke-miterlimit="10"/></g><g transform="translate(-174,-190) scale(1,1)"><path fill="none" stroke="#000000" d="M 304 401 L 433 401" stroke-miterlimit="10"/></g><g transform="translate(-174,-190) scale(1,1)"><path fill="none" stroke="#000000" d="M 304 411 L 433 411" stroke-miterlimit="10"/></g><g transform="translate(-174,-190) scale(1,1)"><g><path fill="none" stroke="none"/><text fill="#000000" stroke="none" font-family="Arial" font-size="13px" font-style="normal" font-weight="bold" text-decoration="none" x="312" y="395.5">FinanceDepartment</text></g></g><g transform="translate(-174,-190) scale(1,1)"><path fill="none" stroke="#000000" d="M 253 375 L 319 305" stroke-miterlimit="10"/></g><g transform="translate(-174,-190) scale(1,1)"><path fill="#FFFFFF" stroke="none" d="M 311.18214958358766 325.56407583302985 L 319 305 L 298.93094748588294 314.01294242662254"/></g><g transform="translate(-174,-190) scale(1,1)"><path fill="none" stroke="#000000" d="M 311.18214958358766 325.56407583302985 L 319 305 L 298.93094748588294 314.01294242662254 L 311.18214958358766 325.56407583302985" stroke-miterlimit="10"/></g><g transform="translate(-174,-190) scale(1,1)"><path fill="none" stroke="#000000" d="M 368 375 L 366 316" stroke-miterlimit="10"/></g><g transform="translate(-174,-190) scale(1,1)"><path fill="#FFFFFF" stroke="none" d="M 375.1028019267219 336.0284546853438 L 366 316 L 358.274396845489 336.59890909487706"/></g><g transform="translate(-174,-190) scale(1,1)"><path fill="none" stroke="#000000" d="M 375.1028019267219 336.0284546853438 L 366 316 L 358.274396845489 336.59890909487706 L 375.1028019267219 336.0284546853438" stroke-miterlimit="10"/></g><g transform="translate(-174,-190) scale(1,1)"><path fill="none" stroke="#000000" d="M 510 375 L 411 294" stroke-miterlimit="10"/></g><g transform="translate(-174,-190) scale(1,1)"><path fill="#FFFFFF" stroke="none" d="M 432.0622042147131 300.3548055531008 L 411 294 L 421.39970132724 313.38675352667906"/></g><g transform="translate(-174,-190) scale(1,1)"><path fill="none" stroke="#000000" d="M 432.0622042147131 300.3548055531008 L 411 294 L 421.39970132724 313.38675352667906 L 432.0622042147131 300.3548055531008" stroke-miterlimit="10"/></g><g transform="translate(-174,-190) scale(1,1)"><path fill="none" stroke="#000000" d="M 411 257 L 544 256 L 546 375" stroke-miterlimit="10"/></g><g transform="translate(-174,-190) scale(1,1)"><path fill="#FFFFFF" stroke="none" d="M 541.6202995002805 364.90949835078766 L 546 375 L 550.0381462188143 364.76802193535013 L 545.6303043103717 353.0031064671152"/></g><g transform="translate(-174,-190) scale(1,1)"><path fill="none" stroke="#000000" d="M 541.6202995002805 364.90949835078766 L 546 375 L 550.0381462188143 364.76802193535013 L 545.6303043103717 353.0031064671152 L 541.6202995002805 364.90949835078766" stroke-miterlimit="10"/></g></g></svg>