<svg version="1.1" xmlns="http://www.w3.org/2000/svg" xmlns:xlink="http://www.w3.org/1999/xlink" width="493.890625" height="253"><defs/><g><g transform="translate(-174,-190) scale(1,1)"><rect fill="#C0C0C0" stroke="none" x="327" y="207" width="90" height="100" opacity="0.2"/></g><g transform="translate(-174,-190) scale(1,1)"><rect fill="#ffffff" stroke="none" x="320" y="200" width="90" height="100"/></g><g transform="translate(-174,-190) scale(1,1)"><path fill="none" stroke="#000000" d="M 320 200 L 410 200 L 410 300 L 320 300 L 320 200 Z Z" stroke-miterlimit="10"/></g><g transform="translate(-174,-190) scale(1,1)"><path fill="none" stroke="#000000" d="M 320 225 L 410 225" stroke-miterlimit="10"/></g><g transform="translate(-174,-190) scale(1,1)"><path fill="none" stroke="#000000" d="M 320 248 L 410 248" stroke-miterlimit="10"/></g><g transform="translate(-174,-190) scale(1,1)"><g><path fill="none" stroke="none"/><text fill="#000000" stroke="none" font-family="Arial" font-size="13px" font-style="italic" font-weight="bold" text-decoration="none" x="337.5" y="219.5">Company</text></g></g><g transform="translate(-174,-190) scale(1,1)"><g><path fill="none" stroke="none"/><text fill="#000000" stroke="none" font-family="Arial" font-size="13px" font-style="normal" font-weight="normal" text-decoration="none" x="325" y="242.5">#name: string</text></g></g><g transform="translate(-174,-190) scale(1,1)"><g><path fill="none" stroke="none"/><text fill="#000000" stroke="none" font-family="Arial" font-size="13px" font-style="italic" font-weight="normal" text-decoration="none" x="325" y="265.5">+Add()</text></g></g><g transform="translate(-174,-190) scale(1,1)"><g><path fill="none" stroke="none"/><text fill="#000000" stroke="none" font-family="Arial" font-size="13px" font-style="italic" font-weight="normal" text-decoration="none" x="325" y="280.5">+Display()</text></g></g><g transform="translate(-174,-190) scale(1,1)"><g><path fill="none" stroke="none"/><text fill="#000000" stroke="none" font-family="Arial" font-size="13px" font-style="italic" font-weight="normal" text-decoration="none" x="325" y="295.5">+LineOfDuty()</text></g></g><g transform="translate(-174,-190) scale(1,1)"><rect fill="#C0C0C0" stroke="none" x="455" y="383" width="209.890625" height="57" opacity="0.2"/></g><g transform="translate(-174,-190) scale(1,1)"><rect fill="#ffffff" stroke="none" x="448" y="376" width="209.890625" height="57"/></g><g transform="translate(-174,-190) scale(1,1)"><path fill="none" stroke="#000000" d="M 448 376 L 657.890625 376 L 657.890625 433 L 448 433 L 448 376 Z Z" stroke-miterlimit="10"/></g><g transform="translate(-174,-190) scale(1,1)"><path fill="none" stroke="#000000" d="M 448 401 L 657.890625 401" stroke-miterlimit="10"/></g><g transform="translate(-174,-190) scale(1,1)"><path fill="none" stroke="#000000" d="M 448 424 L 657.890625 424" stroke-miterlimit="10"/></g><g transform="translate(-174,-190) scale(1,1)"><g><path fill="none" stroke="none"/><text fill="#000000" stroke="none" font-family="Arial" font-size="13px" font-style="normal" font-weight="bold" text-decoration="none" x="499.4453125" y="395.5">ConcreteCompany</text></g></g><g transform="translate(-174,-190) scale(1,1)"><g><path fill="none" stroke="none"/><text fill="#000000" stroke="none" font-family="Arial" font-size="13px" font-style="normal" font-weight="normal" text-decoration="none" x="453" y="418.5">-companies: vector&lt;Company*&gt;</text></g></g><g transform="translate(-174,-190) scale(1,1)"><rect fill="#C0C0C0" stroke="none" x="191" y="383" width="104.443359375" height="44" opacity="0.2"/></g><g transform="translate(-174,-190) scale(1,1)"><rect fill="#ffffff" stroke="none" x="184" y="376" width="104.443359375" height="44"/></g><g transform="translate(-174,-190) scale(1,1)"><path fill="none" stroke="#000000" d="M 184 376 L 288.443359375 376 L 288.443359375 420 L 184 420 L 184 376 Z Z" stroke-miterlimit="10"/></g><g transform="translate(-174,-190) scale(1,1)"><path fill="none" stroke="#000000" d="M 184 401 L 288.443359375 401" stroke-miterlimit="10"/></g><g transform="translate(-174,-190) scale(1,1)"><path fill="none" stroke="#000000" d="M 184 411 L 288.443359375 411" stroke-miterlimit="10"/></g><g transform="translate(-174,-190) scale(1,1)"><g><path fill="none" stroke="none"/><text fill="#000000" stroke="none" font-family="Arial" font-size="13px" font-style="normal" font-weight="bold" text-decoration="none" x="196.2216796875" y="395.5">HrDepartment</text></g></g><g transform="translate(-174,-190) scale(1,1)"><rect fill="#C0C0C0" stroke="none" x="311" y="383" width="139.33642578125" height="44" opacity="0.2"/></g><g transform="translate(-174,-190) scale(1,1)"><rect fill="#ffffff" stroke="none" x="304" y="376" width="139.33642578125" height="44"/></g><g transform="translate(-174,-190) scale(1,1)"><path fill="none" stroke="#000000" d="M 304 376 L 443.33642578125 376 L 443.33642578125 420 L 304 420 L 304 376 Z Z" stroke-miterlimit="10"/></g><g transform="translate(-174,-190) scale(1,1)"><path fill="none" stroke="#000000" d="M 304 401 L 443.33642578125 401" stroke-miterlimit="10"/></g><g transform="translate(-174,-190) scale(1,1)"><path fill="none" stroke="#000000" d="M 304 411 L 443.33642578125 411" stroke-miterlimit="10"/></g><g transform="translate(-174,-190) scale(1,1)"><g><path fill="none" stroke="none"/><text fill="#000000" stroke="none" font-family="Arial" font-size="13px" font-style="normal" font-weight="bold" text-decoration="none" x="317.168212890625" y="395.5">FinanceDepartment</text></g></g><g transform="translate(-174,-190) scale(1,1)"><path fill="none" stroke="#000000" d="M 256 375 L 321 301" stroke-miterlimit="10"/></g><g transform="translate(-174,-190) scale(1,1)"><path fill="#FFFFFF" stroke="none" d="M 313.9118367441151 321.8268562595972 L 321 301 L 301.2611004036478 310.7147229875651"/></g><g transform="translate(-174,-190) scale(1,1)"><path fill="none" stroke="#000000" d="M 313.9118367441151 321.8268562595972 L 321 301 L 301.2611004036478 310.7147229875651 L 313.9118367441151 321.8268562595972" stroke-miterlimit="10"/></g><g transform="translate(-174,-190) scale(1,1)"><path fill="none" stroke="#000000" d="M 372 375 L 368 301" stroke-miterlimit="10"/></g><g transform="translate(-174,-190) scale(1,1)"><path fill="#FFFFFF" stroke="none" d="M 377.50382885411415 320.841301295825 L 368 301 L 360.6903031361372 321.7501405238238"/></g><g transform="translate(-174,-190) scale(1,1)"><path fill="none" stroke="#000000" d="M 377.50382885411415 320.841301295825 L 368 301 L 360.6903031361372 321.7501405238238 L 377.50382885411415 320.841301295825" stroke-miterlimit="10"/></g><g transform="translate(-174,-190) scale(1,1)"><path fill="none" stroke="#000000" d="M 517 375 L 411 288" stroke-miterlimit="10"/></g><g transform="translate(-174,-190) scale(1,1)"><path fill="#FFFFFF" stroke="none" d="M 432.0523976349217 294.38721800325794 L 411 288 L 421.36984796486826 307.40273829090927"/></g><g transform="translate(-174,-190) scale(1,1)"><path fill="none" stroke="#000000" d="M 432.0523976349217 294.38721800325794 L 411 288 L 421.36984796486826 307.40273829090927 L 432.0523976349217 294.38721800325794" stroke-miterlimit="10"/></g><g transform="translate(-174,-190) scale(1,1)"><path fill="none" stroke="#000000" d="M 411 252 L 544 256 L 550 375" stroke-miterlimit="10"/></g><g transform="translate(-174,-190) scale(1,1)"><path fill="#FFFFFF" stroke="none" d="M 545.2840690688726 365.06219362973724 L 550 375 L 553.692423533524 364.6382429844607 L 548.8921635758925 353.0279109218668"/></g><g transform="translate(-174,-190) scale(1,1)"><path fill="none" stroke="#000000" d="M 545.2840690688726 365.06219362973724 L 550 375 L 553.692423533524 364.6382429844607 L 548.8921635758925 353.0279109218668 L 545.2840690688726 365.06219362973724" stroke-miterlimit="10"/></g></g></svg>