<svg version="1.1" xmlns="http://www.w3.org/2000/svg" xmlns:xlink="http://www.w3.org/1999/xlink" width="392.9208984375" height="325"><defs/><g><g transform="translate(-302,-286) scale(1,1)"><rect fill="#C0C0C0" stroke="none" x="455" y="551" width="101.25048828125" height="57" opacity="0.2"/></g><g transform="translate(-302,-286) scale(1,1)"><rect fill="#ffffff" stroke="none" x="448" y="544" width="101.25048828125" height="57"/></g><g transform="translate(-302,-286) scale(1,1)"><path fill="none" stroke="#000000" d="M 448 544 L 549.25048828125 544 L 549.25048828125 601 L 448 601 L 448 544 Z Z" stroke-miterlimit="10"/></g><g transform="translate(-302,-286) scale(1,1)"><path fill="none" stroke="#000000" d="M 448 569 L 549.25048828125 569" stroke-miterlimit="10"/></g><g transform="translate(-302,-286) scale(1,1)"><path fill="none" stroke="#000000" d="M 448 592 L 549.25048828125 592" stroke-miterlimit="10"/></g><g transform="translate(-302,-286) scale(1,1)"><g><path fill="none" stroke="none"/><text fill="#000000" stroke="none" font-family="Arial" font-size="13px" font-style="normal" font-weight="bold" text-decoration="none" x="468.625244140625" y="563.5">SchoolGirl</text></g></g><g transform="translate(-302,-286) scale(1,1)"><g><path fill="none" stroke="none"/><text fill="#000000" stroke="none" font-family="Arial" font-size="13px" font-style="normal" font-weight="normal" text-decoration="none" x="453" y="586.5">-name_: string</text></g></g><g transform="translate(-302,-286) scale(1,1)"><path fill="#C0C0C0" stroke="none" d="M 500 314.5 C 500 308.1487248 505.1487248 303 511.5 303 C 517.8512752 303 523 308.1487248 523 314.5 C 523 320.8512752 517.8512752 326 511.5 326 C 505.1487248 326 500 320.8512752 500 314.5 Z" opacity="0.2"/></g><g transform="translate(-302,-286) scale(1,1)"><path fill="#ffffff" stroke="none" d="M 493 307.5 C 493 301.1487248 498.1487248 296 504.5 296 C 510.8512752 296 516 301.1487248 516 307.5 C 516 313.8512752 510.8512752 319 504.5 319 C 498.1487248 319 493 313.8512752 493 307.5 Z"/></g><g transform="translate(-302,-286) scale(1,1)"><path fill="none" stroke="#000000" d="M 493 307.5 C 493 301.1487248 498.1487248 296 504.5 296 C 510.8512752 296 516 301.1487248 516 307.5 C 516 313.8512752 510.8512752 319 504.5 319 C 498.1487248 319 493 313.8512752 493 307.5 Z" stroke-miterlimit="10"/></g><g transform="translate(-302,-286) scale(1,1)"><path fill="none" stroke="#000000" d="M 456 344 L 553 344" stroke-miterlimit="10"/></g><g transform="translate(-302,-286) scale(1,1)"><g><path fill="none" stroke="none"/><text fill="#000000" stroke="none" font-family="Arial" font-size="13px" font-style="italic" font-weight="bold" text-decoration="none" x="480.5" y="338.5">GiveGift</text></g></g><g transform="translate(-302,-286) scale(1,1)"><g><path fill="none" stroke="none"/><text fill="#000000" stroke="none" font-family="Arial" font-size="13px" font-style="italic" font-weight="normal" text-decoration="none" x="461" y="361.5">+GiveFlowers()</text></g></g><g transform="translate(-302,-286) scale(1,1)"><g><path fill="none" stroke="none"/><text fill="#000000" stroke="none" font-family="Arial" font-size="13px" font-style="italic" font-weight="normal" text-decoration="none" x="461" y="376.5">+GiveDolls()</text></g></g><g transform="translate(-302,-286) scale(1,1)"><rect fill="#C0C0C0" stroke="none" x="319" y="431" width="168.35791015625" height="57" opacity="0.2"/></g><g transform="translate(-302,-286) scale(1,1)"><rect fill="#ffffff" stroke="none" x="312" y="424" width="168.35791015625" height="57"/></g><g transform="translate(-302,-286) scale(1,1)"><path fill="none" stroke="#000000" d="M 312 424 L 480.35791015625 424 L 480.35791015625 481 L 312 481 L 312 424 Z Z" stroke-miterlimit="10"/></g><g transform="translate(-302,-286) scale(1,1)"><path fill="none" stroke="#000000" d="M 312 449 L 480.35791015625 449" stroke-miterlimit="10"/></g><g transform="translate(-302,-286) scale(1,1)"><path fill="none" stroke="#000000" d="M 312 472 L 480.35791015625 472" stroke-miterlimit="10"/></g><g transform="translate(-302,-286) scale(1,1)"><g><path fill="none" stroke="none"/><text fill="#000000" stroke="none" font-family="Arial" font-size="13px" font-style="normal" font-weight="bold" text-decoration="none" x="375.678955078125" y="443.5">Pursuit</text></g></g><g transform="translate(-302,-286) scale(1,1)"><g><path fill="none" stroke="none"/><text fill="#000000" stroke="none" font-family="Arial" font-size="13px" font-style="normal" font-weight="normal" text-decoration="none" x="317" y="466.5">-*school_girl_: SchoolGirl</text></g></g><g transform="translate(-302,-286) scale(1,1)"><path fill="none" stroke="#000000" d="M 424 423 L 497.36842105263156 319" stroke-miterlimit="10"/></g><g transform="translate(-302,-286) scale(1,1)"><rect fill="#C0C0C0" stroke="none" x="567" y="415" width="124.9208984375" height="85" opacity="0.2"/></g><g transform="translate(-302,-286) scale(1,1)"><rect fill="#ffffff" stroke="none" x="560" y="408" width="124.9208984375" height="85"/></g><g transform="translate(-302,-286) scale(1,1)"><path fill="none" stroke="#000000" d="M 560 408 L 684.9208984375 408 L 684.9208984375 493 L 560 493 L 560 408 Z Z" stroke-miterlimit="10"/></g><g transform="translate(-302,-286) scale(1,1)"><path fill="none" stroke="#000000" d="M 560 433 L 684.9208984375 433" stroke-miterlimit="10"/></g><g transform="translate(-302,-286) scale(1,1)"><path fill="none" stroke="#000000" d="M 560 456 L 684.9208984375 456" stroke-miterlimit="10"/></g><g transform="translate(-302,-286) scale(1,1)"><g><path fill="none" stroke="none"/><text fill="#000000" stroke="none" font-family="Arial" font-size="13px" font-style="normal" font-weight="bold" text-decoration="none" x="605.46044921875" y="427.5">Proxy</text></g></g><g transform="translate(-302,-286) scale(1,1)"><g><path fill="none" stroke="none"/><text fill="#000000" stroke="none" font-family="Arial" font-size="13px" font-style="normal" font-weight="normal" text-decoration="none" x="565" y="450.5">-*pursuit_: Pursuit</text></g></g><g transform="translate(-302,-286) scale(1,1)"><g><path fill="none" stroke="none"/><text fill="#000000" stroke="none" font-family="Arial" font-size="13px" font-style="normal" font-weight="normal" text-decoration="none" x="565" y="473.5">+Proxy()</text></g></g><g transform="translate(-302,-286) scale(1,1)"><g><path fill="none" stroke="none"/><text fill="#000000" stroke="none" font-family="Arial" font-size="13px" font-style="normal" font-weight="normal" text-decoration="none" x="565" y="488.5">+~Proxy()</text></g></g><g transform="translate(-302,-286) scale(1,1)"><path fill="none" stroke="#000000" d="M 576 407 L 511.42105263157896 319" stroke-miterlimit="10"/></g><g transform="translate(-302,-286) scale(1,1)"><path fill="none" stroke="#000000" d="M 422 482 L 473 543" stroke-miterlimit="10"/></g><g transform="translate(-302,-286) scale(1,1)"><path fill="none" stroke="#000000" d="M 463.25195322693565 537.9033752237241 L 473 543 L 469.71094796391066 532.5032320829745" stroke-miterlimit="10"/></g><g transform="translate(-302,-286) scale(1,1)"><path fill="none" stroke="#000000" d="M 577 494 L 527 543" stroke-miterlimit="10" stroke-dasharray="3"/></g><g transform="translate(-302,-286) scale(1,1)"><path fill="none" stroke="#000000" d="M 531.3119510679599 532.880361765976 L 527 543 L 537.204674658732 538.893345021866" stroke-miterlimit="10"/></g><g transform="translate(-302,-286) scale(1,1)"><path fill="none" stroke="#000000" d="M 559 451 L 481 451" stroke-miterlimit="10"/></g><g transform="translate(-302,-286) scale(1,1)"><path fill="none" stroke="#000000" d="M 491.16267485762415 446.790482243984 L 481 451 L 491.16267485762415 455.209517756016" stroke-miterlimit="10"/></g></g></svg>