<svg version="1.1" xmlns="http://www.w3.org/2000/svg" xmlns:xlink="http://www.w3.org/1999/xlink" width="615" height="440"><defs/><g><g transform="translate(-30,-78) scale(1,1)"><rect fill="#C0C0C0" stroke="none" x="103" y="199" width="96" height="44" opacity="0.2"/></g><g transform="translate(-30,-78) scale(1,1)"><rect fill="#ffffff" stroke="none" x="96" y="192" width="96" height="44"/></g><g transform="translate(-30,-78) scale(1,1)"><path fill="none" stroke="#000000" d="M 96 192 L 192 192 L 192 236 L 96 236 L 96 192 Z Z" stroke-miterlimit="10"/></g><g transform="translate(-30,-78) scale(1,1)"><path fill="none" stroke="#000000" d="M 96 217 L 192 217" stroke-miterlimit="10"/></g><g transform="translate(-30,-78) scale(1,1)"><path fill="none" stroke="#000000" d="M 96 227 L 192 227" stroke-miterlimit="10"/></g><g transform="translate(-30,-78) scale(1,1)"><g><path fill="none" stroke="none"/><text fill="#000000" stroke="none" font-family="Arial" font-size="13px" font-style="normal" font-weight="bold" text-decoration="none" x="103" y="211.5">SqlserverUser</text></g></g><g transform="translate(-30,-78) scale(1,1)"><rect fill="#C0C0C0" stroke="none" x="231" y="199" width="81" height="44" opacity="0.2"/></g><g transform="translate(-30,-78) scale(1,1)"><rect fill="#ffffff" stroke="none" x="224" y="192" width="81" height="44"/></g><g transform="translate(-30,-78) scale(1,1)"><path fill="none" stroke="#000000" d="M 224 192 L 305 192 L 305 236 L 224 236 L 224 192 Z Z" stroke-miterlimit="10"/></g><g transform="translate(-30,-78) scale(1,1)"><path fill="none" stroke="#000000" d="M 224 217 L 305 217" stroke-miterlimit="10"/></g><g transform="translate(-30,-78) scale(1,1)"><path fill="none" stroke="#000000" d="M 224 227 L 305 227" stroke-miterlimit="10"/></g><g transform="translate(-30,-78) scale(1,1)"><g><path fill="none" stroke="none"/><text fill="#000000" stroke="none" font-family="Arial" font-size="13px" font-style="normal" font-weight="bold" text-decoration="none" x="229" y="211.5">AccessUser</text></g></g><g transform="translate(-30,-78) scale(1,1)"><rect fill="#C0C0C0" stroke="none" x="103" y="471" width="139" height="44" opacity="0.2"/></g><g transform="translate(-30,-78) scale(1,1)"><rect fill="#ffffff" stroke="none" x="96" y="464" width="139" height="44"/></g><g transform="translate(-30,-78) scale(1,1)"><path fill="none" stroke="#000000" d="M 96 464 L 235 464 L 235 508 L 96 508 L 96 464 Z Z" stroke-miterlimit="10"/></g><g transform="translate(-30,-78) scale(1,1)"><path fill="none" stroke="#000000" d="M 96 489 L 235 489" stroke-miterlimit="10"/></g><g transform="translate(-30,-78) scale(1,1)"><path fill="none" stroke="#000000" d="M 96 499 L 235 499" stroke-miterlimit="10"/></g><g transform="translate(-30,-78) scale(1,1)"><g><path fill="none" stroke="none"/><text fill="#000000" stroke="none" font-family="Arial" font-size="13px" font-style="normal" font-weight="bold" text-decoration="none" x="104.5" y="483.5">SqlserverDepartment</text></g></g><g transform="translate(-30,-78) scale(1,1)"><rect fill="#C0C0C0" stroke="none" x="247" y="471" width="124" height="44" opacity="0.2"/></g><g transform="translate(-30,-78) scale(1,1)"><rect fill="#ffffff" stroke="none" x="240" y="464" width="124" height="44"/></g><g transform="translate(-30,-78) scale(1,1)"><path fill="none" stroke="#000000" d="M 240 464 L 364 464 L 364 508 L 240 508 L 240 464 Z Z" stroke-miterlimit="10"/></g><g transform="translate(-30,-78) scale(1,1)"><path fill="none" stroke="#000000" d="M 240 489 L 364 489" stroke-miterlimit="10"/></g><g transform="translate(-30,-78) scale(1,1)"><path fill="none" stroke="#000000" d="M 240 499 L 364 499" stroke-miterlimit="10"/></g><g transform="translate(-30,-78) scale(1,1)"><g><path fill="none" stroke="none"/><text fill="#000000" stroke="none" font-family="Arial" font-size="13px" font-style="normal" font-weight="bold" text-decoration="none" x="246.5" y="483.5">AccessDepartment</text></g></g><g transform="translate(-30,-78) scale(1,1)"><path fill="#C0C0C0" stroke="none" d="M 206 106.5 C 206 100.1487248 211.1487248 95 217.5 95 C 223.8512752 95 229 100.1487248 229 106.5 C 229 112.8512752 223.8512752 118 217.5 118 C 211.1487248 118 206 112.8512752 206 106.5 Z" opacity="0.2"/></g><g transform="translate(-30,-78) scale(1,1)"><path fill="#ffffff" stroke="none" d="M 199 99.5 C 199 93.1487248 204.1487248 88 210.5 88 C 216.8512752 88 222 93.1487248 222 99.5 C 222 105.8512752 216.8512752 111 210.5 111 C 204.1487248 111 199 105.8512752 199 99.5 Z"/></g><g transform="translate(-30,-78) scale(1,1)"><path fill="none" stroke="#000000" d="M 199 99.5 C 199 93.1487248 204.1487248 88 210.5 88 C 216.8512752 88 222 93.1487248 222 99.5 C 222 105.8512752 216.8512752 111 210.5 111 C 204.1487248 111 199 105.8512752 199 99.5 Z" stroke-miterlimit="10"/></g><g transform="translate(-30,-78) scale(1,1)"><path fill="none" stroke="#000000" d="M 168 136 L 253 136" stroke-miterlimit="10"/></g><g transform="translate(-30,-78) scale(1,1)"><g><path fill="none" stroke="none"/><text fill="#000000" stroke="none" font-family="Arial" font-size="13px" font-style="italic" font-weight="bold" text-decoration="none" x="195" y="130.5">IUser</text></g></g><g transform="translate(-30,-78) scale(1,1)"><g><path fill="none" stroke="none"/><text fill="#000000" stroke="none" font-family="Arial" font-size="13px" font-style="italic" font-weight="normal" text-decoration="none" x="173" y="153.5">+InsertUser()</text></g></g><g transform="translate(-30,-78) scale(1,1)"><g><path fill="none" stroke="none"/><text fill="#000000" stroke="none" font-family="Arial" font-size="13px" font-style="italic" font-weight="normal" text-decoration="none" x="173" y="168.5">+GetUser()</text></g></g><g transform="translate(-30,-78) scale(1,1)"><path fill="none" stroke="#000000" d="M 162 191 L 204.4736842105263 111" stroke-miterlimit="10"/></g><g transform="translate(-30,-78) scale(1,1)"><path fill="none" stroke="#000000" d="M 249 191 L 214.57894736842104 111" stroke-miterlimit="10"/></g><g transform="translate(-30,-78) scale(1,1)"><path fill="#C0C0C0" stroke="none" d="M 226 386.5 C 226 380.1487248 231.1487248 375 237.5 375 C 243.8512752 375 249 380.1487248 249 386.5 C 249 392.8512752 243.8512752 398 237.5 398 C 231.1487248 398 226 392.8512752 226 386.5 Z" opacity="0.2"/></g><g transform="translate(-30,-78) scale(1,1)"><path fill="#ffffff" stroke="none" d="M 219 379.5 C 219 373.1487248 224.1487248 368 230.5 368 C 236.8512752 368 242 373.1487248 242 379.5 C 242 385.8512752 236.8512752 391 230.5 391 C 224.1487248 391 219 385.8512752 219 379.5 Z"/></g><g transform="translate(-30,-78) scale(1,1)"><path fill="none" stroke="#000000" d="M 219 379.5 C 219 373.1487248 224.1487248 368 230.5 368 C 236.8512752 368 242 373.1487248 242 379.5 C 242 385.8512752 236.8512752 391 230.5 391 C 224.1487248 391 219 385.8512752 219 379.5 Z" stroke-miterlimit="10"/></g><g transform="translate(-30,-78) scale(1,1)"><path fill="none" stroke="#000000" d="M 168 416 L 293 416" stroke-miterlimit="10"/></g><g transform="translate(-30,-78) scale(1,1)"><g><path fill="none" stroke="none"/><text fill="#000000" stroke="none" font-family="Arial" font-size="13px" font-style="italic" font-weight="bold" text-decoration="none" x="195" y="410.5">IDepartment</text></g></g><g transform="translate(-30,-78) scale(1,1)"><g><path fill="none" stroke="none"/><text fill="#000000" stroke="none" font-family="Arial" font-size="13px" font-style="italic" font-weight="normal" text-decoration="none" x="173" y="433.5">+InsertDepartment()</text></g></g><g transform="translate(-30,-78) scale(1,1)"><g><path fill="none" stroke="none"/><text fill="#000000" stroke="none" font-family="Arial" font-size="13px" font-style="italic" font-weight="normal" text-decoration="none" x="173" y="448.5">+GetDepartment()</text></g></g><g transform="translate(-30,-78) scale(1,1)"><path fill="none" stroke="#000000" d="M 185 463 L 224 391" stroke-miterlimit="10"/></g><g transform="translate(-30,-78) scale(1,1)"><path fill="none" stroke="#000000" d="M 280 463 L 236.6315789473684 391" stroke-miterlimit="10"/></g><g transform="translate(-30,-78) scale(1,1)"><rect fill="#C0C0C0" stroke="none" x="55" y="119" width="37" height="44" opacity="0.2"/></g><g transform="translate(-30,-78) scale(1,1)"><rect fill="#ffffff" stroke="none" x="48" y="112" width="37" height="44"/></g><g transform="translate(-30,-78) scale(1,1)"><path fill="none" stroke="#000000" d="M 48 112 L 85 112 L 85 156 L 48 156 L 48 112 Z Z" stroke-miterlimit="10"/></g><g transform="translate(-30,-78) scale(1,1)"><path fill="none" stroke="#000000" d="M 48 137 L 85 137" stroke-miterlimit="10"/></g><g transform="translate(-30,-78) scale(1,1)"><path fill="none" stroke="#000000" d="M 48 147 L 85 147" stroke-miterlimit="10"/></g><g transform="translate(-30,-78) scale(1,1)"><g><path fill="none" stroke="none"/><text fill="#000000" stroke="none" font-family="Arial" font-size="13px" font-style="normal" font-weight="bold" text-decoration="none" x="53" y="131.5">User</text></g></g><g transform="translate(-30,-78) scale(1,1)"><rect fill="#C0C0C0" stroke="none" x="47" y="399" width="80" height="44" opacity="0.2"/></g><g transform="translate(-30,-78) scale(1,1)"><rect fill="#ffffff" stroke="none" x="40" y="392" width="80" height="44"/></g><g transform="translate(-30,-78) scale(1,1)"><path fill="none" stroke="#000000" d="M 40 392 L 120 392 L 120 436 L 40 436 L 40 392 Z Z" stroke-miterlimit="10"/></g><g transform="translate(-30,-78) scale(1,1)"><path fill="none" stroke="#000000" d="M 40 417 L 120 417" stroke-miterlimit="10"/></g><g transform="translate(-30,-78) scale(1,1)"><path fill="none" stroke="#000000" d="M 40 427 L 120 427" stroke-miterlimit="10"/></g><g transform="translate(-30,-78) scale(1,1)"><g><path fill="none" stroke="none"/><text fill="#000000" stroke="none" font-family="Arial" font-size="13px" font-style="normal" font-weight="bold" text-decoration="none" x="46.5" y="411.5">Department</text></g></g><g transform="translate(-30,-78) scale(1,1)"><path fill="#C0C0C0" stroke="none" d="M 500.5 194.5 C 500.5 188.1487248 505.6487248 183 512 183 C 518.3512752 183 523.5 188.1487248 523.5 194.5 C 523.5 200.8512752 518.3512752 206 512 206 C 505.6487248 206 500.5 200.8512752 500.5 194.5 Z" opacity="0.2"/></g><g transform="translate(-30,-78) scale(1,1)"><path fill="#ffffff" stroke="none" d="M 493.5 187.5 C 493.5 181.1487248 498.6487248 176 505 176 C 511.3512752 176 516.5 181.1487248 516.5 187.5 C 516.5 193.8512752 511.3512752 199 505 199 C 498.6487248 199 493.5 193.8512752 493.5 187.5 Z"/></g><g transform="translate(-30,-78) scale(1,1)"><path fill="none" stroke="#000000" d="M 493.5 187.5 C 493.5 181.1487248 498.6487248 176 505 176 C 511.3512752 176 516.5 181.1487248 516.5 187.5 C 516.5 193.8512752 511.3512752 199 505 199 C 498.6487248 199 493.5 193.8512752 493.5 187.5 Z" stroke-miterlimit="10"/></g><g transform="translate(-30,-78) scale(1,1)"><path fill="none" stroke="#000000" d="M 440 224 L 570 224" stroke-miterlimit="10"/></g><g transform="translate(-30,-78) scale(1,1)"><g><path fill="none" stroke="none"/><text fill="#000000" stroke="none" font-family="Arial" font-size="13px" font-style="italic" font-weight="bold" text-decoration="none" x="481" y="218.5">IFactory</text></g></g><g transform="translate(-30,-78) scale(1,1)"><g><path fill="none" stroke="none"/><text fill="#000000" stroke="none" font-family="Arial" font-size="13px" font-style="italic" font-weight="normal" text-decoration="none" x="445" y="241.5">+CreateUser()</text></g></g><g transform="translate(-30,-78) scale(1,1)"><g><path fill="none" stroke="none"/><text fill="#000000" stroke="none" font-family="Arial" font-size="13px" font-style="italic" font-weight="normal" text-decoration="none" x="445" y="256.5">+CreateDepartment()</text></g></g><g transform="translate(-30,-78) scale(1,1)"><rect fill="#C0C0C0" stroke="none" x="391" y="319" width="114" height="44" opacity="0.2"/></g><g transform="translate(-30,-78) scale(1,1)"><rect fill="#ffffff" stroke="none" x="384" y="312" width="114" height="44"/></g><g transform="translate(-30,-78) scale(1,1)"><path fill="none" stroke="#000000" d="M 384 312 L 498 312 L 498 356 L 384 356 L 384 312 Z Z" stroke-miterlimit="10"/></g><g transform="translate(-30,-78) scale(1,1)"><path fill="none" stroke="#000000" d="M 384 337 L 498 337" stroke-miterlimit="10"/></g><g transform="translate(-30,-78) scale(1,1)"><path fill="none" stroke="#000000" d="M 384 347 L 498 347" stroke-miterlimit="10"/></g><g transform="translate(-30,-78) scale(1,1)"><g><path fill="none" stroke="none"/><text fill="#000000" stroke="none" font-family="Arial" font-size="13px" font-style="normal" font-weight="bold" text-decoration="none" x="391.5" y="331.5">SqlserverFactory</text></g></g><g transform="translate(-30,-78) scale(1,1)"><rect fill="#C0C0C0" stroke="none" x="543" y="319" width="99" height="44" opacity="0.2"/></g><g transform="translate(-30,-78) scale(1,1)"><rect fill="#ffffff" stroke="none" x="536" y="312" width="99" height="44"/></g><g transform="translate(-30,-78) scale(1,1)"><path fill="none" stroke="#000000" d="M 536 312 L 635 312 L 635 356 L 536 356 L 536 312 Z Z" stroke-miterlimit="10"/></g><g transform="translate(-30,-78) scale(1,1)"><path fill="none" stroke="#000000" d="M 536 337 L 635 337" stroke-miterlimit="10"/></g><g transform="translate(-30,-78) scale(1,1)"><path fill="none" stroke="#000000" d="M 536 347 L 635 347" stroke-miterlimit="10"/></g><g transform="translate(-30,-78) scale(1,1)"><g><path fill="none" stroke="none"/><text fill="#000000" stroke="none" font-family="Arial" font-size="13px" font-style="normal" font-weight="bold" text-decoration="none" x="541.5" y="331.5">AccessFactory</text></g></g><g transform="translate(-30,-78) scale(1,1)"><path fill="none" stroke="#000000" d="M 454 311 L 501.2105263157895 199" stroke-miterlimit="10"/></g><g transform="translate(-30,-78) scale(1,1)"><path fill="none" stroke="#000000" d="M 569 311 L 509.89473684210526 199" stroke-miterlimit="10"/></g><g transform="translate(-30,-78) scale(1,1)"><path fill="none" stroke="#000000" d="M 384 311 L 193 234" stroke-miterlimit="10" stroke-dasharray="3"/></g><g transform="translate(-30,-78) scale(1,1)"><path fill="none" stroke="#000000" d="M 203.99950492665073 233.89563828007348 L 193 234 L 200.8516194031859 241.70402964347323" stroke-miterlimit="10"/></g><g transform="translate(-30,-78) scale(1,1)"><path fill="none" stroke="#000000" d="M 399 357 L 207 463" stroke-miterlimit="10" stroke-dasharray="3"/></g><g transform="translate(-30,-78) scale(1,1)"><path fill="none" stroke="#000000" d="M 213.86232190555148 454.40299249362965 L 207 463 L 217.93139665976656 461.77339204843435" stroke-miterlimit="10"/></g><g transform="translate(-30,-78) scale(1,1)"><path fill="none" stroke="#000000" d="M 535 315 L 306 230" stroke-miterlimit="10" stroke-dasharray="3"/></g><g transform="translate(-30,-78) scale(1,1)"><path fill="none" stroke="#000000" d="M 316.9923559708387 229.58998754852226 L 306 230 L 314.0626920330073 237.48284686338565" stroke-miterlimit="10"/></g><g transform="translate(-30,-78) scale(1,1)"><path fill="none" stroke="#000000" d="M 542 357 L 345 463" stroke-miterlimit="10" stroke-dasharray="3"/></g><g transform="translate(-30,-78) scale(1,1)"><path fill="none" stroke="#000000" d="M 351.95479039798954 454.4776241270387 L 345 463 L 355.94400922374103 461.891549680558" stroke-miterlimit="10"/></g><g transform="translate(-30,-78) scale(1,1)"><path fill="none" stroke="#000000" d="M 167 132 L 86 134" stroke-miterlimit="10" stroke-dasharray="3"/></g><g transform="translate(-30,-78) scale(1,1)"><path fill="none" stroke="#000000" d="M 96.05567132847015 129.54091106460262 L 86 134 L 96.26348540987777 137.957381361611" stroke-miterlimit="10"/></g><g transform="translate(-30,-78) scale(1,1)"><path fill="none" stroke="#000000" d="M 167 412 L 121 413" stroke-miterlimit="10" stroke-dasharray="3"/></g><g transform="translate(-30,-78) scale(1,1)"><path fill="none" stroke="#000000" d="M 131.0687846806596 408.57060105042297 L 121 413 L 131.25176395982814 416.9876478921751" stroke-miterlimit="10"/></g></g></svg>