<svg version="1.1" xmlns="http://www.w3.org/2000/svg" xmlns:xlink="http://www.w3.org/1999/xlink" width="591" height="253"><defs/><g><g transform="translate(-102,-150) scale(1,1)"><rect fill="#C0C0C0" stroke="none" x="175" y="167" width="88" height="87" opacity="0.2"/></g><g transform="translate(-102,-150) scale(1,1)"><rect fill="#ffffff" stroke="none" x="168" y="160" width="88" height="87"/></g><g transform="translate(-102,-150) scale(1,1)"><path fill="none" stroke="#000000" d="M 168 160 L 256 160 L 256 247 L 168 247 L 168 160 Z Z" stroke-miterlimit="10"/></g><g transform="translate(-102,-150) scale(1,1)"><path fill="none" stroke="#000000" d="M 168 185 L 256 185" stroke-miterlimit="10"/></g><g transform="translate(-102,-150) scale(1,1)"><path fill="none" stroke="#000000" d="M 168 195 L 256 195" stroke-miterlimit="10"/></g><g transform="translate(-102,-150) scale(1,1)"><g><path fill="none" stroke="none"/><text fill="#000000" stroke="none" font-family="Arial" font-size="13px" font-style="italic" font-weight="bold" text-decoration="none" x="189" y="179.5">LeiFeng</text></g></g><g transform="translate(-102,-150) scale(1,1)"><g><path fill="none" stroke="none"/><text fill="#000000" stroke="none" font-family="Arial" font-size="13px" font-style="italic" font-weight="normal" text-decoration="none" x="173" y="212.5">+Wash()</text></g></g><g transform="translate(-102,-150) scale(1,1)"><g><path fill="none" stroke="none"/><text fill="#000000" stroke="none" font-family="Arial" font-size="13px" font-style="italic" font-weight="normal" text-decoration="none" x="173" y="227.5">+Sweep()</text></g></g><g transform="translate(-102,-150) scale(1,1)"><g><path fill="none" stroke="none"/><text fill="#000000" stroke="none" font-family="Arial" font-size="13px" font-style="italic" font-weight="normal" text-decoration="none" x="173" y="242.5">+BuyRice()</text></g></g><g transform="translate(-102,-150) scale(1,1)"><rect fill="#C0C0C0" stroke="none" x="119" y="295" width="100" height="44" opacity="0.2"/></g><g transform="translate(-102,-150) scale(1,1)"><rect fill="#ffffff" stroke="none" x="112" y="288" width="100" height="44"/></g><g transform="translate(-102,-150) scale(1,1)"><path fill="none" stroke="#000000" d="M 112 288 L 212 288 L 212 332 L 112 332 L 112 288 Z Z" stroke-miterlimit="10"/></g><g transform="translate(-102,-150) scale(1,1)"><path fill="none" stroke="#000000" d="M 112 313 L 212 313" stroke-miterlimit="10"/></g><g transform="translate(-102,-150) scale(1,1)"><path fill="none" stroke="#000000" d="M 112 323 L 212 323" stroke-miterlimit="10"/></g><g transform="translate(-102,-150) scale(1,1)"><g><path fill="none" stroke="none"/><text fill="#000000" stroke="none" font-family="Arial" font-size="13px" font-style="normal" font-weight="bold" text-decoration="none" x="120" y="307.5">Undergraduate</text></g></g><g transform="translate(-102,-150) scale(1,1)"><rect fill="#C0C0C0" stroke="none" x="247" y="295" width="69" height="44" opacity="0.2"/></g><g transform="translate(-102,-150) scale(1,1)"><rect fill="#ffffff" stroke="none" x="240" y="288" width="69" height="44"/></g><g transform="translate(-102,-150) scale(1,1)"><path fill="none" stroke="#000000" d="M 240 288 L 309 288 L 309 332 L 240 332 L 240 288 Z Z" stroke-miterlimit="10"/></g><g transform="translate(-102,-150) scale(1,1)"><path fill="none" stroke="#000000" d="M 240 313 L 309 313" stroke-miterlimit="10"/></g><g transform="translate(-102,-150) scale(1,1)"><path fill="none" stroke="#000000" d="M 240 323 L 309 323" stroke-miterlimit="10"/></g><g transform="translate(-102,-150) scale(1,1)"><g><path fill="none" stroke="none"/><text fill="#000000" stroke="none" font-family="Arial" font-size="13px" font-style="normal" font-weight="bold" text-decoration="none" x="247" y="307.5">Volunteer</text></g></g><g transform="translate(-102,-150) scale(1,1)"><path fill="none" stroke="#000000" d="M 173 287 L 191 248" stroke-miterlimit="10" stroke-dasharray="3"/></g><g transform="translate(-102,-150) scale(1,1)"><path fill="none" stroke="#000000" d="M 190.5633191468237 258.99132884743557 L 191 248 L 182.9191768452317 255.46326316977772" stroke-miterlimit="10"/></g><g transform="translate(-102,-150) scale(1,1)"><path fill="none" stroke="#000000" d="M 261 287 L 238 248" stroke-miterlimit="10" stroke-dasharray="3"/></g><g transform="translate(-102,-150) scale(1,1)"><path fill="none" stroke="#000000" d="M 246.78842165495846 254.61540964828765 L 238 248 L 239.5365515255167 258.89215357077893" stroke-miterlimit="10"/></g><g transform="translate(-102,-150) scale(1,1)"><path fill="#C0C0C0" stroke="none" d="M 522 186.5 C 522 180.1487248 527.1487248 175 533.5 175 C 539.8512752 175 545 180.1487248 545 186.5 C 545 192.8512752 539.8512752 198 533.5 198 C 527.1487248 198 522 192.8512752 522 186.5 Z" opacity="0.2"/></g><g transform="translate(-102,-150) scale(1,1)"><path fill="#ffffff" stroke="none" d="M 515 179.5 C 515 173.1487248 520.1487248 168 526.5 168 C 532.8512752 168 538 173.1487248 538 179.5 C 538 185.8512752 532.8512752 191 526.5 191 C 520.1487248 191 515 185.8512752 515 179.5 Z"/></g><g transform="translate(-102,-150) scale(1,1)"><path fill="none" stroke="#000000" d="M 515 179.5 C 515 173.1487248 520.1487248 168 526.5 168 C 532.8512752 168 538 173.1487248 538 179.5 C 538 185.8512752 532.8512752 191 526.5 191 C 520.1487248 191 515 185.8512752 515 179.5 Z" stroke-miterlimit="10"/></g><g transform="translate(-102,-150) scale(1,1)"><path fill="none" stroke="#000000" d="M 472 216 L 581 216" stroke-miterlimit="10"/></g><g transform="translate(-102,-150) scale(1,1)"><g><path fill="none" stroke="none"/><text fill="#000000" stroke="none" font-family="Arial" font-size="13px" font-style="italic" font-weight="bold" text-decoration="none" x="502.5" y="210.5">IFactory</text></g></g><g transform="translate(-102,-150) scale(1,1)"><g><path fill="none" stroke="none"/><text fill="#000000" stroke="none" font-family="Arial" font-size="13px" font-style="italic" font-weight="normal" text-decoration="none" x="477" y="233.5">+CreateLeiFeng()</text></g></g><g transform="translate(-102,-150) scale(1,1)"><rect fill="#C0C0C0" stroke="none" x="399" y="295" width="146" height="44" opacity="0.2"/></g><g transform="translate(-102,-150) scale(1,1)"><rect fill="#ffffff" stroke="none" x="392" y="288" width="146" height="44"/></g><g transform="translate(-102,-150) scale(1,1)"><path fill="none" stroke="#000000" d="M 392 288 L 538 288 L 538 332 L 392 332 L 392 288 Z Z" stroke-miterlimit="10"/></g><g transform="translate(-102,-150) scale(1,1)"><path fill="none" stroke="#000000" d="M 392 313 L 538 313" stroke-miterlimit="10"/></g><g transform="translate(-102,-150) scale(1,1)"><path fill="none" stroke="#000000" d="M 392 323 L 538 323" stroke-miterlimit="10"/></g><g transform="translate(-102,-150) scale(1,1)"><g><path fill="none" stroke="none"/><text fill="#000000" stroke="none" font-family="Arial" font-size="13px" font-style="normal" font-weight="bold" text-decoration="none" x="401" y="307.5">UndergraduateFactory</text></g></g><g transform="translate(-102,-150) scale(1,1)"><rect fill="#C0C0C0" stroke="none" x="575" y="295" width="115" height="44" opacity="0.2"/></g><g transform="translate(-102,-150) scale(1,1)"><rect fill="#ffffff" stroke="none" x="568" y="288" width="115" height="44"/></g><g transform="translate(-102,-150) scale(1,1)"><path fill="none" stroke="#000000" d="M 568 288 L 683 288 L 683 332 L 568 332 L 568 288 Z Z" stroke-miterlimit="10"/></g><g transform="translate(-102,-150) scale(1,1)"><path fill="none" stroke="#000000" d="M 568 313 L 683 313" stroke-miterlimit="10"/></g><g transform="translate(-102,-150) scale(1,1)"><path fill="none" stroke="#000000" d="M 568 323 L 683 323" stroke-miterlimit="10"/></g><g transform="translate(-102,-150) scale(1,1)"><g><path fill="none" stroke="none"/><text fill="#000000" stroke="none" font-family="Arial" font-size="13px" font-style="normal" font-weight="bold" text-decoration="none" x="576" y="307.5">VolunteerFactory</text></g></g><g transform="translate(-102,-150) scale(1,1)"><path fill="none" stroke="#000000" d="M 418 333 L 296 392 L 200 333" stroke-miterlimit="10" stroke-dasharray="3"/></g><g transform="translate(-102,-150) scale(1,1)"><path fill="none" stroke="#000000" d="M 210.86233444869316 334.7348459080661 L 200 333 L 206.45410904227992 341.90755165409445" stroke-miterlimit="10"/></g><g transform="translate(-102,-150) scale(1,1)"><path fill="none" stroke="#000000" d="M 594 333 L 513 392 L 310 322" stroke-miterlimit="10" stroke-dasharray="3"/></g><g transform="translate(-102,-150) scale(1,1)"><path fill="none" stroke="#000000" d="M 320.97978180117934 321.3333729689763 L 310 322 L 318.2352546617217 329.2925016734034" stroke-miterlimit="10"/></g><g transform="translate(-102,-150) scale(1,1)"><path fill="none" stroke="#000000" d="M 478 287 L 521.8688524590164 191" stroke-miterlimit="10"/></g><g transform="translate(-102,-150) scale(1,1)"><path fill="none" stroke="#000000" d="M 604 287 L 532.688524590164 191" stroke-miterlimit="10"/></g><g transform="translate(-102,-150) scale(1,1)"><path fill="none" stroke="#000000" d="M 471 203 L 257 203" stroke-miterlimit="10" stroke-dasharray="3"/></g><g transform="translate(-102,-150) scale(1,1)"><path fill="none" stroke="#000000" d="M 267.16267485762415 198.790482243984 L 257 203 L 267.16267485762415 207.209517756016" stroke-miterlimit="10"/></g></g></svg>