<svg version="1.1" xmlns="http://www.w3.org/2000/svg" xmlns:xlink="http://www.w3.org/1999/xlink" width="487.25390625" height="195"><defs/><g><g transform="translate(-206,-182) scale(1,1)"><rect fill="#C0C0C0" stroke="none" x="223" y="247" width="128.0439453125" height="85" opacity="0.2"/></g><g transform="translate(-206,-182) scale(1,1)"><rect fill="#ffffff" stroke="none" x="216" y="240" width="128.0439453125" height="85"/></g><g transform="translate(-206,-182) scale(1,1)"><path fill="none" stroke="#000000" d="M 216 240 L 344.0439453125 240 L 344.0439453125 325 L 216 325 L 216 240 Z Z" stroke-miterlimit="10"/></g><g transform="translate(-206,-182) scale(1,1)"><path fill="none" stroke="#000000" d="M 216 265 L 344.0439453125 265" stroke-miterlimit="10"/></g><g transform="translate(-206,-182) scale(1,1)"><path fill="none" stroke="#000000" d="M 216 303 L 344.0439453125 303" stroke-miterlimit="10"/></g><g transform="translate(-206,-182) scale(1,1)"><g><path fill="none" stroke="none"/><text fill="#000000" stroke="none" font-family="Arial" font-size="13px" font-style="normal" font-weight="bold" text-decoration="none" x="232.52197265625" y="259.5">WorkExperience</text></g></g><g transform="translate(-206,-182) scale(1,1)"><g><path fill="none" stroke="none"/><text fill="#000000" stroke="none" font-family="Arial" font-size="13px" font-style="normal" font-weight="normal" text-decoration="none" x="221" y="282.5">-company_: string</text></g></g><g transform="translate(-206,-182) scale(1,1)"><g><path fill="none" stroke="none"/><text fill="#000000" stroke="none" font-family="Arial" font-size="13px" font-style="normal" font-weight="normal" text-decoration="none" x="221" y="297.5">-time_area_: string</text></g></g><g transform="translate(-206,-182) scale(1,1)"><g><path fill="none" stroke="none"/><text fill="#000000" stroke="none" font-family="Arial" font-size="13px" font-style="normal" font-weight="normal" text-decoration="none" x="221" y="320.5">+Clone()</text></g></g><g transform="translate(-206,-182) scale(1,1)"><rect fill="#C0C0C0" stroke="none" x="447" y="199" width="243.25390625" height="175" opacity="0.2"/></g><g transform="translate(-206,-182) scale(1,1)"><rect fill="#ffffff" stroke="none" x="440" y="192" width="243.25390625" height="175"/></g><g transform="translate(-206,-182) scale(1,1)"><path fill="none" stroke="#000000" d="M 440 192 L 683.25390625 192 L 683.25390625 367 L 440 367 L 440 192 Z Z" stroke-miterlimit="10"/></g><g transform="translate(-206,-182) scale(1,1)"><path fill="none" stroke="#000000" d="M 440 217 L 683.25390625 217" stroke-miterlimit="10"/></g><g transform="translate(-206,-182) scale(1,1)"><path fill="none" stroke="#000000" d="M 440 285 L 683.25390625 285" stroke-miterlimit="10"/></g><g transform="translate(-206,-182) scale(1,1)"><g><path fill="none" stroke="none"/><text fill="#000000" stroke="none" font-family="Arial" font-size="13px" font-style="normal" font-weight="bold" text-decoration="none" x="537.626953125" y="211.5">Resume</text></g></g><g transform="translate(-206,-182) scale(1,1)"><g><path fill="none" stroke="none"/><text fill="#000000" stroke="none" font-family="Arial" font-size="13px" font-style="normal" font-weight="normal" text-decoration="none" x="445" y="234.5">-name_: string</text></g></g><g transform="translate(-206,-182) scale(1,1)"><g><path fill="none" stroke="none"/><text fill="#000000" stroke="none" font-family="Arial" font-size="13px" font-style="normal" font-weight="normal" text-decoration="none" x="445" y="249.5">-sex_: string</text></g></g><g transform="translate(-206,-182) scale(1,1)"><g><path fill="none" stroke="none"/><text fill="#000000" stroke="none" font-family="Arial" font-size="13px" font-style="normal" font-weight="normal" text-decoration="none" x="445" y="264.5">-age_: string</text></g></g><g transform="translate(-206,-182) scale(1,1)"><g><path fill="none" stroke="none"/><text fill="#000000" stroke="none" font-family="Arial" font-size="13px" font-style="normal" font-weight="normal" text-decoration="none" x="445" y="279.5">-*work_experience_: WorkExperience</text></g></g><g transform="translate(-206,-182) scale(1,1)"><g><path fill="none" stroke="none"/><text fill="#000000" stroke="none" font-family="Arial" font-size="13px" font-style="normal" font-weight="normal" text-decoration="none" x="445" y="302.5">+Resume()</text></g></g><g transform="translate(-206,-182) scale(1,1)"><g><path fill="none" stroke="none"/><text fill="#000000" stroke="none" font-family="Arial" font-size="13px" font-style="normal" font-weight="normal" text-decoration="none" x="445" y="317.5">+~Resume()</text></g></g><g transform="translate(-206,-182) scale(1,1)"><g><path fill="none" stroke="none"/><text fill="#000000" stroke="none" font-family="Arial" font-size="13px" font-style="normal" font-weight="normal" text-decoration="none" x="445" y="332.5">+Clone()</text></g></g><g transform="translate(-206,-182) scale(1,1)"><g><path fill="none" stroke="none"/><text fill="#000000" stroke="none" font-family="Arial" font-size="13px" font-style="normal" font-weight="normal" text-decoration="none" x="445" y="347.5">+SetWorkExperience()</text></g></g><g transform="translate(-206,-182) scale(1,1)"><g><path fill="none" stroke="none"/><text fill="#000000" stroke="none" font-family="Arial" font-size="13px" font-style="normal" font-weight="normal" text-decoration="none" x="445" y="362.5">+SetPersonalInfo()</text></g></g><g transform="translate(-206,-182) scale(1,1)"><path fill="none" stroke="#000000" d="M 439 280 L 345 281" stroke-miterlimit="10"/></g><g transform="translate(-206,-182) scale(1,1)"><path fill="none" stroke="#000000" d="M 355.11732026436033 276.68261298140135 L 345 281 L 355.2068794042231 285.10117212850736" stroke-miterlimit="10"/></g></g></svg>