<svg version="1.1" xmlns="http://www.w3.org/2000/svg" xmlns:xlink="http://www.w3.org/1999/xlink" width="651.6083984375" height="244"><defs/><g><g transform="translate(-142,-198) scale(1,1)"><rect fill="#C0C0C0" stroke="none" x="207" y="215" width="192.45361328125" height="100" opacity="0.2"/></g><g transform="translate(-142,-198) scale(1,1)"><rect fill="#ffffff" stroke="none" x="200" y="208" width="192.45361328125" height="100"/></g><g transform="translate(-142,-198) scale(1,1)"><path fill="none" stroke="#000000" d="M 200 208 L 392.45361328125 208 L 392.45361328125 308 L 200 308 L 200 208 Z Z" stroke-miterlimit="10"/></g><g transform="translate(-142,-198) scale(1,1)"><path fill="none" stroke="#000000" d="M 200 233 L 392.45361328125 233" stroke-miterlimit="10"/></g><g transform="translate(-142,-198) scale(1,1)"><path fill="none" stroke="#000000" d="M 200 256 L 392.45361328125 256" stroke-miterlimit="10"/></g><g transform="translate(-142,-198) scale(1,1)"><g><path fill="none" stroke="none"/><text fill="#000000" stroke="none" font-family="Arial" font-size="13px" font-style="normal" font-weight="bold" text-decoration="none" x="255.226806640625" y="227.5">HandsetBrand</text></g></g><g transform="translate(-142,-198) scale(1,1)"><g><path fill="none" stroke="none"/><text fill="#000000" stroke="none" font-family="Arial" font-size="13px" font-style="normal" font-weight="normal" text-decoration="none" x="205" y="250.5">#*handset_soft_: HandsetSoft</text></g></g><g transform="translate(-142,-198) scale(1,1)"><g><path fill="none" stroke="none"/><text fill="#000000" stroke="none" font-family="Arial" font-size="13px" font-style="italic" font-weight="normal" text-decoration="none" x="205" y="273.5">+Run()</text></g></g><g transform="translate(-142,-198) scale(1,1)"><g><path fill="none" stroke="none"/><text fill="#000000" stroke="none" font-family="Arial" font-size="13px" font-style="normal" font-weight="normal" text-decoration="none" x="205" y="288.5">+HandsetBrand()</text></g></g><g transform="translate(-142,-198) scale(1,1)"><g><path fill="none" stroke="none"/><text fill="#000000" stroke="none" font-family="Arial" font-size="13px" font-style="italic" font-weight="normal" text-decoration="none" x="205" y="303.5">+~HandsetBrand()</text></g></g><g transform="translate(-142,-198) scale(1,1)"><rect fill="#C0C0C0" stroke="none" x="159" y="367" width="132.15087890625" height="72" opacity="0.2"/></g><g transform="translate(-142,-198) scale(1,1)"><rect fill="#ffffff" stroke="none" x="152" y="360" width="132.15087890625" height="72"/></g><g transform="translate(-142,-198) scale(1,1)"><path fill="none" stroke="#000000" d="M 152 360 L 284.15087890625 360 L 284.15087890625 432 L 152 432 L 152 360 Z Z" stroke-miterlimit="10"/></g><g transform="translate(-142,-198) scale(1,1)"><path fill="none" stroke="#000000" d="M 152 385 L 284.15087890625 385" stroke-miterlimit="10"/></g><g transform="translate(-142,-198) scale(1,1)"><path fill="none" stroke="#000000" d="M 152 395 L 284.15087890625 395" stroke-miterlimit="10"/></g><g transform="translate(-142,-198) scale(1,1)"><g><path fill="none" stroke="none"/><text fill="#000000" stroke="none" font-family="Arial" font-size="13px" font-style="normal" font-weight="bold" text-decoration="none" x="171.575439453125" y="379.5">HandsetBrandM</text></g></g><g transform="translate(-142,-198) scale(1,1)"><g><path fill="none" stroke="none"/><text fill="#000000" stroke="none" font-family="Arial" font-size="13px" font-style="normal" font-weight="normal" text-decoration="none" x="157" y="412.5">+HandsetBrandM()</text></g></g><g transform="translate(-142,-198) scale(1,1)"><g><path fill="none" stroke="none"/><text fill="#000000" stroke="none" font-family="Arial" font-size="13px" font-style="normal" font-weight="normal" text-decoration="none" x="157" y="427.5">+~HandsetBrandM()</text></g></g><g transform="translate(-142,-198) scale(1,1)"><rect fill="#C0C0C0" stroke="none" x="335" y="367" width="122.37548828125" height="72" opacity="0.2"/></g><g transform="translate(-142,-198) scale(1,1)"><rect fill="#ffffff" stroke="none" x="328" y="360" width="122.37548828125" height="72"/></g><g transform="translate(-142,-198) scale(1,1)"><path fill="none" stroke="#000000" d="M 328 360 L 450.37548828125 360 L 450.37548828125 432 L 328 432 L 328 360 Z Z" stroke-miterlimit="10"/></g><g transform="translate(-142,-198) scale(1,1)"><path fill="none" stroke="#000000" d="M 328 385 L 450.37548828125 385" stroke-miterlimit="10"/></g><g transform="translate(-142,-198) scale(1,1)"><path fill="none" stroke="#000000" d="M 328 395 L 450.37548828125 395" stroke-miterlimit="10"/></g><g transform="translate(-142,-198) scale(1,1)"><g><path fill="none" stroke="none"/><text fill="#000000" stroke="none" font-family="Arial" font-size="13px" font-style="normal" font-weight="bold" text-decoration="none" x="343.687744140625" y="379.5">HandsetBrandN</text></g></g><g transform="translate(-142,-198) scale(1,1)"><g><path fill="none" stroke="none"/><text fill="#000000" stroke="none" font-family="Arial" font-size="13px" font-style="normal" font-weight="normal" text-decoration="none" x="333" y="412.5">+HandsetBrandN()</text></g></g><g transform="translate(-142,-198) scale(1,1)"><g><path fill="none" stroke="none"/><text fill="#000000" stroke="none" font-family="Arial" font-size="13px" font-style="normal" font-weight="normal" text-decoration="none" x="333" y="427.5">+~HandsetBranN()</text></g></g><g transform="translate(-142,-198) scale(1,1)"><rect fill="#C0C0C0" stroke="none" x="575" y="239" width="90.56103515625" height="57" opacity="0.2"/></g><g transform="translate(-142,-198) scale(1,1)"><rect fill="#ffffff" stroke="none" x="568" y="232" width="90.56103515625" height="57"/></g><g transform="translate(-142,-198) scale(1,1)"><path fill="none" stroke="#000000" d="M 568 232 L 658.56103515625 232 L 658.56103515625 289 L 568 289 L 568 232 Z Z" stroke-miterlimit="10"/></g><g transform="translate(-142,-198) scale(1,1)"><path fill="none" stroke="#000000" d="M 568 257 L 658.56103515625 257" stroke-miterlimit="10"/></g><g transform="translate(-142,-198) scale(1,1)"><path fill="none" stroke="#000000" d="M 568 267 L 658.56103515625 267" stroke-miterlimit="10"/></g><g transform="translate(-142,-198) scale(1,1)"><g><path fill="none" stroke="none"/><text fill="#000000" stroke="none" font-family="Arial" font-size="13px" font-style="normal" font-weight="bold" text-decoration="none" x="577.280517578125" y="251.5">HandsetSoft</text></g></g><g transform="translate(-142,-198) scale(1,1)"><g><path fill="none" stroke="none"/><text fill="#000000" stroke="none" font-family="Arial" font-size="13px" font-style="italic" font-weight="normal" text-decoration="none" x="573" y="284.5">+Run()</text></g></g><g transform="translate(-142,-198) scale(1,1)"><rect fill="#C0C0C0" stroke="none" x="503" y="367" width="101.73291015625" height="44" opacity="0.2"/></g><g transform="translate(-142,-198) scale(1,1)"><rect fill="#ffffff" stroke="none" x="496" y="360" width="101.73291015625" height="44"/></g><g transform="translate(-142,-198) scale(1,1)"><path fill="none" stroke="#000000" d="M 496 360 L 597.73291015625 360 L 597.73291015625 404 L 496 404 L 496 360 Z Z" stroke-miterlimit="10"/></g><g transform="translate(-142,-198) scale(1,1)"><path fill="none" stroke="#000000" d="M 496 385 L 597.73291015625 385" stroke-miterlimit="10"/></g><g transform="translate(-142,-198) scale(1,1)"><path fill="none" stroke="#000000" d="M 496 395 L 597.73291015625 395" stroke-miterlimit="10"/></g><g transform="translate(-142,-198) scale(1,1)"><g><path fill="none" stroke="none"/><text fill="#000000" stroke="none" font-family="Arial" font-size="13px" font-style="normal" font-weight="bold" text-decoration="none" x="505.366455078125" y="379.5">HandsetGame</text></g></g><g transform="translate(-142,-198) scale(1,1)"><rect fill="#C0C0C0" stroke="none" x="647" y="367" width="143.6083984375" height="44" opacity="0.2"/></g><g transform="translate(-142,-198) scale(1,1)"><rect fill="#ffffff" stroke="none" x="640" y="360" width="143.6083984375" height="44"/></g><g transform="translate(-142,-198) scale(1,1)"><path fill="none" stroke="#000000" d="M 640 360 L 783.6083984375 360 L 783.6083984375 404 L 640 404 L 640 360 Z Z" stroke-miterlimit="10"/></g><g transform="translate(-142,-198) scale(1,1)"><path fill="none" stroke="#000000" d="M 640 385 L 783.6083984375 385" stroke-miterlimit="10"/></g><g transform="translate(-142,-198) scale(1,1)"><path fill="none" stroke="#000000" d="M 640 395 L 783.6083984375 395" stroke-miterlimit="10"/></g><g transform="translate(-142,-198) scale(1,1)"><g><path fill="none" stroke="none"/><text fill="#000000" stroke="none" font-family="Arial" font-size="13px" font-style="normal" font-weight="bold" text-decoration="none" x="653.30419921875" y="379.5">HandsetAddressList</text></g></g><g transform="translate(-142,-198) scale(1,1)"><path fill="none" stroke="#000000" d="M 239 359 L 267 309" stroke-miterlimit="10"/></g><g transform="translate(-142,-198) scale(1,1)"><path fill="#FFFFFF" stroke="none" d="M 264.414624787154 330.8475590171717 L 267 309 L 249.72330652166957 322.62042078850044"/></g><g transform="translate(-142,-198) scale(1,1)"><path fill="none" stroke="#000000" d="M 264.414624787154 330.8475590171717 L 267 309 L 249.72330652166957 322.62042078850044 L 264.414624787154 330.8475590171717" stroke-miterlimit="10"/></g><g transform="translate(-142,-198) scale(1,1)"><path fill="none" stroke="#000000" d="M 364 359 L 330 309" stroke-miterlimit="10"/></g><g transform="translate(-142,-198) scale(1,1)"><path fill="#FFFFFF" stroke="none" d="M 348.39107142025546 321.0734623043708 L 330 309 L 334.467224246728 330.5416783823695"/></g><g transform="translate(-142,-198) scale(1,1)"><path fill="none" stroke="#000000" d="M 348.39107142025546 321.0734623043708 L 330 309 L 334.467224246728 330.5416783823695 L 348.39107142025546 321.0734623043708" stroke-miterlimit="10"/></g><g transform="translate(-142,-198) scale(1,1)"><path fill="none" stroke="#000000" d="M 559 359 L 597 290" stroke-miterlimit="10"/></g><g transform="translate(-142,-198) scale(1,1)"><path fill="#FFFFFF" stroke="none" d="M 594.5695644320363 311.86533747624253 L 597 290 L 579.8202941262724 303.74255093103926"/></g><g transform="translate(-142,-198) scale(1,1)"><path fill="none" stroke="#000000" d="M 594.5695644320363 311.86533747624253 L 597 290 L 579.8202941262724 303.74255093103926 L 594.5695644320363 311.86533747624253" stroke-miterlimit="10"/></g><g transform="translate(-142,-198) scale(1,1)"><path fill="none" stroke="#000000" d="M 693 359 L 637 290" stroke-miterlimit="10"/></g><g transform="translate(-142,-198) scale(1,1)"><path fill="#FFFFFF" stroke="none" d="M 656.345431302623 300.4763680593752 L 637 290 L 643.2713747620728 311.0871965560535"/></g><g transform="translate(-142,-198) scale(1,1)"><path fill="none" stroke="#000000" d="M 656.345431302623 300.4763680593752 L 637 290 L 643.2713747620728 311.0871965560535 L 656.345431302623 300.4763680593752" stroke-miterlimit="10"/></g><g transform="translate(-142,-198) scale(1,1)"><path fill="none" stroke="#000000" d="M 567 260 L 393 259" stroke-miterlimit="10"/></g><g transform="translate(-142,-198) scale(1,1)"><path fill="#FFFFFF" stroke="none" d="M 403.1866992591955 254.84895697412014 L 393 259 L 403.13831479668187 263.26785345148835 L 414.99963668491495 259.1264346935915"/></g><g transform="translate(-142,-198) scale(1,1)"><path fill="none" stroke="#000000" d="M 403.1866992591955 254.84895697412014 L 393 259 L 403.13831479668187 263.26785345148835 L 414.99963668491495 259.1264346935915 L 403.1866992591955 254.84895697412014" stroke-miterlimit="10"/></g></g></svg>