<svg version="1.1" xmlns="http://www.w3.org/2000/svg" xmlns:xlink="http://www.w3.org/1999/xlink" width="641" height="244"><defs/><g><g transform="translate(-142,-198) scale(1,1)"><rect fill="#C0C0C0" stroke="none" x="207" y="215" width="183" height="100" opacity="0.2"/></g><g transform="translate(-142,-198) scale(1,1)"><rect fill="#ffffff" stroke="none" x="200" y="208" width="183" height="100"/></g><g transform="translate(-142,-198) scale(1,1)"><path fill="none" stroke="#000000" d="M 200 208 L 383 208 L 383 308 L 200 308 L 200 208 Z Z" stroke-miterlimit="10"/></g><g transform="translate(-142,-198) scale(1,1)"><path fill="none" stroke="#000000" d="M 200 233 L 383 233" stroke-miterlimit="10"/></g><g transform="translate(-142,-198) scale(1,1)"><path fill="none" stroke="#000000" d="M 200 256 L 383 256" stroke-miterlimit="10"/></g><g transform="translate(-142,-198) scale(1,1)"><g><path fill="none" stroke="none"/><text fill="#000000" stroke="none" font-family="Arial" font-size="13px" font-style="normal" font-weight="bold" text-decoration="none" x="250.5" y="227.5">HandsetBrand</text></g></g><g transform="translate(-142,-198) scale(1,1)"><g><path fill="none" stroke="none"/><text fill="#000000" stroke="none" font-family="Arial" font-size="13px" font-style="normal" font-weight="normal" text-decoration="none" x="205" y="250.5">#*handset_soft_: HandsetSoft</text></g></g><g transform="translate(-142,-198) scale(1,1)"><g><path fill="none" stroke="none"/><text fill="#000000" stroke="none" font-family="Arial" font-size="13px" font-style="italic" font-weight="normal" text-decoration="none" x="205" y="273.5">+Run()</text></g></g><g transform="translate(-142,-198) scale(1,1)"><g><path fill="none" stroke="none"/><text fill="#000000" stroke="none" font-family="Arial" font-size="13px" font-style="normal" font-weight="normal" text-decoration="none" x="205" y="288.5">+HandsetBrand()</text></g></g><g transform="translate(-142,-198) scale(1,1)"><g><path fill="none" stroke="none"/><text fill="#000000" stroke="none" font-family="Arial" font-size="13px" font-style="italic" font-weight="normal" text-decoration="none" x="205" y="303.5">+~HandsetBrand()</text></g></g><g transform="translate(-142,-198) scale(1,1)"><rect fill="#C0C0C0" stroke="none" x="159" y="367" width="126" height="72" opacity="0.2"/></g><g transform="translate(-142,-198) scale(1,1)"><rect fill="#ffffff" stroke="none" x="152" y="360" width="126" height="72"/></g><g transform="translate(-142,-198) scale(1,1)"><path fill="none" stroke="#000000" d="M 152 360 L 278 360 L 278 432 L 152 432 L 152 360 Z Z" stroke-miterlimit="10"/></g><g transform="translate(-142,-198) scale(1,1)"><path fill="none" stroke="#000000" d="M 152 385 L 278 385" stroke-miterlimit="10"/></g><g transform="translate(-142,-198) scale(1,1)"><path fill="none" stroke="#000000" d="M 152 395 L 278 395" stroke-miterlimit="10"/></g><g transform="translate(-142,-198) scale(1,1)"><g><path fill="none" stroke="none"/><text fill="#000000" stroke="none" font-family="Arial" font-size="13px" font-style="normal" font-weight="bold" text-decoration="none" x="168.5" y="379.5">HandsetBrandM</text></g></g><g transform="translate(-142,-198) scale(1,1)"><g><path fill="none" stroke="none"/><text fill="#000000" stroke="none" font-family="Arial" font-size="13px" font-style="normal" font-weight="normal" text-decoration="none" x="157" y="412.5">+HandsetBrandM()</text></g></g><g transform="translate(-142,-198) scale(1,1)"><g><path fill="none" stroke="none"/><text fill="#000000" stroke="none" font-family="Arial" font-size="13px" font-style="normal" font-weight="normal" text-decoration="none" x="157" y="427.5">+~HandsetBrandM()</text></g></g><g transform="translate(-142,-198) scale(1,1)"><rect fill="#C0C0C0" stroke="none" x="335" y="367" width="117" height="72" opacity="0.2"/></g><g transform="translate(-142,-198) scale(1,1)"><rect fill="#ffffff" stroke="none" x="328" y="360" width="117" height="72"/></g><g transform="translate(-142,-198) scale(1,1)"><path fill="none" stroke="#000000" d="M 328 360 L 445 360 L 445 432 L 328 432 L 328 360 Z Z" stroke-miterlimit="10"/></g><g transform="translate(-142,-198) scale(1,1)"><path fill="none" stroke="#000000" d="M 328 385 L 445 385" stroke-miterlimit="10"/></g><g transform="translate(-142,-198) scale(1,1)"><path fill="none" stroke="#000000" d="M 328 395 L 445 395" stroke-miterlimit="10"/></g><g transform="translate(-142,-198) scale(1,1)"><g><path fill="none" stroke="none"/><text fill="#000000" stroke="none" font-family="Arial" font-size="13px" font-style="normal" font-weight="bold" text-decoration="none" x="341" y="379.5">HandsetBrandN</text></g></g><g transform="translate(-142,-198) scale(1,1)"><g><path fill="none" stroke="none"/><text fill="#000000" stroke="none" font-family="Arial" font-size="13px" font-style="normal" font-weight="normal" text-decoration="none" x="333" y="412.5">+HandsetBrandN()</text></g></g><g transform="translate(-142,-198) scale(1,1)"><g><path fill="none" stroke="none"/><text fill="#000000" stroke="none" font-family="Arial" font-size="13px" font-style="normal" font-weight="normal" text-decoration="none" x="333" y="427.5">+~HandsetBranN()</text></g></g><g transform="translate(-142,-198) scale(1,1)"><rect fill="#C0C0C0" stroke="none" x="575" y="239" width="88" height="57" opacity="0.2"/></g><g transform="translate(-142,-198) scale(1,1)"><rect fill="#ffffff" stroke="none" x="568" y="232" width="88" height="57"/></g><g transform="translate(-142,-198) scale(1,1)"><path fill="none" stroke="#000000" d="M 568 232 L 656 232 L 656 289 L 568 289 L 568 232 Z Z" stroke-miterlimit="10"/></g><g transform="translate(-142,-198) scale(1,1)"><path fill="none" stroke="#000000" d="M 568 257 L 656 257" stroke-miterlimit="10"/></g><g transform="translate(-142,-198) scale(1,1)"><path fill="none" stroke="#000000" d="M 568 267 L 656 267" stroke-miterlimit="10"/></g><g transform="translate(-142,-198) scale(1,1)"><g><path fill="none" stroke="none"/><text fill="#000000" stroke="none" font-family="Arial" font-size="13px" font-style="normal" font-weight="bold" text-decoration="none" x="576" y="251.5">HandsetSoft</text></g></g><g transform="translate(-142,-198) scale(1,1)"><g><path fill="none" stroke="none"/><text fill="#000000" stroke="none" font-family="Arial" font-size="13px" font-style="italic" font-weight="normal" text-decoration="none" x="573" y="284.5">+Run()</text></g></g><g transform="translate(-142,-198) scale(1,1)"><rect fill="#C0C0C0" stroke="none" x="503" y="367" width="95" height="44" opacity="0.2"/></g><g transform="translate(-142,-198) scale(1,1)"><rect fill="#ffffff" stroke="none" x="496" y="360" width="95" height="44"/></g><g transform="translate(-142,-198) scale(1,1)"><path fill="none" stroke="#000000" d="M 496 360 L 591 360 L 591 404 L 496 404 L 496 360 Z Z" stroke-miterlimit="10"/></g><g transform="translate(-142,-198) scale(1,1)"><path fill="none" stroke="#000000" d="M 496 385 L 591 385" stroke-miterlimit="10"/></g><g transform="translate(-142,-198) scale(1,1)"><path fill="none" stroke="#000000" d="M 496 395 L 591 395" stroke-miterlimit="10"/></g><g transform="translate(-142,-198) scale(1,1)"><g><path fill="none" stroke="none"/><text fill="#000000" stroke="none" font-family="Arial" font-size="13px" font-style="normal" font-weight="bold" text-decoration="none" x="502" y="379.5">HandsetGame</text></g></g><g transform="translate(-142,-198) scale(1,1)"><rect fill="#C0C0C0" stroke="none" x="647" y="367" width="133" height="44" opacity="0.2"/></g><g transform="translate(-142,-198) scale(1,1)"><rect fill="#ffffff" stroke="none" x="640" y="360" width="133" height="44"/></g><g transform="translate(-142,-198) scale(1,1)"><path fill="none" stroke="#000000" d="M 640 360 L 773 360 L 773 404 L 640 404 L 640 360 Z Z" stroke-miterlimit="10"/></g><g transform="translate(-142,-198) scale(1,1)"><path fill="none" stroke="#000000" d="M 640 385 L 773 385" stroke-miterlimit="10"/></g><g transform="translate(-142,-198) scale(1,1)"><path fill="none" stroke="#000000" d="M 640 395 L 773 395" stroke-miterlimit="10"/></g><g transform="translate(-142,-198) scale(1,1)"><g><path fill="none" stroke="none"/><text fill="#000000" stroke="none" font-family="Arial" font-size="13px" font-style="normal" font-weight="bold" text-decoration="none" x="648" y="379.5">HandsetAddressList</text></g></g><g transform="translate(-142,-198) scale(1,1)"><path fill="none" stroke="#000000" d="M 235 359 L 263 309" stroke-miterlimit="10"/></g><g transform="translate(-142,-198) scale(1,1)"><path fill="#FFFFFF" stroke="none" d="M 260.414624787154 330.8475590171717 L 263 309 L 245.72330652166957 322.62042078850044"/></g><g transform="translate(-142,-198) scale(1,1)"><path fill="none" stroke="#000000" d="M 260.414624787154 330.8475590171717 L 263 309 L 245.72330652166957 322.62042078850044 L 260.414624787154 330.8475590171717" stroke-miterlimit="10"/></g><g transform="translate(-142,-198) scale(1,1)"><path fill="none" stroke="#000000" d="M 361 359 L 326 309" stroke-miterlimit="10"/></g><g transform="translate(-142,-198) scale(1,1)"><path fill="#FFFFFF" stroke="none" d="M 344.55296532915077 320.82317544043605 L 326 309 L 330.75868006627087 330.47917512445196"/></g><g transform="translate(-142,-198) scale(1,1)"><path fill="none" stroke="#000000" d="M 344.55296532915077 320.82317544043605 L 326 309 L 330.75868006627087 330.47917512445196 L 344.55296532915077 320.82317544043605" stroke-miterlimit="10"/></g><g transform="translate(-142,-198) scale(1,1)"><path fill="none" stroke="#000000" d="M 556 359 L 595 290" stroke-miterlimit="10"/></g><g transform="translate(-142,-198) scale(1,1)"><path fill="#FFFFFF" stroke="none" d="M 592.3280636329393 311.83714166392616 L 595 290 L 577.6694647236591 303.5518466282459"/></g><g transform="translate(-142,-198) scale(1,1)"><path fill="none" stroke="#000000" d="M 592.3280636329393 311.83714166392616 L 595 290 L 577.6694647236591 303.5518466282459 L 592.3280636329393 311.83714166392616" stroke-miterlimit="10"/></g><g transform="translate(-142,-198) scale(1,1)"><path fill="none" stroke="#000000" d="M 688 359 L 635 290" stroke-miterlimit="10"/></g><g transform="translate(-142,-198) scale(1,1)"><path fill="#FFFFFF" stroke="none" d="M 654.0580167818819 300.99054122150073 L 635 290 L 640.7045666758022 311.2475391290692"/></g><g transform="translate(-142,-198) scale(1,1)"><path fill="none" stroke="#000000" d="M 654.0580167818819 300.99054122150073 L 635 290 L 640.7045666758022 311.2475391290692 L 654.0580167818819 300.99054122150073" stroke-miterlimit="10"/></g><g transform="translate(-142,-198) scale(1,1)"><path fill="none" stroke="#000000" d="M 567 260 L 384 259" stroke-miterlimit="10"/></g><g transform="translate(-142,-198) scale(1,1)"><path fill="#FFFFFF" stroke="none" d="M 394.18552561532255 254.84607800511267 L 384 259 L 394.1395206436486 263.2649878214391 L 405.99967154129246 259.12021678437867"/></g><g transform="translate(-142,-198) scale(1,1)"><path fill="none" stroke="#000000" d="M 394.18552561532255 254.84607800511267 L 384 259 L 394.1395206436486 263.2649878214391 L 405.99967154129246 259.12021678437867 L 394.18552561532255 254.84607800511267" stroke-miterlimit="10"/></g></g></svg>