<svg version="1.1" xmlns="http://www.w3.org/2000/svg" xmlns:xlink="http://www.w3.org/1999/xlink" width="244" height="248"><defs/><g><g transform="translate(-270,-230) scale(1,1)"><rect fill="#C0C0C0" stroke="none" x="367" y="247" width="88" height="132" opacity="0.2"/></g><g transform="translate(-270,-230) scale(1,1)"><rect fill="#ffffff" stroke="none" x="360" y="240" width="88" height="132"/></g><g transform="translate(-270,-230) scale(1,1)"><path fill="none" stroke="#000000" d="M 360 240 L 448 240 L 448 372 L 360 372 L 360 240 Z Z" stroke-miterlimit="10"/></g><g transform="translate(-270,-230) scale(1,1)"><path fill="none" stroke="#000000" d="M 360 265 L 448 265" stroke-miterlimit="10"/></g><g transform="translate(-270,-230) scale(1,1)"><path fill="none" stroke="#000000" d="M 360 275 L 448 275" stroke-miterlimit="10"/></g><g transform="translate(-270,-230) scale(1,1)"><g><path fill="none" stroke="none"/><text fill="#000000" stroke="none" font-family="Arial" font-size="13px" font-style="italic" font-weight="bold" text-decoration="none" x="374" y="259.5">TestPaper</text></g></g><g transform="translate(-270,-230) scale(1,1)"><g><path fill="none" stroke="none"/><text fill="#000000" stroke="none" font-family="Arial" font-size="13px" font-style="normal" font-weight="normal" text-decoration="none" x="365" y="292.5">+Question1()</text></g></g><g transform="translate(-270,-230) scale(1,1)"><g><path fill="none" stroke="none"/><text fill="#000000" stroke="none" font-family="Arial" font-size="13px" font-style="normal" font-weight="normal" text-decoration="none" x="365" y="307.5">+Question2()</text></g></g><g transform="translate(-270,-230) scale(1,1)"><g><path fill="none" stroke="none"/><text fill="#000000" stroke="none" font-family="Arial" font-size="13px" font-style="normal" font-weight="normal" text-decoration="none" x="365" y="322.5">+Question3()</text></g></g><g transform="translate(-270,-230) scale(1,1)"><g><path fill="none" stroke="none"/><text fill="#000000" stroke="none" font-family="Arial" font-size="13px" font-style="italic" font-weight="normal" text-decoration="none" x="365" y="337.5">#Answer1()</text></g></g><g transform="translate(-270,-230) scale(1,1)"><g><path fill="none" stroke="none"/><text fill="#000000" stroke="none" font-family="Arial" font-size="13px" font-style="italic" font-weight="normal" text-decoration="none" x="365" y="352.5">#Answer2()</text></g></g><g transform="translate(-270,-230) scale(1,1)"><g><path fill="none" stroke="none"/><text fill="#000000" stroke="none" font-family="Arial" font-size="13px" font-style="italic" font-weight="normal" text-decoration="none" x="365" y="367.5">#Answer3()</text></g></g><g transform="translate(-270,-230) scale(1,1)"><rect fill="#C0C0C0" stroke="none" x="287" y="431" width="80" height="44" opacity="0.2"/></g><g transform="translate(-270,-230) scale(1,1)"><rect fill="#ffffff" stroke="none" x="280" y="424" width="80" height="44"/></g><g transform="translate(-270,-230) scale(1,1)"><path fill="none" stroke="#000000" d="M 280 424 L 360 424 L 360 468 L 280 468 L 280 424 Z Z" stroke-miterlimit="10"/></g><g transform="translate(-270,-230) scale(1,1)"><path fill="none" stroke="#000000" d="M 280 449 L 360 449" stroke-miterlimit="10"/></g><g transform="translate(-270,-230) scale(1,1)"><path fill="none" stroke="#000000" d="M 280 459 L 360 459" stroke-miterlimit="10"/></g><g transform="translate(-270,-230) scale(1,1)"><g><path fill="none" stroke="none"/><text fill="#000000" stroke="none" font-family="Arial" font-size="13px" font-style="normal" font-weight="bold" text-decoration="none" x="285.5" y="443.5">TestPaperA</text></g></g><g transform="translate(-270,-230) scale(1,1)"><rect fill="#C0C0C0" stroke="none" x="431" y="431" width="80" height="44" opacity="0.2"/></g><g transform="translate(-270,-230) scale(1,1)"><rect fill="#ffffff" stroke="none" x="424" y="424" width="80" height="44"/></g><g transform="translate(-270,-230) scale(1,1)"><path fill="none" stroke="#000000" d="M 424 424 L 504 424 L 504 468 L 424 468 L 424 424 Z Z" stroke-miterlimit="10"/></g><g transform="translate(-270,-230) scale(1,1)"><path fill="none" stroke="#000000" d="M 424 449 L 504 449" stroke-miterlimit="10"/></g><g transform="translate(-270,-230) scale(1,1)"><path fill="none" stroke="#000000" d="M 424 459 L 504 459" stroke-miterlimit="10"/></g><g transform="translate(-270,-230) scale(1,1)"><g><path fill="none" stroke="none"/><text fill="#000000" stroke="none" font-family="Arial" font-size="13px" font-style="normal" font-weight="bold" text-decoration="none" x="429.5" y="443.5">TestPaperB</text></g></g><g transform="translate(-270,-230) scale(1,1)"><path fill="none" stroke="#000000" d="M 334 423 L 364 373" stroke-miterlimit="10"/></g><g transform="translate(-270,-230) scale(1,1)"><path fill="#FFFFFF" stroke="none" d="M 360.7619572368148 394.760401629193 L 364 373 L 346.32343045103454 386.09728555772483"/></g><g transform="translate(-270,-230) scale(1,1)"><path fill="none" stroke="#000000" d="M 360.7619572368148 394.760401629193 L 364 373 L 346.32343045103454 386.09728555772483 L 360.7619572368148 394.760401629193" stroke-miterlimit="10"/></g><g transform="translate(-270,-230) scale(1,1)"><path fill="none" stroke="#000000" d="M 454 423 L 433 373" stroke-miterlimit="10"/></g><g transform="translate(-270,-230) scale(1,1)"><path fill="#FFFFFF" stroke="none" d="M 448.632835754188 388.47948469047276 L 433 373 L 433.1084355770553 394.9997327648685"/></g><g transform="translate(-270,-230) scale(1,1)"><path fill="none" stroke="#000000" d="M 448.632835754188 388.47948469047276 L 433 373 L 433.1084355770553 394.9997327648685 L 448.632835754188 388.47948469047276" stroke-miterlimit="10"/></g></g></svg>