<svg version="1.1" xmlns="http://www.w3.org/2000/svg" xmlns:xlink="http://www.w3.org/1999/xlink" width="228" height="120"><defs/><g><g transform="translate(-318,-174) scale(1,1)"><rect fill="#C0C0C0" stroke="none" x="335" y="191" width="208" height="100" opacity="0.2"/></g><g transform="translate(-318,-174) scale(1,1)"><rect fill="#ffffff" stroke="none" x="328" y="184" width="208" height="100"/></g><g transform="translate(-318,-174) scale(1,1)"><path fill="none" stroke="#000000" d="M 328 184 L 536 184 L 536 284 L 328 284 L 328 184 Z Z" stroke-miterlimit="10"/></g><g transform="translate(-318,-174) scale(1,1)"><path fill="none" stroke="#000000" d="M 328 209 L 536 209" stroke-miterlimit="10"/></g><g transform="translate(-318,-174) scale(1,1)"><path fill="none" stroke="#000000" d="M 328 247 L 536 247" stroke-miterlimit="10"/></g><g transform="translate(-318,-174) scale(1,1)"><g><path fill="none" stroke="none"/><text fill="#000000" stroke="none" font-family="Arial" font-size="13px" font-style="normal" font-weight="bold" text-decoration="none" x="405" y="203.5">Singleton</text></g></g><g transform="translate(-318,-174) scale(1,1)"><g><path fill="none" stroke="none"/><text fill="#000000" stroke="none" font-family="Arial" font-size="13px" font-style="normal" font-weight="normal" text-decoration="none" x="333" y="226.5">-mutex_: pthread_mutex_t</text><path fill="none" stroke="#000000" d="M 333 226.5 L 485 226.5" stroke-miterlimit="10"/></g></g><g transform="translate(-318,-174) scale(1,1)"><g><path fill="none" stroke="none"/><text fill="#000000" stroke="none" font-family="Arial" font-size="13px" font-style="normal" font-weight="normal" text-decoration="none" x="333" y="241.5">-*instance: Singleton</text><path fill="none" stroke="#000000" d="M 333 241.5 L 453 241.5" stroke-miterlimit="10"/></g></g><g transform="translate(-318,-174) scale(1,1)"><g><path fill="none" stroke="none"/><text fill="#000000" stroke="none" font-family="Arial" font-size="13px" font-style="normal" font-weight="normal" text-decoration="none" x="333" y="264.5">-Singleton()</text></g></g><g transform="translate(-318,-174) scale(1,1)"><g><path fill="none" stroke="none"/><text fill="#000000" stroke="none" font-family="Arial" font-size="13px" font-style="normal" font-weight="normal" text-decoration="none" x="333" y="279.5">+GetInstance()</text><path fill="none" stroke="#000000" d="M 333 279.5 L 420 279.5" stroke-miterlimit="10"/></g></g></g></svg>