<svg version="1.1" xmlns="http://www.w3.org/2000/svg" xmlns:xlink="http://www.w3.org/1999/xlink" width="513.25048828125" height="226"><defs/><g><g transform="translate(-78,-206) scale(1,1)"><rect fill="#C0C0C0" stroke="none" x="95" y="223" width="230.9521484375" height="85" opacity="0.2"/></g><g transform="translate(-78,-206) scale(1,1)"><rect fill="#ffffff" stroke="none" x="88" y="216" width="230.9521484375" height="85"/></g><g transform="translate(-78,-206) scale(1,1)"><path fill="none" stroke="#000000" d="M 88 216 L 318.9521484375 216 L 318.9521484375 301 L 88 301 L 88 216 Z Z" stroke-miterlimit="10"/></g><g transform="translate(-78,-206) scale(1,1)"><path fill="none" stroke="#000000" d="M 88 241 L 318.9521484375 241" stroke-miterlimit="10"/></g><g transform="translate(-78,-206) scale(1,1)"><path fill="none" stroke="#000000" d="M 88 264 L 318.9521484375 264" stroke-miterlimit="10"/></g><g transform="translate(-78,-206) scale(1,1)"><g><path fill="none" stroke="none"/><text fill="#000000" stroke="none" font-family="Arial" font-size="13px" font-style="normal" font-weight="bold" text-decoration="none" x="157.97607421875" y="235.5">WebsiteFactory</text></g></g><g transform="translate(-78,-206) scale(1,1)"><g><path fill="none" stroke="none"/><text fill="#000000" stroke="none" font-family="Arial" font-size="13px" font-style="normal" font-weight="normal" text-decoration="none" x="93" y="258.5">-flyweights_: map&lt;string,Website*&gt;</text></g></g><g transform="translate(-78,-206) scale(1,1)"><g><path fill="none" stroke="none"/><text fill="#000000" stroke="none" font-family="Arial" font-size="13px" font-style="normal" font-weight="normal" text-decoration="none" x="93" y="281.5">+GetWebsiteCategory()</text></g></g><g transform="translate(-78,-206) scale(1,1)"><g><path fill="none" stroke="none"/><text fill="#000000" stroke="none" font-family="Arial" font-size="13px" font-style="normal" font-weight="normal" text-decoration="none" x="93" y="296.5">+GetWebsiteCount()</text></g></g><g transform="translate(-78,-206) scale(1,1)"><rect fill="#C0C0C0" stroke="none" x="383" y="239" width="58" height="57" opacity="0.2"/></g><g transform="translate(-78,-206) scale(1,1)"><rect fill="#ffffff" stroke="none" x="376" y="232" width="58" height="57"/></g><g transform="translate(-78,-206) scale(1,1)"><path fill="none" stroke="#000000" d="M 376 232 L 434 232 L 434 289 L 376 289 L 376 232 Z Z" stroke-miterlimit="10"/></g><g transform="translate(-78,-206) scale(1,1)"><path fill="none" stroke="#000000" d="M 376 257 L 434 257" stroke-miterlimit="10"/></g><g transform="translate(-78,-206) scale(1,1)"><path fill="none" stroke="#000000" d="M 376 267 L 434 267" stroke-miterlimit="10"/></g><g transform="translate(-78,-206) scale(1,1)"><g><path fill="none" stroke="none"/><text fill="#000000" stroke="none" font-family="Arial" font-size="13px" font-style="italic" font-weight="bold" text-decoration="none" x="381.5" y="251.5">Website</text></g></g><g transform="translate(-78,-206) scale(1,1)"><g><path fill="none" stroke="none"/><text fill="#000000" stroke="none" font-family="Arial" font-size="13px" font-style="italic" font-weight="normal" text-decoration="none" x="381" y="284.5">+Use()</text></g></g><g transform="translate(-78,-206) scale(1,1)"><rect fill="#C0C0C0" stroke="none" x="343" y="359" width="155.681640625" height="70" opacity="0.2"/></g><g transform="translate(-78,-206) scale(1,1)"><rect fill="#ffffff" stroke="none" x="336" y="352" width="155.681640625" height="70"/></g><g transform="translate(-78,-206) scale(1,1)"><path fill="none" stroke="#000000" d="M 336 352 L 491.681640625 352 L 491.681640625 422 L 336 422 L 336 352 Z Z" stroke-miterlimit="10"/></g><g transform="translate(-78,-206) scale(1,1)"><path fill="none" stroke="#000000" d="M 336 377 L 491.681640625 377" stroke-miterlimit="10"/></g><g transform="translate(-78,-206) scale(1,1)"><path fill="none" stroke="#000000" d="M 336 400 L 491.681640625 400" stroke-miterlimit="10"/></g><g transform="translate(-78,-206) scale(1,1)"><g><path fill="none" stroke="none"/><text fill="#000000" stroke="none" font-family="Arial" font-size="13px" font-style="normal" font-weight="bold" text-decoration="none" x="364.3408203125" y="371.5">ConcreteWebsite</text></g></g><g transform="translate(-78,-206) scale(1,1)"><g><path fill="none" stroke="none"/><text fill="#000000" stroke="none" font-family="Arial" font-size="13px" font-style="normal" font-weight="normal" text-decoration="none" x="341" y="394.5">-website_name_: string</text></g></g><g transform="translate(-78,-206) scale(1,1)"><g><path fill="none" stroke="none"/><text fill="#000000" stroke="none" font-family="Arial" font-size="13px" font-style="normal" font-weight="normal" text-decoration="none" x="341" y="417.5">+Use()</text></g></g><g transform="translate(-78,-206) scale(1,1)"><path fill="none" stroke="#000000" d="M 411 351 L 407 290" stroke-miterlimit="10"/></g><g transform="translate(-78,-206) scale(1,1)"><path fill="#FFFFFF" stroke="none" d="M 416.7309466280309 309.7309066624526 L 407 290 L 399.92896044806594 310.83267624802403"/></g><g transform="translate(-78,-206) scale(1,1)"><path fill="none" stroke="#000000" d="M 416.7309466280309 309.7309066624526 L 407 290 L 399.92896044806594 310.83267624802403 L 416.7309466280309 309.7309066624526" stroke-miterlimit="10"/></g><g transform="translate(-78,-206) scale(1,1)"><path fill="none" stroke="#000000" d="M 375 260 L 320 259" stroke-miterlimit="10"/></g><g transform="translate(-78,-206) scale(1,1)"><path fill="#FFFFFF" stroke="none" d="M 330.2375195319326 254.97592323218123 L 320 259 L 330.0844714540992 263.3935675130194 L 341.9963645376931 259.3999339006853"/></g><g transform="translate(-78,-206) scale(1,1)"><path fill="none" stroke="#000000" d="M 330.2375195319326 254.97592323218123 L 320 259 L 330.0844714540992 263.3935675130194 L 341.9963645376931 259.3999339006853 L 330.2375195319326 254.97592323218123" stroke-miterlimit="10"/></g><g transform="translate(-78,-206) scale(1,1)"><rect fill="#C0C0C0" stroke="none" x="487" y="239" width="101.25048828125" height="57" opacity="0.2"/></g><g transform="translate(-78,-206) scale(1,1)"><rect fill="#ffffff" stroke="none" x="480" y="232" width="101.25048828125" height="57"/></g><g transform="translate(-78,-206) scale(1,1)"><path fill="none" stroke="#000000" d="M 480 232 L 581.25048828125 232 L 581.25048828125 289 L 480 289 L 480 232 Z Z" stroke-miterlimit="10"/></g><g transform="translate(-78,-206) scale(1,1)"><path fill="none" stroke="#000000" d="M 480 257 L 581.25048828125 257" stroke-miterlimit="10"/></g><g transform="translate(-78,-206) scale(1,1)"><path fill="none" stroke="#000000" d="M 480 280 L 581.25048828125 280" stroke-miterlimit="10"/></g><g transform="translate(-78,-206) scale(1,1)"><g><path fill="none" stroke="none"/><text fill="#000000" stroke="none" font-family="Arial" font-size="13px" font-style="normal" font-weight="bold" text-decoration="none" x="517.125244140625" y="251.5">User</text></g></g><g transform="translate(-78,-206) scale(1,1)"><g><path fill="none" stroke="none"/><text fill="#000000" stroke="none" font-family="Arial" font-size="13px" font-style="normal" font-weight="normal" text-decoration="none" x="485" y="274.5">-name_: string</text></g></g><g transform="translate(-78,-206) scale(1,1)"><path fill="none" stroke="#000000" d="M 435 260 L 479 260" stroke-miterlimit="10" stroke-dasharray="3"/></g><g transform="translate(-78,-206) scale(1,1)"><path fill="none" stroke="#000000" d="M 468.83732514237585 264.209517756016 L 479 260 L 468.83732514237585 255.790482243984" stroke-miterlimit="10"/></g></g></svg>