<svg version="1.1" xmlns="http://www.w3.org/2000/svg" xmlns:xlink="http://www.w3.org/1999/xlink" width="214" height="312"><defs/><g><g transform="translate(-366,-206) scale(1,1)"><rect fill="#C0C0C0" stroke="none" x="447" y="223" width="57" height="57" opacity="0.2"/></g><g transform="translate(-366,-206) scale(1,1)"><rect fill="#ffffff" stroke="none" x="440" y="216" width="57" height="57"/></g><g transform="translate(-366,-206) scale(1,1)"><path fill="none" stroke="#000000" d="M 440 216 L 497 216 L 497 273 L 440 273 L 440 216 Z Z" stroke-miterlimit="10"/></g><g transform="translate(-366,-206) scale(1,1)"><path fill="none" stroke="#000000" d="M 440 241 L 497 241" stroke-miterlimit="10"/></g><g transform="translate(-366,-206) scale(1,1)"><path fill="none" stroke="#000000" d="M 440 251 L 497 251" stroke-miterlimit="10"/></g><g transform="translate(-366,-206) scale(1,1)"><g><path fill="none" stroke="none"/><text fill="#000000" stroke="none" font-family="Arial" font-size="13px" font-style="normal" font-weight="bold" text-decoration="none" x="448" y="235.5">Person</text></g></g><g transform="translate(-366,-206) scale(1,1)"><g><path fill="none" stroke="none"/><text fill="#000000" stroke="none" font-family="Arial" font-size="13px" font-style="italic" font-weight="normal" text-decoration="none" x="445" y="268.5">+Show()</text></g></g><g transform="translate(-366,-206) scale(1,1)"><rect fill="#C0C0C0" stroke="none" x="407" y="335" width="141" height="70" opacity="0.2"/></g><g transform="translate(-366,-206) scale(1,1)"><rect fill="#ffffff" stroke="none" x="400" y="328" width="141" height="70"/></g><g transform="translate(-366,-206) scale(1,1)"><path fill="none" stroke="#000000" d="M 400 328 L 541 328 L 541 398 L 400 398 L 400 328 Z Z" stroke-miterlimit="10"/></g><g transform="translate(-366,-206) scale(1,1)"><path fill="none" stroke="#000000" d="M 400 353 L 541 353" stroke-miterlimit="10"/></g><g transform="translate(-366,-206) scale(1,1)"><path fill="none" stroke="#000000" d="M 400 376 L 541 376" stroke-miterlimit="10"/></g><g transform="translate(-366,-206) scale(1,1)"><g><path fill="none" stroke="none"/><text fill="#000000" stroke="none" font-family="Arial" font-size="13px" font-style="normal" font-weight="bold" text-decoration="none" x="452.5" y="347.5">Finery</text></g></g><g transform="translate(-366,-206) scale(1,1)"><g><path fill="none" stroke="none"/><text fill="#000000" stroke="none" font-family="Arial" font-size="13px" font-style="normal" font-weight="normal" text-decoration="none" x="405" y="370.5">#*component_: Person</text></g></g><g transform="translate(-366,-206) scale(1,1)"><g><path fill="none" stroke="none"/><text fill="#000000" stroke="none" font-family="Arial" font-size="13px" font-style="normal" font-weight="normal" text-decoration="none" x="405" y="393.5">+Decorate()</text></g></g><g transform="translate(-366,-206) scale(1,1)"><rect fill="#C0C0C0" stroke="none" x="527" y="471" width="50" height="44" opacity="0.2"/></g><g transform="translate(-366,-206) scale(1,1)"><rect fill="#ffffff" stroke="none" x="520" y="464" width="50" height="44"/></g><g transform="translate(-366,-206) scale(1,1)"><path fill="none" stroke="#000000" d="M 520 464 L 570 464 L 570 508 L 520 508 L 520 464 Z Z" stroke-miterlimit="10"/></g><g transform="translate(-366,-206) scale(1,1)"><path fill="none" stroke="#000000" d="M 520 489 L 570 489" stroke-miterlimit="10"/></g><g transform="translate(-366,-206) scale(1,1)"><path fill="none" stroke="#000000" d="M 520 499 L 570 499" stroke-miterlimit="10"/></g><g transform="translate(-366,-206) scale(1,1)"><g><path fill="none" stroke="none"/><text fill="#000000" stroke="none" font-family="Arial" font-size="13px" font-style="normal" font-weight="bold" text-decoration="none" x="526.5" y="483.5">Shoes</text></g></g><g transform="translate(-366,-206) scale(1,1)"><rect fill="#C0C0C0" stroke="none" x="383" y="471" width="50" height="44" opacity="0.2"/></g><g transform="translate(-366,-206) scale(1,1)"><rect fill="#ffffff" stroke="none" x="376" y="464" width="50" height="44"/></g><g transform="translate(-366,-206) scale(1,1)"><path fill="none" stroke="#000000" d="M 376 464 L 426 464 L 426 508 L 376 508 L 376 464 Z Z" stroke-miterlimit="10"/></g><g transform="translate(-366,-206) scale(1,1)"><path fill="none" stroke="#000000" d="M 376 489 L 426 489" stroke-miterlimit="10"/></g><g transform="translate(-366,-206) scale(1,1)"><path fill="none" stroke="#000000" d="M 376 499 L 426 499" stroke-miterlimit="10"/></g><g transform="translate(-366,-206) scale(1,1)"><g><path fill="none" stroke="none"/><text fill="#000000" stroke="none" font-family="Arial" font-size="13px" font-style="normal" font-weight="bold" text-decoration="none" x="392" y="483.5">Tie</text></g></g><g transform="translate(-366,-206) scale(1,1)"><rect fill="#C0C0C0" stroke="none" x="455" y="471" width="50" height="44" opacity="0.2"/></g><g transform="translate(-366,-206) scale(1,1)"><rect fill="#ffffff" stroke="none" x="448" y="464" width="50" height="44"/></g><g transform="translate(-366,-206) scale(1,1)"><path fill="none" stroke="#000000" d="M 448 464 L 498 464 L 498 508 L 448 508 L 448 464 Z Z" stroke-miterlimit="10"/></g><g transform="translate(-366,-206) scale(1,1)"><path fill="none" stroke="#000000" d="M 448 489 L 498 489" stroke-miterlimit="10"/></g><g transform="translate(-366,-206) scale(1,1)"><path fill="none" stroke="#000000" d="M 448 499 L 498 499" stroke-miterlimit="10"/></g><g transform="translate(-366,-206) scale(1,1)"><g><path fill="none" stroke="none"/><text fill="#000000" stroke="none" font-family="Arial" font-size="13px" font-style="normal" font-weight="bold" text-decoration="none" x="461.5" y="483.5">Suit</text></g></g><g transform="translate(-366,-206) scale(1,1)"><path fill="none" stroke="#000000" d="M 469 327 L 469 274" stroke-miterlimit="10"/></g><g transform="translate(-366,-206) scale(1,1)"><path fill="#FFFFFF" stroke="none" d="M 477.419035512032 294.3253497152483 L 469 274 L 460.580964487968 294.3253497152483"/></g><g transform="translate(-366,-206) scale(1,1)"><path fill="none" stroke="#000000" d="M 477.419035512032 294.3253497152483 L 469 274 L 460.580964487968 294.3253497152483 L 477.419035512032 294.3253497152483" stroke-miterlimit="10"/></g><g transform="translate(-366,-206) scale(1,1)"><path fill="none" stroke="#000000" d="M 414 463 L 450 399" stroke-miterlimit="10"/></g><g transform="translate(-366,-206) scale(1,1)"><path fill="#FFFFFF" stroke="none" d="M 447.37309425110703 420.84260438195116 L 450 399 L 432.69744345416717 412.5875508086725"/></g><g transform="translate(-366,-206) scale(1,1)"><path fill="none" stroke="#000000" d="M 447.37309425110703 420.84260438195116 L 450 399 L 432.69744345416717 412.5875508086725 L 447.37309425110703 420.84260438195116" stroke-miterlimit="10"/></g><g transform="translate(-366,-206) scale(1,1)"><path fill="none" stroke="#000000" d="M 472 463 L 471 399" stroke-miterlimit="10"/></g><g transform="translate(-366,-206) scale(1,1)"><path fill="#FFFFFF" stroke="none" d="M 479.7355528147478 419.19133767289213 L 471 399 L 462.89953684299195 419.4544004224508"/></g><g transform="translate(-366,-206) scale(1,1)"><path fill="none" stroke="#000000" d="M 479.7355528147478 419.19133767289213 L 471 399 L 462.89953684299195 419.4544004224508 L 479.7355528147478 419.19133767289213" stroke-miterlimit="10"/></g><g transform="translate(-366,-206) scale(1,1)"><path fill="none" stroke="#000000" d="M 531 463 L 492 399" stroke-miterlimit="10"/></g><g transform="translate(-366,-206) scale(1,1)"><path fill="#FFFFFF" stroke="none" d="M 509.76606362927043 411.9756303554284 L 492 399 L 495.3873478527554 420.73766028174225"/></g><g transform="translate(-366,-206) scale(1,1)"><path fill="none" stroke="#000000" d="M 509.76606362927043 411.9756303554284 L 492 399 L 495.3873478527554 420.73766028174225 L 509.76606362927043 411.9756303554284" stroke-miterlimit="10"/></g><g transform="translate(-366,-206) scale(1,1)"><path fill="none" stroke="#000000" d="M 498 257 L 552 280 L 506 327" stroke-miterlimit="10"/></g><g transform="translate(-366,-206) scale(1,1)"><path fill="#FFFFFF" stroke="none" d="M 510.100004667238 316.79265158189327 L 506 327 L 516.1168263874775 322.6814558187234 L 521.3881870464988 311.2772871481425"/></g><g transform="translate(-366,-206) scale(1,1)"><path fill="none" stroke="#000000" d="M 510.100004667238 316.79265158189327 L 506 327 L 516.1168263874775 322.6814558187234 L 521.3881870464988 311.2772871481425 L 510.100004667238 316.79265158189327" stroke-miterlimit="10"/></g></g></svg>