<svg version="1.1" xmlns="http://www.w3.org/2000/svg" xmlns:xlink="http://www.w3.org/1999/xlink" width="660.81591796875" height="309"><defs/><g><g transform="translate(-126,-134) scale(1,1)"><rect fill="#C0C0C0" stroke="none" x="151" y="159" width="50" height="44" opacity="0.2"/></g><g transform="translate(-126,-134) scale(1,1)"><rect fill="#ffffff" stroke="none" x="144" y="152" width="50" height="44"/></g><g transform="translate(-126,-134) scale(1,1)"><path fill="none" stroke="#000000" d="M 144 152 L 194 152 L 194 196 L 144 196 L 144 152 Z Z" stroke-miterlimit="10"/></g><g transform="translate(-126,-134) scale(1,1)"><path fill="none" stroke="#000000" d="M 144 177 L 194 177" stroke-miterlimit="10"/></g><g transform="translate(-126,-134) scale(1,1)"><path fill="none" stroke="#000000" d="M 144 187 L 194 187" stroke-miterlimit="10"/></g><g transform="translate(-126,-134) scale(1,1)"><g><path fill="none" stroke="none"/><text fill="#000000" stroke="none" font-family="Arial" font-size="13px" font-style="normal" font-weight="bold" text-decoration="none" x="157.5" y="171.5">Pen</text></g></g><g transform="translate(-126,-134) scale(1,1)"><rect fill="#C0C0C0" stroke="none" x="143" y="255" width="67.8935546875" height="44" opacity="0.2"/></g><g transform="translate(-126,-134) scale(1,1)"><rect fill="#ffffff" stroke="none" x="136" y="248" width="67.8935546875" height="44"/></g><g transform="translate(-126,-134) scale(1,1)"><path fill="none" stroke="#000000" d="M 136 248 L 203.8935546875 248 L 203.8935546875 292 L 136 292 L 136 248 Z Z" stroke-miterlimit="10"/></g><g transform="translate(-126,-134) scale(1,1)"><path fill="none" stroke="#000000" d="M 136 273 L 203.8935546875 273" stroke-miterlimit="10"/></g><g transform="translate(-126,-134) scale(1,1)"><path fill="none" stroke="#000000" d="M 136 283 L 203.8935546875 283" stroke-miterlimit="10"/></g><g transform="translate(-126,-134) scale(1,1)"><g><path fill="none" stroke="none"/><text fill="#000000" stroke="none" font-family="Arial" font-size="13px" font-style="normal" font-weight="bold" text-decoration="none" x="143.94677734375" y="267.5">Graphics</text></g></g><g transform="translate(-126,-134) scale(1,1)"><rect fill="#C0C0C0" stroke="none" x="367" y="151" width="137.58447265625" height="115" opacity="0.2"/></g><g transform="translate(-126,-134) scale(1,1)"><rect fill="#ffffff" stroke="none" x="360" y="144" width="137.58447265625" height="115"/></g><g transform="translate(-126,-134) scale(1,1)"><path fill="none" stroke="#000000" d="M 360 144 L 497.58447265625 144 L 497.58447265625 259 L 360 259 L 360 144 Z Z" stroke-miterlimit="10"/></g><g transform="translate(-126,-134) scale(1,1)"><path fill="none" stroke="#000000" d="M 360 169 L 497.58447265625 169" stroke-miterlimit="10"/></g><g transform="translate(-126,-134) scale(1,1)"><path fill="none" stroke="#000000" d="M 360 207 L 497.58447265625 207" stroke-miterlimit="10"/></g><g transform="translate(-126,-134) scale(1,1)"><g><path fill="none" stroke="none"/><text fill="#000000" stroke="none" font-family="Arial" font-size="13px" font-style="normal" font-weight="bold" text-decoration="none" x="388.292236328125" y="163.5">PersonBuilder</text></g></g><g transform="translate(-126,-134) scale(1,1)"><g><path fill="none" stroke="none"/><text fill="#000000" stroke="none" font-family="Arial" font-size="13px" font-style="normal" font-weight="normal" text-decoration="none" x="365" y="186.5">#*graphic_: Graphics</text></g></g><g transform="translate(-126,-134) scale(1,1)"><g><path fill="none" stroke="none"/><text fill="#000000" stroke="none" font-family="Arial" font-size="13px" font-style="normal" font-weight="normal" text-decoration="none" x="365" y="201.5">#*pen_: Pen</text></g></g><g transform="translate(-126,-134) scale(1,1)"><g><path fill="none" stroke="none"/><text fill="#000000" stroke="none" font-family="Arial" font-size="13px" font-style="normal" font-weight="normal" text-decoration="none" x="365" y="224.5">+PersonBuilder()</text></g></g><g transform="translate(-126,-134) scale(1,1)"><g><path fill="none" stroke="none"/><text fill="#000000" stroke="none" font-family="Arial" font-size="13px" font-style="italic" font-weight="normal" text-decoration="none" x="365" y="239.5">+BuildHead()</text></g></g><g transform="translate(-126,-134) scale(1,1)"><g><path fill="none" stroke="none"/><text fill="#000000" stroke="none" font-family="Arial" font-size="13px" font-style="italic" font-weight="normal" text-decoration="none" x="365" y="254.5">+BuildBody()</text></g></g><g transform="translate(-126,-134) scale(1,1)"><rect fill="#C0C0C0" stroke="none" x="247" y="383" width="139.1396484375" height="57" opacity="0.2"/></g><g transform="translate(-126,-134) scale(1,1)"><rect fill="#ffffff" stroke="none" x="240" y="376" width="139.1396484375" height="57"/></g><g transform="translate(-126,-134) scale(1,1)"><path fill="none" stroke="#000000" d="M 240 376 L 379.1396484375 376 L 379.1396484375 433 L 240 433 L 240 376 Z Z" stroke-miterlimit="10"/></g><g transform="translate(-126,-134) scale(1,1)"><path fill="none" stroke="#000000" d="M 240 401 L 379.1396484375 401" stroke-miterlimit="10"/></g><g transform="translate(-126,-134) scale(1,1)"><path fill="none" stroke="#000000" d="M 240 411 L 379.1396484375 411" stroke-miterlimit="10"/></g><g transform="translate(-126,-134) scale(1,1)"><g><path fill="none" stroke="none"/><text fill="#000000" stroke="none" font-family="Arial" font-size="13px" font-style="normal" font-weight="bold" text-decoration="none" x="256.56982421875" y="395.5">PersonThinBuilder</text></g></g><g transform="translate(-126,-134) scale(1,1)"><g><path fill="none" stroke="none"/><text fill="#000000" stroke="none" font-family="Arial" font-size="13px" font-style="normal" font-weight="normal" text-decoration="none" x="245" y="428.5">+PersonThinBuilder()</text></g></g><g transform="translate(-126,-134) scale(1,1)"><rect fill="#C0C0C0" stroke="none" x="447" y="383" width="122.38818359375" height="57" opacity="0.2"/></g><g transform="translate(-126,-134) scale(1,1)"><rect fill="#ffffff" stroke="none" x="440" y="376" width="122.38818359375" height="57"/></g><g transform="translate(-126,-134) scale(1,1)"><path fill="none" stroke="#000000" d="M 440 376 L 562.38818359375 376 L 562.38818359375 433 L 440 433 L 440 376 Z Z" stroke-miterlimit="10"/></g><g transform="translate(-126,-134) scale(1,1)"><path fill="none" stroke="#000000" d="M 440 401 L 562.38818359375 401" stroke-miterlimit="10"/></g><g transform="translate(-126,-134) scale(1,1)"><path fill="none" stroke="#000000" d="M 440 411 L 562.38818359375 411" stroke-miterlimit="10"/></g><g transform="translate(-126,-134) scale(1,1)"><g><path fill="none" stroke="none"/><text fill="#000000" stroke="none" font-family="Arial" font-size="13px" font-style="normal" font-weight="bold" text-decoration="none" x="451.194091796875" y="395.5">PersonFatBuilder</text></g></g><g transform="translate(-126,-134) scale(1,1)"><g><path fill="none" stroke="none"/><text fill="#000000" stroke="none" font-family="Arial" font-size="13px" font-style="normal" font-weight="normal" text-decoration="none" x="445" y="428.5">+PersonFatBuiler()</text></g></g><g transform="translate(-126,-134) scale(1,1)"><path fill="none" stroke="#000000" d="M 326 375 L 393 260" stroke-miterlimit="10"/></g><g transform="translate(-126,-134) scale(1,1)"><path fill="#FFFFFF" stroke="none" d="M 390.0426203311386 281.80031893102034 L 393 260 L 375.4936634334509 273.32397012975883"/></g><g transform="translate(-126,-134) scale(1,1)"><path fill="none" stroke="#000000" d="M 390.0426203311386 281.80031893102034 L 393 260 L 375.4936634334509 273.32397012975883 L 390.0426203311386 281.80031893102034" stroke-miterlimit="10"/></g><g transform="translate(-126,-134) scale(1,1)"><path fill="none" stroke="#000000" d="M 491 375 L 449 260" stroke-miterlimit="10"/></g><g transform="translate(-126,-134) scale(1,1)"><path fill="#FFFFFF" stroke="none" d="M 463.8808310626756 276.20373002996865 L 449 260 L 448.0645691694024 281.9801039388163"/></g><g transform="translate(-126,-134) scale(1,1)"><path fill="none" stroke="#000000" d="M 463.8808310626756 276.20373002996865 L 449 260 L 448.0645691694024 281.9801039388163 L 463.8808310626756 276.20373002996865" stroke-miterlimit="10"/></g><g transform="translate(-126,-134) scale(1,1)"><rect fill="#C0C0C0" stroke="none" x="567" y="183" width="216.81591796875" height="85" opacity="0.2"/></g><g transform="translate(-126,-134) scale(1,1)"><rect fill="#ffffff" stroke="none" x="560" y="176" width="216.81591796875" height="85"/></g><g transform="translate(-126,-134) scale(1,1)"><path fill="none" stroke="#000000" d="M 560 176 L 776.81591796875 176 L 776.81591796875 261 L 560 261 L 560 176 Z Z" stroke-miterlimit="10"/></g><g transform="translate(-126,-134) scale(1,1)"><path fill="none" stroke="#000000" d="M 560 201 L 776.81591796875 201" stroke-miterlimit="10"/></g><g transform="translate(-126,-134) scale(1,1)"><path fill="none" stroke="#000000" d="M 560 224 L 776.81591796875 224" stroke-miterlimit="10"/></g><g transform="translate(-126,-134) scale(1,1)"><g><path fill="none" stroke="none"/><text fill="#000000" stroke="none" font-family="Arial" font-size="13px" font-style="normal" font-weight="bold" text-decoration="none" x="625.407958984375" y="195.5">PersonDirector</text></g></g><g transform="translate(-126,-134) scale(1,1)"><g><path fill="none" stroke="none"/><text fill="#000000" stroke="none" font-family="Arial" font-size="13px" font-style="normal" font-weight="normal" text-decoration="none" x="565" y="218.5">-*person_builder_: PersonBuilder</text></g></g><g transform="translate(-126,-134) scale(1,1)"><g><path fill="none" stroke="none"/><text fill="#000000" stroke="none" font-family="Arial" font-size="13px" font-style="normal" font-weight="normal" text-decoration="none" x="565" y="241.5">+PersonDirector()</text></g></g><g transform="translate(-126,-134) scale(1,1)"><g><path fill="none" stroke="none"/><text fill="#000000" stroke="none" font-family="Arial" font-size="13px" font-style="normal" font-weight="normal" text-decoration="none" x="565" y="256.5">+CreatePerson()</text></g></g><g transform="translate(-126,-134) scale(1,1)"><path fill="none" stroke="#000000" d="M 499 206 L 559 210" stroke-miterlimit="10"/></g><g transform="translate(-126,-134) scale(1,1)"><path fill="#FFFFFF" stroke="none" d="M 548.5798209070276 213.52418326288262 L 559 210 L 549.1398468188526 205.1237945855094 L 537.0487265271546 208.53658176847696"/></g><g transform="translate(-126,-134) scale(1,1)"><path fill="none" stroke="#000000" d="M 548.5798209070276 213.52418326288262 L 559 210 L 549.1398468188526 205.1237945855094 L 537.0487265271546 208.53658176847696 L 548.5798209070276 213.52418326288262" stroke-miterlimit="10"/></g><g transform="translate(-126,-134) scale(1,1)"><path fill="none" stroke="#000000" d="M 359 194 L 195 177" stroke-miterlimit="10"/></g><g transform="translate(-126,-134) scale(1,1)"><path fill="none" stroke="#000000" d="M 205.5425383737314 173.86075094355334 L 195 177 L 204.67448467063176 182.23491607933795" stroke-miterlimit="10"/></g><g transform="translate(-126,-134) scale(1,1)"><path fill="none" stroke="#000000" d="M 359 219 L 205 260" stroke-miterlimit="10"/></g><g transform="translate(-126,-134) scale(1,1)"><path fill="none" stroke="#000000" d="M 213.73759778656796 253.3176063480095 L 205 260 L 215.9035805120432 261.45324878028237" stroke-miterlimit="10"/></g></g></svg>