<svg version="1.1" xmlns="http://www.w3.org/2000/svg" xmlns:xlink="http://www.w3.org/1999/xlink" width="446" height="328"><defs/><g><g transform="translate(-158,-198) scale(1,1)"><rect fill="#C0C0C0" stroke="none" x="231" y="367" width="66" height="57" opacity="0.2"/></g><g transform="translate(-158,-198) scale(1,1)"><rect fill="#ffffff" stroke="none" x="224" y="360" width="66" height="57"/></g><g transform="translate(-158,-198) scale(1,1)"><path fill="none" stroke="#000000" d="M 224 360 L 290 360 L 290 417 L 224 417 L 224 360 Z Z" stroke-miterlimit="10"/></g><g transform="translate(-158,-198) scale(1,1)"><path fill="none" stroke="#000000" d="M 224 385 L 290 385" stroke-miterlimit="10"/></g><g transform="translate(-158,-198) scale(1,1)"><path fill="none" stroke="#000000" d="M 224 395 L 290 395" stroke-miterlimit="10"/></g><g transform="translate(-158,-198) scale(1,1)"><g><path fill="none" stroke="none"/><text fill="#000000" stroke="none" font-family="Arial" font-size="13px" font-style="italic" font-weight="bold" text-decoration="none" x="236.5" y="379.5">Person</text></g></g><g transform="translate(-158,-198) scale(1,1)"><g><path fill="none" stroke="none"/><text fill="#000000" stroke="none" font-family="Arial" font-size="13px" font-style="italic" font-weight="normal" text-decoration="none" x="229" y="412.5">+Accept()</text></g></g><g transform="translate(-158,-198) scale(1,1)"><rect fill="#C0C0C0" stroke="none" x="175" y="479" width="50" height="44" opacity="0.2"/></g><g transform="translate(-158,-198) scale(1,1)"><rect fill="#ffffff" stroke="none" x="168" y="472" width="50" height="44"/></g><g transform="translate(-158,-198) scale(1,1)"><path fill="none" stroke="#000000" d="M 168 472 L 218 472 L 218 516 L 168 516 L 168 472 Z Z" stroke-miterlimit="10"/></g><g transform="translate(-158,-198) scale(1,1)"><path fill="none" stroke="#000000" d="M 168 497 L 218 497" stroke-miterlimit="10"/></g><g transform="translate(-158,-198) scale(1,1)"><path fill="none" stroke="#000000" d="M 168 507 L 218 507" stroke-miterlimit="10"/></g><g transform="translate(-158,-198) scale(1,1)"><g><path fill="none" stroke="none"/><text fill="#000000" stroke="none" font-family="Arial" font-size="13px" font-style="normal" font-weight="bold" text-decoration="none" x="180.5" y="491.5">Man</text></g></g><g transform="translate(-158,-198) scale(1,1)"><rect fill="#C0C0C0" stroke="none" x="311" y="479" width="56" height="44" opacity="0.2"/></g><g transform="translate(-158,-198) scale(1,1)"><rect fill="#ffffff" stroke="none" x="304" y="472" width="56" height="44"/></g><g transform="translate(-158,-198) scale(1,1)"><path fill="none" stroke="#000000" d="M 304 472 L 360 472 L 360 516 L 304 516 L 304 472 Z Z" stroke-miterlimit="10"/></g><g transform="translate(-158,-198) scale(1,1)"><path fill="none" stroke="#000000" d="M 304 497 L 360 497" stroke-miterlimit="10"/></g><g transform="translate(-158,-198) scale(1,1)"><path fill="none" stroke="#000000" d="M 304 507 L 360 507" stroke-miterlimit="10"/></g><g transform="translate(-158,-198) scale(1,1)"><g><path fill="none" stroke="none"/><text fill="#000000" stroke="none" font-family="Arial" font-size="13px" font-style="normal" font-weight="bold" text-decoration="none" x="310" y="491.5">Woman</text></g></g><g transform="translate(-158,-198) scale(1,1)"><path fill="none" stroke="#000000" d="M 207 471 L 239 418" stroke-miterlimit="10"/></g><g transform="translate(-158,-198) scale(1,1)"><path fill="#FFFFFF" stroke="none" d="M 235.70169177048786 439.75134852884145 L 239 418 L 221.28721783977275 431.0482699291644"/></g><g transform="translate(-158,-198) scale(1,1)"><path fill="none" stroke="#000000" d="M 235.70169177048786 439.75134852884145 L 239 418 L 221.28721783977275 431.0482699291644 L 235.70169177048786 439.75134852884145" stroke-miterlimit="10"/></g><g transform="translate(-158,-198) scale(1,1)"><path fill="none" stroke="#000000" d="M 316 471 L 278 418" stroke-miterlimit="10"/></g><g transform="translate(-158,-198) scale(1,1)"><path fill="#FFFFFF" stroke="none" d="M 296.685450134315 429.6126634876771 L 278 418 L 283.0012153997233 439.4240015992711"/></g><g transform="translate(-158,-198) scale(1,1)"><path fill="none" stroke="#000000" d="M 296.685450134315 429.6126634876771 L 278 418 L 283.0012153997233 439.4240015992711 L 296.685450134315 429.6126634876771" stroke-miterlimit="10"/></g><g transform="translate(-158,-198) scale(1,1)"><rect fill="#C0C0C0" stroke="none" x="447" y="359" width="154" height="72" opacity="0.2"/></g><g transform="translate(-158,-198) scale(1,1)"><rect fill="#ffffff" stroke="none" x="440" y="352" width="154" height="72"/></g><g transform="translate(-158,-198) scale(1,1)"><path fill="none" stroke="#000000" d="M 440 352 L 594 352 L 594 424 L 440 424 L 440 352 Z Z" stroke-miterlimit="10"/></g><g transform="translate(-158,-198) scale(1,1)"><path fill="none" stroke="#000000" d="M 440 377 L 594 377" stroke-miterlimit="10"/></g><g transform="translate(-158,-198) scale(1,1)"><path fill="none" stroke="#000000" d="M 440 387 L 594 387" stroke-miterlimit="10"/></g><g transform="translate(-158,-198) scale(1,1)"><g><path fill="none" stroke="none"/><text fill="#000000" stroke="none" font-family="Arial" font-size="13px" font-style="italic" font-weight="bold" text-decoration="none" x="498.5" y="371.5">Action</text></g></g><g transform="translate(-158,-198) scale(1,1)"><g><path fill="none" stroke="none"/><text fill="#000000" stroke="none" font-family="Arial" font-size="13px" font-style="italic" font-weight="normal" text-decoration="none" x="445" y="404.5">+GetManConclusion()</text></g></g><g transform="translate(-158,-198) scale(1,1)"><g><path fill="none" stroke="none"/><text fill="#000000" stroke="none" font-family="Arial" font-size="13px" font-style="italic" font-weight="normal" text-decoration="none" x="445" y="419.5">+GetWomanConclusion()</text></g></g><g transform="translate(-158,-198) scale(1,1)"><rect fill="#C0C0C0" stroke="none" x="439" y="471" width="61" height="44" opacity="0.2"/></g><g transform="translate(-158,-198) scale(1,1)"><rect fill="#ffffff" stroke="none" x="432" y="464" width="61" height="44"/></g><g transform="translate(-158,-198) scale(1,1)"><path fill="none" stroke="#000000" d="M 432 464 L 493 464 L 493 508 L 432 508 L 432 464 Z Z" stroke-miterlimit="10"/></g><g transform="translate(-158,-198) scale(1,1)"><path fill="none" stroke="#000000" d="M 432 489 L 493 489" stroke-miterlimit="10"/></g><g transform="translate(-158,-198) scale(1,1)"><path fill="none" stroke="#000000" d="M 432 499 L 493 499" stroke-miterlimit="10"/></g><g transform="translate(-158,-198) scale(1,1)"><g><path fill="none" stroke="none"/><text fill="#000000" stroke="none" font-family="Arial" font-size="13px" font-style="normal" font-weight="bold" text-decoration="none" x="437" y="483.5">Success</text></g></g><g transform="translate(-158,-198) scale(1,1)"><rect fill="#C0C0C0" stroke="none" x="543" y="471" width="52" height="44" opacity="0.2"/></g><g transform="translate(-158,-198) scale(1,1)"><rect fill="#ffffff" stroke="none" x="536" y="464" width="52" height="44"/></g><g transform="translate(-158,-198) scale(1,1)"><path fill="none" stroke="#000000" d="M 536 464 L 588 464 L 588 508 L 536 508 L 536 464 Z Z" stroke-miterlimit="10"/></g><g transform="translate(-158,-198) scale(1,1)"><path fill="none" stroke="#000000" d="M 536 489 L 588 489" stroke-miterlimit="10"/></g><g transform="translate(-158,-198) scale(1,1)"><path fill="none" stroke="#000000" d="M 536 499 L 588 499" stroke-miterlimit="10"/></g><g transform="translate(-158,-198) scale(1,1)"><g><path fill="none" stroke="none"/><text fill="#000000" stroke="none" font-family="Arial" font-size="13px" font-style="normal" font-weight="bold" text-decoration="none" x="543" y="483.5">Failing</text></g></g><g transform="translate(-158,-198) scale(1,1)"><path fill="none" stroke="#000000" d="M 475 463 L 496 425" stroke-miterlimit="10"/></g><g transform="translate(-158,-198) scale(1,1)"><path fill="#FFFFFF" stroke="none" d="M 493.5376001959582 446.8617608441099 L 496 425 L 478.800221059021 438.71741974211824"/></g><g transform="translate(-158,-198) scale(1,1)"><path fill="none" stroke="#000000" d="M 493.5376001959582 446.8617608441099 L 496 425 L 478.800221059021 438.71741974211824 L 493.5376001959582 446.8617608441099" stroke-miterlimit="10"/></g><g transform="translate(-158,-198) scale(1,1)"><path fill="none" stroke="#000000" d="M 551 463 L 534 425" stroke-miterlimit="10"/></g><g transform="translate(-158,-198) scale(1,1)"><path fill="#FFFFFF" stroke="none" d="M 549.9852322612564 440.1153018346869 L 534 425 L 534.6151337037878 446.9913985577649"/></g><g transform="translate(-158,-198) scale(1,1)"><path fill="none" stroke="#000000" d="M 549.9852322612564 440.1153018346869 L 534 425 L 534.6151337037878 446.9913985577649 L 549.9852322612564 440.1153018346869" stroke-miterlimit="10"/></g><g transform="translate(-158,-198) scale(1,1)"><rect fill="#C0C0C0" stroke="none" x="183" y="215" width="157" height="100" opacity="0.2"/></g><g transform="translate(-158,-198) scale(1,1)"><rect fill="#ffffff" stroke="none" x="176" y="208" width="157" height="100"/></g><g transform="translate(-158,-198) scale(1,1)"><path fill="none" stroke="#000000" d="M 176 208 L 333 208 L 333 308 L 176 308 L 176 208 Z Z" stroke-miterlimit="10"/></g><g transform="translate(-158,-198) scale(1,1)"><path fill="none" stroke="#000000" d="M 176 233 L 333 233" stroke-miterlimit="10"/></g><g transform="translate(-158,-198) scale(1,1)"><path fill="none" stroke="#000000" d="M 176 256 L 333 256" stroke-miterlimit="10"/></g><g transform="translate(-158,-198) scale(1,1)"><g><path fill="none" stroke="none"/><text fill="#000000" stroke="none" font-family="Arial" font-size="13px" font-style="normal" font-weight="bold" text-decoration="none" x="209" y="227.5">ObjectStructure</text></g></g><g transform="translate(-158,-198) scale(1,1)"><g><path fill="none" stroke="none"/><text fill="#000000" stroke="none" font-family="Arial" font-size="13px" font-style="normal" font-weight="normal" text-decoration="none" x="181" y="250.5">-people: vector&lt;Person*&gt;</text></g></g><g transform="translate(-158,-198) scale(1,1)"><g><path fill="none" stroke="none"/><text fill="#000000" stroke="none" font-family="Arial" font-size="13px" font-style="normal" font-weight="normal" text-decoration="none" x="181" y="273.5">+Attach()</text></g></g><g transform="translate(-158,-198) scale(1,1)"><g><path fill="none" stroke="none"/><text fill="#000000" stroke="none" font-family="Arial" font-size="13px" font-style="normal" font-weight="normal" text-decoration="none" x="181" y="288.5">+Detach()</text></g></g><g transform="translate(-158,-198) scale(1,1)"><g><path fill="none" stroke="none"/><text fill="#000000" stroke="none" font-family="Arial" font-size="13px" font-style="normal" font-weight="normal" text-decoration="none" x="181" y="303.5">+Display()</text></g></g><g transform="translate(-158,-198) scale(1,1)"><path fill="none" stroke="#000000" d="M 255 309 L 256 359" stroke-miterlimit="10"/></g><g transform="translate(-158,-198) scale(1,1)"><path fill="none" stroke="#000000" d="M 251.58811103640411 348.9235305898891 L 256 359 L 260.0054632463075 348.755183545691" stroke-miterlimit="10"/></g><g transform="translate(-158,-198) scale(1,1)"><path fill="none" stroke="#000000" d="M 334 298 L 442 351" stroke-miterlimit="10" stroke-dasharray="3"/></g><g transform="translate(-158,-198) scale(1,1)"><path fill="none" stroke="#000000" d="M 431.0221795019953 350.3018187100847 L 442 351 L 434.7311974078089 342.7438199586155" stroke-miterlimit="10"/></g><g transform="translate(-158,-198) scale(1,1)"><path fill="none" stroke="#000000" d="M 291 388 L 439 388" stroke-miterlimit="10" stroke-dasharray="3"/></g><g transform="translate(-158,-198) scale(1,1)"><path fill="none" stroke="#000000" d="M 428.83732514237585 392.209517756016 L 439 388 L 428.83732514237585 383.790482243984" stroke-miterlimit="10"/></g><g transform="translate(-158,-198) scale(1,1)"><path fill="none" stroke="#000000" d="M 439 388 L 291 388" stroke-miterlimit="10" stroke-dasharray="3"/></g><g transform="translate(-158,-198) scale(1,1)"><path fill="none" stroke="#000000" d="M 301.16267485762415 383.790482243984 L 291 388 L 301.16267485762415 392.209517756016" stroke-miterlimit="10"/></g></g></svg>