<svg version="1.1" xmlns="http://www.w3.org/2000/svg" xmlns:xlink="http://www.w3.org/1999/xlink" width="302" height="312"><defs/><g><g transform="translate(-214,-118) scale(1,1)"><rect fill="#C0C0C0" stroke="none" x="231" y="231" width="88" height="85" opacity="0.2"/></g><g transform="translate(-214,-118) scale(1,1)"><rect fill="#ffffff" stroke="none" x="224" y="224" width="88" height="85"/></g><g transform="translate(-214,-118) scale(1,1)"><path fill="none" stroke="#000000" d="M 224 224 L 312 224 L 312 309 L 224 309 L 224 224 Z Z" stroke-miterlimit="10"/></g><g transform="translate(-214,-118) scale(1,1)"><path fill="none" stroke="#000000" d="M 224 249 L 312 249" stroke-miterlimit="10"/></g><g transform="translate(-214,-118) scale(1,1)"><path fill="none" stroke="#000000" d="M 224 272 L 312 272" stroke-miterlimit="10"/></g><g transform="translate(-214,-118) scale(1,1)"><g><path fill="none" stroke="none"/><text fill="#000000" stroke="none" font-family="Arial" font-size="13px" font-style="normal" font-weight="bold" text-decoration="none" x="245.5" y="243.5">Context</text></g></g><g transform="translate(-214,-118) scale(1,1)"><g><path fill="none" stroke="none"/><text fill="#000000" stroke="none" font-family="Arial" font-size="13px" font-style="normal" font-weight="normal" text-decoration="none" x="229" y="266.5">-text: string</text></g></g><g transform="translate(-214,-118) scale(1,1)"><g><path fill="none" stroke="none"/><text fill="#000000" stroke="none" font-family="Arial" font-size="13px" font-style="normal" font-weight="normal" text-decoration="none" x="229" y="289.5">+SetText()</text></g></g><g transform="translate(-214,-118) scale(1,1)"><g><path fill="none" stroke="none"/><text fill="#000000" stroke="none" font-family="Arial" font-size="13px" font-style="normal" font-weight="normal" text-decoration="none" x="229" y="304.5">+GetText()</text></g></g><g transform="translate(-214,-118) scale(1,1)"><rect fill="#C0C0C0" stroke="none" x="383" y="239" width="88" height="72" opacity="0.2"/></g><g transform="translate(-214,-118) scale(1,1)"><rect fill="#ffffff" stroke="none" x="376" y="232" width="88" height="72"/></g><g transform="translate(-214,-118) scale(1,1)"><path fill="none" stroke="#000000" d="M 376 232 L 464 232 L 464 304 L 376 304 L 376 232 Z Z" stroke-miterlimit="10"/></g><g transform="translate(-214,-118) scale(1,1)"><path fill="none" stroke="#000000" d="M 376 257 L 464 257" stroke-miterlimit="10"/></g><g transform="translate(-214,-118) scale(1,1)"><path fill="none" stroke="#000000" d="M 376 267 L 464 267" stroke-miterlimit="10"/></g><g transform="translate(-214,-118) scale(1,1)"><g><path fill="none" stroke="none"/><text fill="#000000" stroke="none" font-family="Arial" font-size="13px" font-style="italic" font-weight="bold" text-decoration="none" x="387.5" y="251.5">Expression</text></g></g><g transform="translate(-214,-118) scale(1,1)"><g><path fill="none" stroke="none"/><text fill="#000000" stroke="none" font-family="Arial" font-size="13px" font-style="normal" font-weight="normal" text-decoration="none" x="381" y="284.5">+Interprete()</text></g></g><g transform="translate(-214,-118) scale(1,1)"><g><path fill="none" stroke="none"/><text fill="#000000" stroke="none" font-family="Arial" font-size="13px" font-style="italic" font-weight="normal" text-decoration="none" x="381" y="299.5">#Excute()</text></g></g><g transform="translate(-214,-118) scale(1,1)"><rect fill="#C0C0C0" stroke="none" x="311" y="383" width="50" height="44" opacity="0.2"/></g><g transform="translate(-214,-118) scale(1,1)"><rect fill="#ffffff" stroke="none" x="304" y="376" width="50" height="44"/></g><g transform="translate(-214,-118) scale(1,1)"><path fill="none" stroke="#000000" d="M 304 376 L 354 376 L 354 420 L 304 420 L 304 376 Z Z" stroke-miterlimit="10"/></g><g transform="translate(-214,-118) scale(1,1)"><path fill="none" stroke="#000000" d="M 304 401 L 354 401" stroke-miterlimit="10"/></g><g transform="translate(-214,-118) scale(1,1)"><path fill="none" stroke="#000000" d="M 304 411 L 354 411" stroke-miterlimit="10"/></g><g transform="translate(-214,-118) scale(1,1)"><g><path fill="none" stroke="none"/><text fill="#000000" stroke="none" font-family="Arial" font-size="13px" font-style="normal" font-weight="bold" text-decoration="none" x="312.5" y="395.5">Scale</text></g></g><g transform="translate(-214,-118) scale(1,1)"><rect fill="#C0C0C0" stroke="none" x="463" y="383" width="50" height="44" opacity="0.2"/></g><g transform="translate(-214,-118) scale(1,1)"><rect fill="#ffffff" stroke="none" x="456" y="376" width="50" height="44"/></g><g transform="translate(-214,-118) scale(1,1)"><path fill="none" stroke="#000000" d="M 456 376 L 506 376 L 506 420 L 456 420 L 456 376 Z Z" stroke-miterlimit="10"/></g><g transform="translate(-214,-118) scale(1,1)"><path fill="none" stroke="#000000" d="M 456 401 L 506 401" stroke-miterlimit="10"/></g><g transform="translate(-214,-118) scale(1,1)"><path fill="none" stroke="#000000" d="M 456 411 L 506 411" stroke-miterlimit="10"/></g><g transform="translate(-214,-118) scale(1,1)"><g><path fill="none" stroke="none"/><text fill="#000000" stroke="none" font-family="Arial" font-size="13px" font-style="normal" font-weight="bold" text-decoration="none" x="467.5" y="395.5">Note</text></g></g><g transform="translate(-214,-118) scale(1,1)"><path fill="none" stroke="#000000" d="M 345 375 L 394 305" stroke-miterlimit="10"/></g><g transform="translate(-214,-118) scale(1,1)"><path fill="#FFFFFF" stroke="none" d="M 389.2413199337292 326.47917512445196 L 394 305 L 375.44703467084923 316.82317544043605"/></g><g transform="translate(-214,-118) scale(1,1)"><path fill="none" stroke="#000000" d="M 389.2413199337292 326.47917512445196 L 394 305 L 375.44703467084923 316.82317544043605 L 389.2413199337292 326.47917512445196" stroke-miterlimit="10"/></g><g transform="translate(-214,-118) scale(1,1)"><path fill="none" stroke="#000000" d="M 470 375 L 437 305" stroke-miterlimit="10"/></g><g transform="translate(-214,-118) scale(1,1)"><path fill="#FFFFFF" stroke="none" d="M 453.28235351950394 319.79476136562863 L 437 305 L 438.05188649964515 326.9748386749906"/></g><g transform="translate(-214,-118) scale(1,1)"><path fill="none" stroke="#000000" d="M 453.28235351950394 319.79476136562863 L 437 305 L 438.05188649964515 326.9748386749906 L 453.28235351950394 319.79476136562863" stroke-miterlimit="10"/></g><g transform="translate(-214,-118) scale(1,1)"><path fill="none" stroke="#000000" d="M 375 267 L 313 267" stroke-miterlimit="10" stroke-dasharray="3"/></g><g transform="translate(-214,-118) scale(1,1)"><path fill="none" stroke="#000000" d="M 323.16267485762415 262.790482243984 L 313 267 L 323.16267485762415 271.209517756016" stroke-miterlimit="10"/></g><g transform="translate(-214,-118) scale(1,1)"><rect fill="#C0C0C0" stroke="none" x="295" y="135" width="128" height="57" opacity="0.2"/></g><g transform="translate(-214,-118) scale(1,1)"><rect fill="#ffffff" stroke="none" x="288" y="128" width="128" height="57"/></g><g transform="translate(-214,-118) scale(1,1)"><path fill="none" stroke="#000000" d="M 288 128 L 416 128 L 416 185 L 288 185 L 288 128 Z Z" stroke-miterlimit="10"/></g><g transform="translate(-214,-118) scale(1,1)"><path fill="none" stroke="#000000" d="M 288 153 L 416 153" stroke-miterlimit="10"/></g><g transform="translate(-214,-118) scale(1,1)"><path fill="none" stroke="#000000" d="M 288 163 L 416 163" stroke-miterlimit="10"/></g><g transform="translate(-214,-118) scale(1,1)"><g><path fill="none" stroke="none"/><text fill="#000000" stroke="none" font-family="Arial" font-size="13px" font-style="normal" font-weight="bold" text-decoration="none" x="297.5" y="147.5">ExpressionFactory</text></g></g><g transform="translate(-214,-118) scale(1,1)"><g><path fill="none" stroke="none"/><text fill="#000000" stroke="none" font-family="Arial" font-size="13px" font-style="normal" font-weight="normal" text-decoration="none" x="293" y="180.5">+CreateExpression()</text></g></g><g transform="translate(-214,-118) scale(1,1)"><path fill="none" stroke="#000000" d="M 329 186 L 301 223" stroke-miterlimit="10" stroke-dasharray="3"/></g><g transform="translate(-214,-118) scale(1,1)"><path fill="none" stroke="#000000" d="M 303.77589531335866 212.35601553884666 L 301 223 L 310.4892879912656 217.43642080861412" stroke-miterlimit="10"/></g><g transform="translate(-214,-118) scale(1,1)"><path fill="none" stroke="#000000" d="M 370 186 L 398 231" stroke-miterlimit="10" stroke-dasharray="3"/></g><g transform="translate(-214,-118) scale(1,1)"><path fill="none" stroke="#000000" d="M 389.0569208484114 224.59520997312 L 398 231 L 396.2051585473065 220.14741762714087" stroke-miterlimit="10"/></g></g></svg>