<svg version="1.1" xmlns="http://www.w3.org/2000/svg" xmlns:xlink="http://www.w3.org/1999/xlink" width="581" height="252"><defs/><g><g transform="translate(-206,-254) scale(1,1)"><rect fill="#C0C0C0" stroke="none" x="455" y="287" width="96" height="57" opacity="0.2"/></g><g transform="translate(-206,-254) scale(1,1)"><rect fill="#ffffff" stroke="none" x="448" y="280" width="96" height="57"/></g><g transform="translate(-206,-254) scale(1,1)"><path fill="none" stroke="#000000" d="M 448 280 L 544 280 L 544 337 L 448 337 L 448 280 Z Z" stroke-miterlimit="10"/></g><g transform="translate(-206,-254) scale(1,1)"><path fill="none" stroke="#000000" d="M 448 305 L 544 305" stroke-miterlimit="10"/></g><g transform="translate(-206,-254) scale(1,1)"><path fill="none" stroke="#000000" d="M 448 315 L 544 315" stroke-miterlimit="10"/></g><g transform="translate(-206,-254) scale(1,1)"><g><path fill="none" stroke="none"/><text fill="#000000" stroke="none" font-family="Arial" font-size="13px" font-style="italic" font-weight="bold" text-decoration="none" x="464" y="299.5">CashSuper</text></g></g><g transform="translate(-206,-254) scale(1,1)"><g><path fill="none" stroke="none"/><text fill="#000000" stroke="none" font-family="Arial" font-size="13px" font-style="italic" font-weight="normal" text-decoration="none" x="453" y="332.5">+AcceptCash()</text></g></g><g transform="translate(-206,-254) scale(1,1)"><rect fill="#C0C0C0" stroke="none" x="303" y="431" width="85" height="44" opacity="0.2"/></g><g transform="translate(-206,-254) scale(1,1)"><rect fill="#ffffff" stroke="none" x="296" y="424" width="85" height="44"/></g><g transform="translate(-206,-254) scale(1,1)"><path fill="none" stroke="#000000" d="M 296 424 L 381 424 L 381 468 L 296 468 L 296 424 Z Z" stroke-miterlimit="10"/></g><g transform="translate(-206,-254) scale(1,1)"><path fill="none" stroke="#000000" d="M 296 449 L 381 449" stroke-miterlimit="10"/></g><g transform="translate(-206,-254) scale(1,1)"><path fill="none" stroke="#000000" d="M 296 459 L 381 459" stroke-miterlimit="10"/></g><g transform="translate(-206,-254) scale(1,1)"><g><path fill="none" stroke="none"/><text fill="#000000" stroke="none" font-family="Arial" font-size="13px" font-style="normal" font-weight="bold" text-decoration="none" x="303" y="443.5">CashNormal</text></g></g><g transform="translate(-206,-254) scale(1,1)"><rect fill="#C0C0C0" stroke="none" x="431" y="431" width="148" height="57" opacity="0.2"/></g><g transform="translate(-206,-254) scale(1,1)"><rect fill="#ffffff" stroke="none" x="424" y="424" width="148" height="57"/></g><g transform="translate(-206,-254) scale(1,1)"><path fill="none" stroke="#000000" d="M 424 424 L 572 424 L 572 481 L 424 481 L 424 424 Z Z" stroke-miterlimit="10"/></g><g transform="translate(-206,-254) scale(1,1)"><path fill="none" stroke="#000000" d="M 424 449 L 572 449" stroke-miterlimit="10"/></g><g transform="translate(-206,-254) scale(1,1)"><path fill="none" stroke="#000000" d="M 424 472 L 572 472" stroke-miterlimit="10"/></g><g transform="translate(-206,-254) scale(1,1)"><g><path fill="none" stroke="none"/><text fill="#000000" stroke="none" font-family="Arial" font-size="13px" font-style="normal" font-weight="bold" text-decoration="none" x="462.5" y="443.5">CashRebate</text></g></g><g transform="translate(-206,-254) scale(1,1)"><g><path fill="none" stroke="none"/><text fill="#000000" stroke="none" font-family="Arial" font-size="13px" font-style="normal" font-weight="normal" text-decoration="none" x="429" y="466.5">-money_rebate_: double</text></g></g><g transform="translate(-206,-254) scale(1,1)"><rect fill="#C0C0C0" stroke="none" x="623" y="431" width="161" height="72" opacity="0.2"/></g><g transform="translate(-206,-254) scale(1,1)"><rect fill="#ffffff" stroke="none" x="616" y="424" width="161" height="72"/></g><g transform="translate(-206,-254) scale(1,1)"><path fill="none" stroke="#000000" d="M 616 424 L 777 424 L 777 496 L 616 496 L 616 424 Z Z" stroke-miterlimit="10"/></g><g transform="translate(-206,-254) scale(1,1)"><path fill="none" stroke="#000000" d="M 616 449 L 777 449" stroke-miterlimit="10"/></g><g transform="translate(-206,-254) scale(1,1)"><path fill="none" stroke="#000000" d="M 616 487 L 777 487" stroke-miterlimit="10"/></g><g transform="translate(-206,-254) scale(1,1)"><g><path fill="none" stroke="none"/><text fill="#000000" stroke="none" font-family="Arial" font-size="13px" font-style="normal" font-weight="bold" text-decoration="none" x="662.5" y="443.5">CashReturn</text></g></g><g transform="translate(-206,-254) scale(1,1)"><g><path fill="none" stroke="none"/><text fill="#000000" stroke="none" font-family="Arial" font-size="13px" font-style="normal" font-weight="normal" text-decoration="none" x="621" y="466.5">-money_condition: double</text></g></g><g transform="translate(-206,-254) scale(1,1)"><g><path fill="none" stroke="none"/><text fill="#000000" stroke="none" font-family="Arial" font-size="13px" font-style="normal" font-weight="normal" text-decoration="none" x="621" y="481.5">-money_return_</text></g></g><g transform="translate(-206,-254) scale(1,1)"><rect fill="#C0C0C0" stroke="none" x="223" y="271" width="122" height="100" opacity="0.2"/></g><g transform="translate(-206,-254) scale(1,1)"><rect fill="#ffffff" stroke="none" x="216" y="264" width="122" height="100"/></g><g transform="translate(-206,-254) scale(1,1)"><path fill="none" stroke="#000000" d="M 216 264 L 338 264 L 338 364 L 216 364 L 216 264 Z Z" stroke-miterlimit="10"/></g><g transform="translate(-206,-254) scale(1,1)"><path fill="none" stroke="#000000" d="M 216 289 L 338 289" stroke-miterlimit="10"/></g><g transform="translate(-206,-254) scale(1,1)"><path fill="none" stroke="#000000" d="M 216 312 L 338 312" stroke-miterlimit="10"/></g><g transform="translate(-206,-254) scale(1,1)"><g><path fill="none" stroke="none"/><text fill="#000000" stroke="none" font-family="Arial" font-size="13px" font-style="normal" font-weight="bold" text-decoration="none" x="239.5" y="283.5">CashContext</text></g></g><g transform="translate(-206,-254) scale(1,1)"><g><path fill="none" stroke="none"/><text fill="#000000" stroke="none" font-family="Arial" font-size="13px" font-style="normal" font-weight="normal" text-decoration="none" x="221" y="306.5">-*cash: CashSuper</text></g></g><g transform="translate(-206,-254) scale(1,1)"><g><path fill="none" stroke="none"/><text fill="#000000" stroke="none" font-family="Arial" font-size="13px" font-style="normal" font-weight="normal" text-decoration="none" x="221" y="329.5">+GetResult()</text></g></g><g transform="translate(-206,-254) scale(1,1)"><g><path fill="none" stroke="none"/><text fill="#000000" stroke="none" font-family="Arial" font-size="13px" font-style="normal" font-weight="normal" text-decoration="none" x="221" y="344.5">+CashContext()</text></g></g><g transform="translate(-206,-254) scale(1,1)"><g><path fill="none" stroke="none"/><text fill="#000000" stroke="none" font-family="Arial" font-size="13px" font-style="normal" font-weight="normal" text-decoration="none" x="221" y="359.5">+~CashContext()</text></g></g><g transform="translate(-206,-254) scale(1,1)"><path fill="none" stroke="#000000" d="M 447 309 L 339 312" stroke-miterlimit="10"/></g><g transform="translate(-206,-254) scale(1,1)"><path fill="#FFFFFF" stroke="none" d="M 349.0418703775052 307.50991767097923 L 339 312 L 349.27564230266665 315.9257069767938 L 360.9915172543598 311.38912452071224"/></g><g transform="translate(-206,-254) scale(1,1)"><path fill="none" stroke="#000000" d="M 349.0418703775052 307.50991767097923 L 339 312 L 349.27564230266665 315.9257069767938 L 360.9915172543598 311.38912452071224 L 349.0418703775052 307.50991767097923" stroke-miterlimit="10"/></g><g transform="translate(-206,-254) scale(1,1)"><path fill="none" stroke="#000000" d="M 364 423 L 462 338" stroke-miterlimit="10"/></g><g transform="translate(-206,-254) scale(1,1)"><path fill="#FFFFFF" stroke="none" d="M 452.1618796551251 357.6776875694213 L 462 338 L 441.1291720716016 344.9576247084177"/></g><g transform="translate(-206,-254) scale(1,1)"><path fill="none" stroke="#000000" d="M 452.1618796551251 357.6776875694213 L 462 338 L 441.1291720716016 344.9576247084177 L 452.1618796551251 357.6776875694213" stroke-miterlimit="10"/></g><g transform="translate(-206,-254) scale(1,1)"><path fill="none" stroke="#000000" d="M 498 423 L 496 338" stroke-miterlimit="10"/></g><g transform="translate(-206,-254) scale(1,1)"><path fill="#FFFFFF" stroke="none" d="M 504.8948171423239 358.1216855159954 L 496 338 L 488.0614052414881 358.5177657960151"/></g><g transform="translate(-206,-254) scale(1,1)"><path fill="none" stroke="#000000" d="M 504.8948171423239 358.1216855159954 L 496 338 L 488.0614052414881 358.5177657960151 L 504.8948171423239 358.1216855159954" stroke-miterlimit="10"/></g><g transform="translate(-206,-254) scale(1,1)"><path fill="none" stroke="#000000" d="M 647 423 L 535 338" stroke-miterlimit="10"/></g><g transform="translate(-206,-254) scale(1,1)"><path fill="#FFFFFF" stroke="none" d="M 556.2802898572575 343.58115253250685 L 535 338 L 546.1009664611099 356.9939080662541"/></g><g transform="translate(-206,-254) scale(1,1)"><path fill="none" stroke="#000000" d="M 556.2802898572575 343.58115253250685 L 535 338 L 546.1009664611099 356.9939080662541 L 556.2802898572575 343.58115253250685" stroke-miterlimit="10"/></g></g></svg>