<svg version="1.1" xmlns="http://www.w3.org/2000/svg" xmlns:xlink="http://www.w3.org/1999/xlink" width="634" height="216"><defs/><g><g transform="translate(-118,-230) scale(1,1)"><rect fill="#C0C0C0" stroke="none" x="135" y="247" width="208" height="100" opacity="0.2"/></g><g transform="translate(-118,-230) scale(1,1)"><rect fill="#ffffff" stroke="none" x="128" y="240" width="208" height="100"/></g><g transform="translate(-118,-230) scale(1,1)"><path fill="none" stroke="#000000" d="M 128 240 L 336 240 L 336 340 L 128 340 L 128 240 Z Z" stroke-miterlimit="10"/></g><g transform="translate(-118,-230) scale(1,1)"><path fill="none" stroke="#000000" d="M 128 265 L 336 265" stroke-miterlimit="10"/></g><g transform="translate(-118,-230) scale(1,1)"><path fill="none" stroke="#000000" d="M 128 288 L 336 288" stroke-miterlimit="10"/></g><g transform="translate(-118,-230) scale(1,1)"><g><path fill="none" stroke="none"/><text fill="#000000" stroke="none" font-family="Arial" font-size="13px" font-style="normal" font-weight="bold" text-decoration="none" x="213.5" y="259.5">Waiter</text></g></g><g transform="translate(-118,-230) scale(1,1)"><g><path fill="none" stroke="none"/><text fill="#000000" stroke="none" font-family="Arial" font-size="13px" font-style="normal" font-weight="normal" text-decoration="none" x="133" y="282.5">-commands_: vector&lt;Command*&gt;</text></g></g><g transform="translate(-118,-230) scale(1,1)"><g><path fill="none" stroke="none"/><text fill="#000000" stroke="none" font-family="Arial" font-size="13px" font-style="normal" font-weight="normal" text-decoration="none" x="133" y="305.5">+SetOrder()</text></g></g><g transform="translate(-118,-230) scale(1,1)"><g><path fill="none" stroke="none"/><text fill="#000000" stroke="none" font-family="Arial" font-size="13px" font-style="normal" font-weight="normal" text-decoration="none" x="133" y="320.5">+CancelOrder()</text></g></g><g transform="translate(-118,-230) scale(1,1)"><g><path fill="none" stroke="none"/><text fill="#000000" stroke="none" font-family="Arial" font-size="13px" font-style="normal" font-weight="normal" text-decoration="none" x="133" y="335.5">+Notify()</text></g></g><g transform="translate(-118,-230) scale(1,1)"><rect fill="#C0C0C0" stroke="none" x="415" y="263" width="141" height="70" opacity="0.2"/></g><g transform="translate(-118,-230) scale(1,1)"><rect fill="#ffffff" stroke="none" x="408" y="256" width="141" height="70"/></g><g transform="translate(-118,-230) scale(1,1)"><path fill="none" stroke="#000000" d="M 408 256 L 549 256 L 549 326 L 408 326 L 408 256 Z Z" stroke-miterlimit="10"/></g><g transform="translate(-118,-230) scale(1,1)"><path fill="none" stroke="#000000" d="M 408 281 L 549 281" stroke-miterlimit="10"/></g><g transform="translate(-118,-230) scale(1,1)"><path fill="none" stroke="#000000" d="M 408 304 L 549 304" stroke-miterlimit="10"/></g><g transform="translate(-118,-230) scale(1,1)"><g><path fill="none" stroke="none"/><text fill="#000000" stroke="none" font-family="Arial" font-size="13px" font-style="italic" font-weight="bold" text-decoration="none" x="449" y="275.5">Command</text></g></g><g transform="translate(-118,-230) scale(1,1)"><g><path fill="none" stroke="none"/><text fill="#000000" stroke="none" font-family="Arial" font-size="13px" font-style="normal" font-weight="normal" text-decoration="none" x="413" y="298.5">#*receiver_: Barbecuer</text></g></g><g transform="translate(-118,-230) scale(1,1)"><g><path fill="none" stroke="none"/><text fill="#000000" stroke="none" font-family="Arial" font-size="13px" font-style="italic" font-weight="normal" text-decoration="none" x="413" y="321.5">+ExcuteCommand()</text></g></g><g transform="translate(-118,-230) scale(1,1)"><rect fill="#C0C0C0" stroke="none" x="271" y="399" width="146" height="44" opacity="0.2"/></g><g transform="translate(-118,-230) scale(1,1)"><rect fill="#ffffff" stroke="none" x="264" y="392" width="146" height="44"/></g><g transform="translate(-118,-230) scale(1,1)"><path fill="none" stroke="#000000" d="M 264 392 L 410 392 L 410 436 L 264 436 L 264 392 Z Z" stroke-miterlimit="10"/></g><g transform="translate(-118,-230) scale(1,1)"><path fill="none" stroke="#000000" d="M 264 417 L 410 417" stroke-miterlimit="10"/></g><g transform="translate(-118,-230) scale(1,1)"><path fill="none" stroke="#000000" d="M 264 427 L 410 427" stroke-miterlimit="10"/></g><g transform="translate(-118,-230) scale(1,1)"><g><path fill="none" stroke="none"/><text fill="#000000" stroke="none" font-family="Arial" font-size="13px" font-style="normal" font-weight="bold" text-decoration="none" x="272.5" y="411.5">BakeMuttonCommand</text></g></g><g transform="translate(-118,-230) scale(1,1)"><rect fill="#C0C0C0" stroke="none" x="479" y="399" width="153" height="44" opacity="0.2"/></g><g transform="translate(-118,-230) scale(1,1)"><rect fill="#ffffff" stroke="none" x="472" y="392" width="153" height="44"/></g><g transform="translate(-118,-230) scale(1,1)"><path fill="none" stroke="#000000" d="M 472 392 L 625 392 L 625 436 L 472 436 L 472 392 Z Z" stroke-miterlimit="10"/></g><g transform="translate(-118,-230) scale(1,1)"><path fill="none" stroke="#000000" d="M 472 417 L 625 417" stroke-miterlimit="10"/></g><g transform="translate(-118,-230) scale(1,1)"><path fill="none" stroke="#000000" d="M 472 427 L 625 427" stroke-miterlimit="10"/></g><g transform="translate(-118,-230) scale(1,1)"><g><path fill="none" stroke="none"/><text fill="#000000" stroke="none" font-family="Arial" font-size="13px" font-style="normal" font-weight="bold" text-decoration="none" x="480.5" y="411.5">BakeChickenCommand</text></g></g><g transform="translate(-118,-230) scale(1,1)"><rect fill="#C0C0C0" stroke="none" x="647" y="263" width="102" height="72" opacity="0.2"/></g><g transform="translate(-118,-230) scale(1,1)"><rect fill="#ffffff" stroke="none" x="640" y="256" width="102" height="72"/></g><g transform="translate(-118,-230) scale(1,1)"><path fill="none" stroke="#000000" d="M 640 256 L 742 256 L 742 328 L 640 328 L 640 256 Z Z" stroke-miterlimit="10"/></g><g transform="translate(-118,-230) scale(1,1)"><path fill="none" stroke="#000000" d="M 640 281 L 742 281" stroke-miterlimit="10"/></g><g transform="translate(-118,-230) scale(1,1)"><path fill="none" stroke="#000000" d="M 640 291 L 742 291" stroke-miterlimit="10"/></g><g transform="translate(-118,-230) scale(1,1)"><g><path fill="none" stroke="none"/><text fill="#000000" stroke="none" font-family="Arial" font-size="13px" font-style="normal" font-weight="bold" text-decoration="none" x="661.5" y="275.5">Barbecuer</text></g></g><g transform="translate(-118,-230) scale(1,1)"><g><path fill="none" stroke="none"/><text fill="#000000" stroke="none" font-family="Arial" font-size="13px" font-style="normal" font-weight="normal" text-decoration="none" x="645" y="308.5">+BakeMutton()</text></g></g><g transform="translate(-118,-230) scale(1,1)"><g><path fill="none" stroke="none"/><text fill="#000000" stroke="none" font-family="Arial" font-size="13px" font-style="normal" font-weight="normal" text-decoration="none" x="645" y="323.5">+BakeChicken()</text></g></g><g transform="translate(-118,-230) scale(1,1)"><path fill="none" stroke="#000000" d="M 550 291 L 639 292" stroke-miterlimit="10"/></g><g transform="translate(-118,-230) scale(1,1)"><path fill="none" stroke="#000000" d="M 628.79067161666 296.09507191159423 L 639 292 L 628.8852615506452 287.6765677869148" stroke-miterlimit="10"/></g><g transform="translate(-118,-230) scale(1,1)"><path fill="none" stroke="#000000" d="M 407 291 L 337 290" stroke-miterlimit="10"/></g><g transform="translate(-118,-230) scale(1,1)"><path fill="#FFFFFF" stroke="none" d="M 347.2217678412432 285.93607797814394 L 337 290 L 347.1015081761254 294.3542545363899 L 358.99775544558923 290.3142536492227"/></g><g transform="translate(-118,-230) scale(1,1)"><path fill="none" stroke="#000000" d="M 347.2217678412432 285.93607797814394 L 337 290 L 347.1015081761254 294.3542545363899 L 358.99775544558923 290.3142536492227 L 347.2217678412432 285.93607797814394" stroke-miterlimit="10"/></g><g transform="translate(-118,-230) scale(1,1)"><path fill="none" stroke="#000000" d="M 363 391 L 437 327" stroke-miterlimit="10"/></g><g transform="translate(-118,-230) scale(1,1)"><path fill="#FFFFFF" stroke="none" d="M 427.13398236179086 346.6637152126079 L 437 327 L 416.11932565456016 333.92801839487237"/></g><g transform="translate(-118,-230) scale(1,1)"><path fill="none" stroke="#000000" d="M 427.13398236179086 346.6637152126079 L 437 327 L 416.11932565456016 333.92801839487237 L 427.13398236179086 346.6637152126079" stroke-miterlimit="10"/></g><g transform="translate(-118,-230) scale(1,1)"><path fill="none" stroke="#000000" d="M 535 391 L 498 327" stroke-miterlimit="10"/></g><g transform="translate(-118,-230) scale(1,1)"><path fill="#FFFFFF" stroke="none" d="M 515.4615497639254 340.38261109955585 L 498 327 L 500.8842451896197 348.81011530657634"/></g><g transform="translate(-118,-230) scale(1,1)"><path fill="none" stroke="#000000" d="M 515.4615497639254 340.38261109955585 L 498 327 L 500.8842451896197 348.81011530657634 L 515.4615497639254 340.38261109955585" stroke-miterlimit="10"/></g></g></svg>