<svg version="1.1" xmlns="http://www.w3.org/2000/svg" xmlns:xlink="http://www.w3.org/1999/xlink" width="393" height="276"><defs/><g><g transform="translate(-214,-166) scale(1,1)"><rect fill="#C0C0C0" stroke="none" x="239" y="207" width="104" height="57" opacity="0.2"/></g><g transform="translate(-214,-166) scale(1,1)"><rect fill="#ffffff" stroke="none" x="232" y="200" width="104" height="57"/></g><g transform="translate(-214,-166) scale(1,1)"><path fill="none" stroke="#000000" d="M 232 200 L 336 200 L 336 257 L 232 257 L 232 200 Z Z" stroke-miterlimit="10"/></g><g transform="translate(-214,-166) scale(1,1)"><path fill="none" stroke="#000000" d="M 232 225 L 336 225" stroke-miterlimit="10"/></g><g transform="translate(-214,-166) scale(1,1)"><path fill="none" stroke="#000000" d="M 232 235 L 336 235" stroke-miterlimit="10"/></g><g transform="translate(-214,-166) scale(1,1)"><g><path fill="none" stroke="none"/><text fill="#000000" stroke="none" font-family="Arial" font-size="13px" font-style="italic" font-weight="bold" text-decoration="none" x="254.5" y="219.5">Aggregate</text></g></g><g transform="translate(-214,-166) scale(1,1)"><g><path fill="none" stroke="none"/><text fill="#000000" stroke="none" font-family="Arial" font-size="13px" font-style="italic" font-weight="normal" text-decoration="none" x="237" y="252.5">+CreateIterator()</text></g></g><g transform="translate(-214,-166) scale(1,1)"><rect fill="#C0C0C0" stroke="none" x="479" y="183" width="93" height="102" opacity="0.2"/></g><g transform="translate(-214,-166) scale(1,1)"><rect fill="#ffffff" stroke="none" x="472" y="176" width="93" height="102"/></g><g transform="translate(-214,-166) scale(1,1)"><path fill="none" stroke="#000000" d="M 472 176 L 565 176 L 565 278 L 472 278 L 472 176 Z Z" stroke-miterlimit="10"/></g><g transform="translate(-214,-166) scale(1,1)"><path fill="none" stroke="#000000" d="M 472 201 L 565 201" stroke-miterlimit="10"/></g><g transform="translate(-214,-166) scale(1,1)"><path fill="none" stroke="#000000" d="M 472 211 L 565 211" stroke-miterlimit="10"/></g><g transform="translate(-214,-166) scale(1,1)"><g><path fill="none" stroke="none"/><text fill="#000000" stroke="none" font-family="Arial" font-size="13px" font-style="italic" font-weight="bold" text-decoration="none" x="498" y="195.5">Iterator</text></g></g><g transform="translate(-214,-166) scale(1,1)"><g><path fill="none" stroke="none"/><text fill="#000000" stroke="none" font-family="Arial" font-size="13px" font-style="italic" font-weight="normal" text-decoration="none" x="477" y="228.5">+First()</text></g></g><g transform="translate(-214,-166) scale(1,1)"><g><path fill="none" stroke="none"/><text fill="#000000" stroke="none" font-family="Arial" font-size="13px" font-style="italic" font-weight="normal" text-decoration="none" x="477" y="243.5">+Next()</text></g></g><g transform="translate(-214,-166) scale(1,1)"><g><path fill="none" stroke="none"/><text fill="#000000" stroke="none" font-family="Arial" font-size="13px" font-style="italic" font-weight="normal" text-decoration="none" x="477" y="258.5">+IsDone()</text></g></g><g transform="translate(-214,-166) scale(1,1)"><g><path fill="none" stroke="none"/><text fill="#000000" stroke="none" font-family="Arial" font-size="13px" font-style="italic" font-weight="normal" text-decoration="none" x="477" y="273.5">+CurrentItem()</text></g></g><g transform="translate(-214,-166) scale(1,1)"><rect fill="#C0C0C0" stroke="none" x="231" y="351" width="119" height="85" opacity="0.2"/></g><g transform="translate(-214,-166) scale(1,1)"><rect fill="#ffffff" stroke="none" x="224" y="344" width="119" height="85"/></g><g transform="translate(-214,-166) scale(1,1)"><path fill="none" stroke="#000000" d="M 224 344 L 343 344 L 343 429 L 224 429 L 224 344 Z Z" stroke-miterlimit="10"/></g><g transform="translate(-214,-166) scale(1,1)"><path fill="none" stroke="#000000" d="M 224 369 L 343 369" stroke-miterlimit="10"/></g><g transform="translate(-214,-166) scale(1,1)"><path fill="none" stroke="#000000" d="M 224 392 L 343 392" stroke-miterlimit="10"/></g><g transform="translate(-214,-166) scale(1,1)"><g><path fill="none" stroke="none"/><text fill="#000000" stroke="none" font-family="Arial" font-size="13px" font-style="normal" font-weight="bold" text-decoration="none" x="273" y="363.5">List</text></g></g><g transform="translate(-214,-166) scale(1,1)"><g><path fill="none" stroke="none"/><text fill="#000000" stroke="none" font-family="Arial" font-size="13px" font-style="normal" font-weight="normal" text-decoration="none" x="229" y="386.5">-items: vector&lt;int&gt;</text></g></g><g transform="translate(-214,-166) scale(1,1)"><g><path fill="none" stroke="none"/><text fill="#000000" stroke="none" font-family="Arial" font-size="13px" font-style="normal" font-weight="normal" text-decoration="none" x="229" y="409.5">+operator[]()</text></g></g><g transform="translate(-214,-166) scale(1,1)"><g><path fill="none" stroke="none"/><text fill="#000000" stroke="none" font-family="Arial" font-size="13px" font-style="normal" font-weight="normal" text-decoration="none" x="229" y="424.5">+Count()</text></g></g><g transform="translate(-214,-166) scale(1,1)"><rect fill="#C0C0C0" stroke="none" x="455" y="367" width="149" height="72" opacity="0.2"/></g><g transform="translate(-214,-166) scale(1,1)"><rect fill="#ffffff" stroke="none" x="448" y="360" width="149" height="72"/></g><g transform="translate(-214,-166) scale(1,1)"><path fill="none" stroke="#000000" d="M 448 360 L 597 360 L 597 432 L 448 432 L 448 360 Z Z" stroke-miterlimit="10"/></g><g transform="translate(-214,-166) scale(1,1)"><path fill="none" stroke="#000000" d="M 448 385 L 597 385" stroke-miterlimit="10"/></g><g transform="translate(-214,-166) scale(1,1)"><path fill="none" stroke="#000000" d="M 448 423 L 597 423" stroke-miterlimit="10"/></g><g transform="translate(-214,-166) scale(1,1)"><g><path fill="none" stroke="none"/><text fill="#000000" stroke="none" font-family="Arial" font-size="13px" font-style="normal" font-weight="bold" text-decoration="none" x="491.5" y="379.5">ListIterator</text></g></g><g transform="translate(-214,-166) scale(1,1)"><g><path fill="none" stroke="none"/><text fill="#000000" stroke="none" font-family="Arial" font-size="13px" font-style="normal" font-weight="normal" text-decoration="none" x="453" y="402.5">-current: int</text></g></g><g transform="translate(-214,-166) scale(1,1)"><g><path fill="none" stroke="none"/><text fill="#000000" stroke="none" font-family="Arial" font-size="13px" font-style="normal" font-weight="normal" text-decoration="none" x="453" y="417.5">-*aggregate_: Aggregate</text></g></g><g transform="translate(-214,-166) scale(1,1)"><path fill="none" stroke="#000000" d="M 283 343 L 284 258" stroke-miterlimit="10"/></g><g transform="translate(-214,-166) scale(1,1)"><path fill="#FFFFFF" stroke="none" d="M 292.1793477254358 278.4229838854759 L 284 258 L 275.3424418448548 278.224902639822"/></g><g transform="translate(-214,-166) scale(1,1)"><path fill="none" stroke="#000000" d="M 292.1793477254358 278.4229838854759 L 284 258 L 275.3424418448548 278.224902639822 L 292.1793477254358 278.4229838854759" stroke-miterlimit="10"/></g><g transform="translate(-214,-166) scale(1,1)"><path fill="none" stroke="#000000" d="M 521 359 L 519 279" stroke-miterlimit="10"/></g><g transform="translate(-214,-166) scale(1,1)"><path fill="#FFFFFF" stroke="none" d="M 527.9243808215311 299.10859087435733 L 519 279 L 511.0915692294318 299.52941116415985"/></g><g transform="translate(-214,-166) scale(1,1)"><path fill="none" stroke="#000000" d="M 527.9243808215311 299.10859087435733 L 519 279 L 511.0915692294318 299.52941116415985 L 527.9243808215311 299.10859087435733" stroke-miterlimit="10"/></g><g transform="translate(-214,-166) scale(1,1)"><path fill="none" stroke="#000000" d="M 447 393 L 344 389" stroke-miterlimit="10"/></g><g transform="translate(-214,-166) scale(1,1)"><path fill="none" stroke="#000000" d="M 354.3183733615849 385.18802266914724 L 344 389 L 353.9916667951667 393.60071675441594" stroke-miterlimit="10"/></g><g transform="translate(-214,-166) scale(1,1)"><path fill="none" stroke="#000000" d="M 344 393 L 400 400 L 447 398" stroke-miterlimit="10" stroke-dasharray="3"/></g><g transform="translate(-214,-166) scale(1,1)"><path fill="none" stroke="#000000" d="M 437.0254802740569 402.63777492303933 L 447 398 L 436.66754736500866 394.2263515604047" stroke-miterlimit="10"/></g><g transform="translate(-214,-166) scale(1,1)"><path fill="none" stroke="#000000" d="M 337 228 L 471 227" stroke-miterlimit="10" stroke-dasharray="3"/></g><g transform="translate(-214,-166) scale(1,1)"><path fill="none" stroke="#000000" d="M 460.86902155571977 231.28523928871303 L 471 227 L 460.80619468193873 222.86643820205072" stroke-miterlimit="10"/></g></g></svg>