<svg version="1.1" xmlns="http://www.w3.org/2000/svg" xmlns:xlink="http://www.w3.org/1999/xlink" width="465.97021484375" height="252"><defs/><g><g transform="translate(-238,-250) scale(1,1)"><rect fill="#C0C0C0" stroke="none" x="447" y="287" width="153.22509765625" height="100" opacity="0.2"/></g><g transform="translate(-238,-250) scale(1,1)"><rect fill="#ffffff" stroke="none" x="440" y="280" width="153.22509765625" height="100"/></g><g transform="translate(-238,-250) scale(1,1)"><path fill="none" stroke="#000000" d="M 440 280 L 593.22509765625 280 L 593.22509765625 380 L 440 380 L 440 280 Z Z" stroke-miterlimit="10"/></g><g transform="translate(-238,-250) scale(1,1)"><path fill="none" stroke="#000000" d="M 440 305 L 593.22509765625 305" stroke-miterlimit="10"/></g><g transform="translate(-238,-250) scale(1,1)"><path fill="none" stroke="#000000" d="M 440 343 L 593.22509765625 343" stroke-miterlimit="10"/></g><g transform="translate(-238,-250) scale(1,1)"><g><path fill="none" stroke="none"/><text fill="#000000" stroke="none" font-family="Arial" font-size="13px" font-style="italic" font-weight="bold" text-decoration="none" x="491.612548828125" y="299.5">Manager</text></g></g><g transform="translate(-238,-250) scale(1,1)"><g><path fill="none" stroke="none"/><text fill="#000000" stroke="none" font-family="Arial" font-size="13px" font-style="normal" font-weight="normal" text-decoration="none" x="445" y="322.5">#*superior_: Manager</text></g></g><g transform="translate(-238,-250) scale(1,1)"><g><path fill="none" stroke="none"/><text fill="#000000" stroke="none" font-family="Arial" font-size="13px" font-style="normal" font-weight="normal" text-decoration="none" x="445" y="337.5">#name_: string</text></g></g><g transform="translate(-238,-250) scale(1,1)"><g><path fill="none" stroke="none"/><text fill="#000000" stroke="none" font-family="Arial" font-size="13px" font-style="normal" font-weight="normal" text-decoration="none" x="445" y="360.5">+SetSuperior()</text></g></g><g transform="translate(-238,-250) scale(1,1)"><g><path fill="none" stroke="none"/><text fill="#000000" stroke="none" font-family="Arial" font-size="13px" font-style="italic" font-weight="normal" text-decoration="none" x="445" y="375.5">+RequestApplications()</text></g></g><g transform="translate(-238,-250) scale(1,1)"><rect fill="#C0C0C0" stroke="none" x="327" y="455" width="126.3427734375" height="44" opacity="0.2"/></g><g transform="translate(-238,-250) scale(1,1)"><rect fill="#ffffff" stroke="none" x="320" y="448" width="126.3427734375" height="44"/></g><g transform="translate(-238,-250) scale(1,1)"><path fill="none" stroke="#000000" d="M 320 448 L 446.3427734375 448 L 446.3427734375 492 L 320 492 L 320 448 Z Z" stroke-miterlimit="10"/></g><g transform="translate(-238,-250) scale(1,1)"><path fill="none" stroke="#000000" d="M 320 473 L 446.3427734375 473" stroke-miterlimit="10"/></g><g transform="translate(-238,-250) scale(1,1)"><path fill="none" stroke="#000000" d="M 320 483 L 446.3427734375 483" stroke-miterlimit="10"/></g><g transform="translate(-238,-250) scale(1,1)"><g><path fill="none" stroke="none"/><text fill="#000000" stroke="none" font-family="Arial" font-size="13px" font-style="normal" font-weight="bold" text-decoration="none" x="332.17138671875" y="467.5">CommonManager</text></g></g><g transform="translate(-238,-250) scale(1,1)"><rect fill="#C0C0C0" stroke="none" x="479" y="455" width="84.81005859375" height="44" opacity="0.2"/></g><g transform="translate(-238,-250) scale(1,1)"><rect fill="#ffffff" stroke="none" x="472" y="448" width="84.81005859375" height="44"/></g><g transform="translate(-238,-250) scale(1,1)"><path fill="none" stroke="#000000" d="M 472 448 L 556.81005859375 448 L 556.81005859375 492 L 472 492 L 472 448 Z Z" stroke-miterlimit="10"/></g><g transform="translate(-238,-250) scale(1,1)"><path fill="none" stroke="#000000" d="M 472 473 L 556.81005859375 473" stroke-miterlimit="10"/></g><g transform="translate(-238,-250) scale(1,1)"><path fill="none" stroke="#000000" d="M 472 483 L 556.81005859375 483" stroke-miterlimit="10"/></g><g transform="translate(-238,-250) scale(1,1)"><g><path fill="none" stroke="none"/><text fill="#000000" stroke="none" font-family="Arial" font-size="13px" font-style="normal" font-weight="bold" text-decoration="none" x="482.405029296875" y="467.5">Majordomo</text></g></g><g transform="translate(-238,-250) scale(1,1)"><rect fill="#C0C0C0" stroke="none" x="583" y="455" width="117.97021484375" height="44" opacity="0.2"/></g><g transform="translate(-238,-250) scale(1,1)"><rect fill="#ffffff" stroke="none" x="576" y="448" width="117.97021484375" height="44"/></g><g transform="translate(-238,-250) scale(1,1)"><path fill="none" stroke="#000000" d="M 576 448 L 693.97021484375 448 L 693.97021484375 492 L 576 492 L 576 448 Z Z" stroke-miterlimit="10"/></g><g transform="translate(-238,-250) scale(1,1)"><path fill="none" stroke="#000000" d="M 576 473 L 693.97021484375 473" stroke-miterlimit="10"/></g><g transform="translate(-238,-250) scale(1,1)"><path fill="none" stroke="#000000" d="M 576 483 L 693.97021484375 483" stroke-miterlimit="10"/></g><g transform="translate(-238,-250) scale(1,1)"><g><path fill="none" stroke="none"/><text fill="#000000" stroke="none" font-family="Arial" font-size="13px" font-style="normal" font-weight="bold" text-decoration="none" x="587.485107421875" y="467.5">GeneralManager</text></g></g><g transform="translate(-238,-250) scale(1,1)"><rect fill="#C0C0C0" stroke="none" x="255" y="287" width="96.84521484375" height="100" opacity="0.2"/></g><g transform="translate(-238,-250) scale(1,1)"><rect fill="#ffffff" stroke="none" x="248" y="280" width="96.84521484375" height="100"/></g><g transform="translate(-238,-250) scale(1,1)"><path fill="none" stroke="#000000" d="M 248 280 L 344.84521484375 280 L 344.84521484375 380 L 248 380 L 248 280 Z Z" stroke-miterlimit="10"/></g><g transform="translate(-238,-250) scale(1,1)"><path fill="none" stroke="#000000" d="M 248 305 L 344.84521484375 305" stroke-miterlimit="10"/></g><g transform="translate(-238,-250) scale(1,1)"><path fill="none" stroke="#000000" d="M 248 343 L 344.84521484375 343" stroke-miterlimit="10"/></g><g transform="translate(-238,-250) scale(1,1)"><g><path fill="none" stroke="none"/><text fill="#000000" stroke="none" font-family="Arial" font-size="13px" font-style="normal" font-weight="bold" text-decoration="none" x="272.422607421875" y="299.5">Request</text></g></g><g transform="translate(-238,-250) scale(1,1)"><g><path fill="none" stroke="none"/><text fill="#000000" stroke="none" font-family="Arial" font-size="13px" font-style="normal" font-weight="normal" text-decoration="none" x="253" y="322.5">-type_: string</text></g></g><g transform="translate(-238,-250) scale(1,1)"><g><path fill="none" stroke="none"/><text fill="#000000" stroke="none" font-family="Arial" font-size="13px" font-style="normal" font-weight="normal" text-decoration="none" x="253" y="337.5">-number_: int</text></g></g><g transform="translate(-238,-250) scale(1,1)"><g><path fill="none" stroke="none"/><text fill="#000000" stroke="none" font-family="Arial" font-size="13px" font-style="normal" font-weight="normal" text-decoration="none" x="253" y="360.5">+GetType()</text></g></g><g transform="translate(-238,-250) scale(1,1)"><g><path fill="none" stroke="none"/><text fill="#000000" stroke="none" font-family="Arial" font-size="13px" font-style="normal" font-weight="normal" text-decoration="none" x="253" y="375.5">+GetNumber()</text></g></g><g transform="translate(-238,-250) scale(1,1)"><path fill="none" stroke="#000000" d="M 439 330 L 346 330" stroke-miterlimit="10" stroke-dasharray="3"/></g><g transform="translate(-238,-250) scale(1,1)"><path fill="none" stroke="#000000" d="M 356.16267485762415 325.790482243984 L 346 330 L 356.16267485762415 334.209517756016" stroke-miterlimit="10"/></g><g transform="translate(-238,-250) scale(1,1)"><path fill="none" stroke="#000000" d="M 405 447 L 468 381" stroke-miterlimit="10"/></g><g transform="translate(-238,-250) scale(1,1)"><path fill="#FFFFFF" stroke="none" d="M 460.0557949927509 401.5155942346986 L 468 381 L 447.875882964811 389.88931457166507"/></g><g transform="translate(-238,-250) scale(1,1)"><path fill="none" stroke="#000000" d="M 460.0557949927509 401.5155942346986 L 468 381 L 447.875882964811 389.88931457166507 L 460.0557949927509 401.5155942346986" stroke-miterlimit="10"/></g><g transform="translate(-238,-250) scale(1,1)"><path fill="none" stroke="#000000" d="M 514 447 L 515 381" stroke-miterlimit="10"/></g><g transform="translate(-238,-250) scale(1,1)"><path fill="#FFFFFF" stroke="none" d="M 523.1101448047532 401.45056359237896 L 515 381 L 506.274006192588 401.1954705831037"/></g><g transform="translate(-238,-250) scale(1,1)"><path fill="none" stroke="#000000" d="M 523.1101448047532 401.45056359237896 L 515 381 L 506.274006192588 401.1954705831037 L 523.1101448047532 401.45056359237896" stroke-miterlimit="10"/></g><g transform="translate(-238,-250) scale(1,1)"><path fill="none" stroke="#000000" d="M 615 447 L 559 381" stroke-miterlimit="10"/></g><g transform="translate(-238,-250) scale(1,1)"><path fill="#FFFFFF" stroke="none" d="M 578.5696343813966 391.05133872568524 L 559 381 L 565.7304514034919 401.9451909493619"/></g><g transform="translate(-238,-250) scale(1,1)"><path fill="none" stroke="#000000" d="M 578.5696343813966 391.05133872568524 L 559 381 L 565.7304514034919 401.9451909493619 L 578.5696343813966 391.05133872568524" stroke-miterlimit="10"/></g><g transform="translate(-238,-250) scale(1,1)"><path fill="none" stroke="#000000" d="M 512 280 L 512 260 L 614 260 L 614 330 L 593 330" stroke-miterlimit="10"/></g><g transform="translate(-238,-250) scale(1,1)"><path fill="#FFFFFF" stroke="none" d="M 603.1626748576241 325.790482243984 L 593 330 L 603.1626748576241 334.209517756016 L 615 330"/></g><g transform="translate(-238,-250) scale(1,1)"><path fill="none" stroke="#000000" d="M 603.1626748576241 325.790482243984 L 593 330 L 603.1626748576241 334.209517756016 L 615 330 L 603.1626748576241 325.790482243984" stroke-miterlimit="10"/></g></g></svg>