<svg version="1.1" xmlns="http://www.w3.org/2000/svg" xmlns:xlink="http://www.w3.org/1999/xlink" width="600" height="150"><defs/><g><g transform="translate(-158,-230) scale(1,1)"><rect fill="#C0C0C0" stroke="none" x="399" y="263" width="97" height="100" opacity="0.2"/></g><g transform="translate(-158,-230) scale(1,1)"><rect fill="#ffffff" stroke="none" x="392" y="256" width="97" height="100"/></g><g transform="translate(-158,-230) scale(1,1)"><path fill="none" stroke="#000000" d="M 392 256 L 489 256 L 489 356 L 392 356 L 392 256 Z Z" stroke-miterlimit="10"/></g><g transform="translate(-158,-230) scale(1,1)"><path fill="none" stroke="#000000" d="M 392 281 L 489 281" stroke-miterlimit="10"/></g><g transform="translate(-158,-230) scale(1,1)"><path fill="none" stroke="#000000" d="M 392 319 L 489 319" stroke-miterlimit="10"/></g><g transform="translate(-158,-230) scale(1,1)"><g><path fill="none" stroke="none"/><text fill="#000000" stroke="none" font-family="Arial" font-size="13px" font-style="normal" font-weight="bold" text-decoration="none" x="398" y="275.5">StateMemento</text></g></g><g transform="translate(-158,-230) scale(1,1)"><g><path fill="none" stroke="none"/><text fill="#000000" stroke="none" font-family="Arial" font-size="13px" font-style="normal" font-weight="normal" text-decoration="none" x="397" y="298.5">-hp_: int</text></g></g><g transform="translate(-158,-230) scale(1,1)"><g><path fill="none" stroke="none"/><text fill="#000000" stroke="none" font-family="Arial" font-size="13px" font-style="normal" font-weight="normal" text-decoration="none" x="397" y="313.5">-mp_: int</text></g></g><g transform="translate(-158,-230) scale(1,1)"><g><path fill="none" stroke="none"/><text fill="#000000" stroke="none" font-family="Arial" font-size="13px" font-style="normal" font-weight="normal" text-decoration="none" x="397" y="336.5">+GetHp()</text></g></g><g transform="translate(-158,-230) scale(1,1)"><g><path fill="none" stroke="none"/><text fill="#000000" stroke="none" font-family="Arial" font-size="13px" font-style="normal" font-weight="normal" text-decoration="none" x="397" y="351.5">+GetMp()</text></g></g><g transform="translate(-158,-230) scale(1,1)"><rect fill="#C0C0C0" stroke="none" x="175" y="247" width="117" height="130" opacity="0.2"/></g><g transform="translate(-158,-230) scale(1,1)"><rect fill="#ffffff" stroke="none" x="168" y="240" width="117" height="130"/></g><g transform="translate(-158,-230) scale(1,1)"><path fill="none" stroke="#000000" d="M 168 240 L 285 240 L 285 370 L 168 370 L 168 240 Z Z" stroke-miterlimit="10"/></g><g transform="translate(-158,-230) scale(1,1)"><path fill="none" stroke="#000000" d="M 168 265 L 285 265" stroke-miterlimit="10"/></g><g transform="translate(-158,-230) scale(1,1)"><path fill="none" stroke="#000000" d="M 168 303 L 285 303" stroke-miterlimit="10"/></g><g transform="translate(-158,-230) scale(1,1)"><g><path fill="none" stroke="none"/><text fill="#000000" stroke="none" font-family="Arial" font-size="13px" font-style="normal" font-weight="bold" text-decoration="none" x="196" y="259.5">GameRole</text></g></g><g transform="translate(-158,-230) scale(1,1)"><g><path fill="none" stroke="none"/><text fill="#000000" stroke="none" font-family="Arial" font-size="13px" font-style="normal" font-weight="normal" text-decoration="none" x="173" y="282.5">-hp_: int</text></g></g><g transform="translate(-158,-230) scale(1,1)"><g><path fill="none" stroke="none"/><text fill="#000000" stroke="none" font-family="Arial" font-size="13px" font-style="normal" font-weight="normal" text-decoration="none" x="173" y="297.5">-mp_: int</text></g></g><g transform="translate(-158,-230) scale(1,1)"><g><path fill="none" stroke="none"/><text fill="#000000" stroke="none" font-family="Arial" font-size="13px" font-style="normal" font-weight="normal" text-decoration="none" x="173" y="320.5">+CreateMemento()</text></g></g><g transform="translate(-158,-230) scale(1,1)"><g><path fill="none" stroke="none"/><text fill="#000000" stroke="none" font-family="Arial" font-size="13px" font-style="normal" font-weight="normal" text-decoration="none" x="173" y="335.5">+StateDisplay()</text></g></g><g transform="translate(-158,-230) scale(1,1)"><g><path fill="none" stroke="none"/><text fill="#000000" stroke="none" font-family="Arial" font-size="13px" font-style="normal" font-weight="normal" text-decoration="none" x="173" y="350.5">+Fight()</text></g></g><g transform="translate(-158,-230) scale(1,1)"><g><path fill="none" stroke="none"/><text fill="#000000" stroke="none" font-family="Arial" font-size="13px" font-style="normal" font-weight="normal" text-decoration="none" x="173" y="365.5">+RecoveryState()</text></g></g><g transform="translate(-158,-230) scale(1,1)"><rect fill="#C0C0C0" stroke="none" x="583" y="263" width="172" height="100" opacity="0.2"/></g><g transform="translate(-158,-230) scale(1,1)"><rect fill="#ffffff" stroke="none" x="576" y="256" width="172" height="100"/></g><g transform="translate(-158,-230) scale(1,1)"><path fill="none" stroke="#000000" d="M 576 256 L 748 256 L 748 356 L 576 356 L 576 256 Z Z" stroke-miterlimit="10"/></g><g transform="translate(-158,-230) scale(1,1)"><path fill="none" stroke="#000000" d="M 576 281 L 748 281" stroke-miterlimit="10"/></g><g transform="translate(-158,-230) scale(1,1)"><path fill="none" stroke="#000000" d="M 576 304 L 748 304" stroke-miterlimit="10"/></g><g transform="translate(-158,-230) scale(1,1)"><g><path fill="none" stroke="none"/><text fill="#000000" stroke="none" font-family="Arial" font-size="13px" font-style="normal" font-weight="bold" text-decoration="none" x="618.5" y="275.5">StateCaretaker</text></g></g><g transform="translate(-158,-230) scale(1,1)"><g><path fill="none" stroke="none"/><text fill="#000000" stroke="none" font-family="Arial" font-size="13px" font-style="normal" font-weight="normal" text-decoration="none" x="581" y="298.5">-*memento_: StateMemento</text></g></g><g transform="translate(-158,-230) scale(1,1)"><g><path fill="none" stroke="none"/><text fill="#000000" stroke="none" font-family="Arial" font-size="13px" font-style="normal" font-weight="normal" text-decoration="none" x="581" y="321.5">+StateCaretaker()</text></g></g><g transform="translate(-158,-230) scale(1,1)"><g><path fill="none" stroke="none"/><text fill="#000000" stroke="none" font-family="Arial" font-size="13px" font-style="normal" font-weight="normal" text-decoration="none" x="581" y="336.5">+~StateCaretaker()</text></g></g><g transform="translate(-158,-230) scale(1,1)"><g><path fill="none" stroke="none"/><text fill="#000000" stroke="none" font-family="Arial" font-size="13px" font-style="normal" font-weight="normal" text-decoration="none" x="581" y="351.5">+GetMemento()</text></g></g><g transform="translate(-158,-230) scale(1,1)"><path fill="none" stroke="#000000" d="M 286 305 L 391 306" stroke-miterlimit="10" stroke-dasharray="3"/></g><g transform="translate(-158,-230) scale(1,1)"><path fill="none" stroke="#000000" d="M 380.79769717605956 310.1125438707225 L 391 306 L 380.877874830558 301.6938901483881" stroke-miterlimit="10"/></g><g transform="translate(-158,-230) scale(1,1)"><path fill="none" stroke="#000000" d="M 490 306 L 575 306" stroke-miterlimit="10"/></g><g transform="translate(-158,-230) scale(1,1)"><path fill="#FFFFFF" stroke="none" d="M 564.8373251423759 310.209517756016 L 575 306 L 564.8373251423758 301.790482243984 L 553 306"/></g><g transform="translate(-158,-230) scale(1,1)"><path fill="none" stroke="#000000" d="M 564.8373251423759 310.209517756016 L 575 306 L 564.8373251423758 301.790482243984 L 553 306 L 564.8373251423759 310.209517756016" stroke-miterlimit="10"/></g></g></svg>