<svg version="1.1" xmlns="http://www.w3.org/2000/svg" xmlns:xlink="http://www.w3.org/1999/xlink" width="485" height="220"><defs/><g><g transform="translate(-174,-246) scale(1,1)"><rect fill="#C0C0C0" stroke="none" x="239" y="279" width="96" height="57" opacity="0.2"/></g><g transform="translate(-174,-246) scale(1,1)"><rect fill="#ffffff" stroke="none" x="232" y="272" width="96" height="57"/></g><g transform="translate(-174,-246) scale(1,1)"><path fill="none" stroke="#000000" d="M 232 272 L 328 272 L 328 329 L 232 329 L 232 272 Z Z" stroke-miterlimit="10"/></g><g transform="translate(-174,-246) scale(1,1)"><path fill="none" stroke="#000000" d="M 232 297 L 328 297" stroke-miterlimit="10"/></g><g transform="translate(-174,-246) scale(1,1)"><path fill="none" stroke="#000000" d="M 232 307 L 328 307" stroke-miterlimit="10"/></g><g transform="translate(-174,-246) scale(1,1)"><g><path fill="none" stroke="none"/><text fill="#000000" stroke="none" font-family="Arial" font-size="13px" font-style="italic" font-weight="bold" text-decoration="none" x="239.5" y="291.5">UnitedNations</text></g></g><g transform="translate(-174,-246) scale(1,1)"><g><path fill="none" stroke="none"/><text fill="#000000" stroke="none" font-family="Arial" font-size="13px" font-style="italic" font-weight="normal" text-decoration="none" x="237" y="324.5">+Declare()</text></g></g><g transform="translate(-174,-246) scale(1,1)"><rect fill="#C0C0C0" stroke="none" x="191" y="391" width="195" height="72" opacity="0.2"/></g><g transform="translate(-174,-246) scale(1,1)"><rect fill="#ffffff" stroke="none" x="184" y="384" width="195" height="72"/></g><g transform="translate(-174,-246) scale(1,1)"><path fill="none" stroke="#000000" d="M 184 384 L 379 384 L 379 456 L 184 456 L 184 384 Z Z" stroke-miterlimit="10"/></g><g transform="translate(-174,-246) scale(1,1)"><path fill="none" stroke="#000000" d="M 184 409 L 379 409" stroke-miterlimit="10"/></g><g transform="translate(-174,-246) scale(1,1)"><path fill="none" stroke="#000000" d="M 184 447 L 379 447" stroke-miterlimit="10"/></g><g transform="translate(-174,-246) scale(1,1)"><g><path fill="none" stroke="none"/><text fill="#000000" stroke="none" font-family="Arial" font-size="13px" font-style="normal" font-weight="bold" text-decoration="none" x="195.5" y="403.5">UnitedNationsSecurityCouncil</text></g></g><g transform="translate(-174,-246) scale(1,1)"><g><path fill="none" stroke="none"/><text fill="#000000" stroke="none" font-family="Arial" font-size="13px" font-style="normal" font-weight="normal" text-decoration="none" x="189" y="426.5">-*usa_: Usa</text></g></g><g transform="translate(-174,-246) scale(1,1)"><g><path fill="none" stroke="none"/><text fill="#000000" stroke="none" font-family="Arial" font-size="13px" font-style="normal" font-weight="normal" text-decoration="none" x="189" y="441.5">-*iraq_: Iraq</text></g></g><g transform="translate(-174,-246) scale(1,1)"><rect fill="#C0C0C0" stroke="none" x="455" y="263" width="201" height="85" opacity="0.2"/></g><g transform="translate(-174,-246) scale(1,1)"><rect fill="#ffffff" stroke="none" x="448" y="256" width="201" height="85"/></g><g transform="translate(-174,-246) scale(1,1)"><path fill="none" stroke="#000000" d="M 448 256 L 649 256 L 649 341 L 448 341 L 448 256 Z Z" stroke-miterlimit="10"/></g><g transform="translate(-174,-246) scale(1,1)"><path fill="none" stroke="#000000" d="M 448 281 L 649 281" stroke-miterlimit="10"/></g><g transform="translate(-174,-246) scale(1,1)"><path fill="none" stroke="#000000" d="M 448 304 L 649 304" stroke-miterlimit="10"/></g><g transform="translate(-174,-246) scale(1,1)"><g><path fill="none" stroke="none"/><text fill="#000000" stroke="none" font-family="Arial" font-size="13px" font-style="italic" font-weight="bold" text-decoration="none" x="526" y="275.5">Country</text></g></g><g transform="translate(-174,-246) scale(1,1)"><g><path fill="none" stroke="none"/><text fill="#000000" stroke="none" font-family="Arial" font-size="13px" font-style="normal" font-weight="normal" text-decoration="none" x="453" y="298.5">#*mediator_: UnitedNations</text></g></g><g transform="translate(-174,-246) scale(1,1)"><g><path fill="none" stroke="none"/><text fill="#000000" stroke="none" font-family="Arial" font-size="13px" font-style="italic" font-weight="normal" text-decoration="none" x="453" y="321.5">+Declare()</text></g></g><g transform="translate(-174,-246) scale(1,1)"><g><path fill="none" stroke="none"/><text fill="#000000" stroke="none" font-family="Arial" font-size="13px" font-style="italic" font-weight="normal" text-decoration="none" x="453" y="336.5">+GetMessage()</text></g></g><g transform="translate(-174,-246) scale(1,1)"><rect fill="#C0C0C0" stroke="none" x="495" y="375" width="50" height="44" opacity="0.2"/></g><g transform="translate(-174,-246) scale(1,1)"><rect fill="#ffffff" stroke="none" x="488" y="368" width="50" height="44"/></g><g transform="translate(-174,-246) scale(1,1)"><path fill="none" stroke="#000000" d="M 488 368 L 538 368 L 538 412 L 488 412 L 488 368 Z Z" stroke-miterlimit="10"/></g><g transform="translate(-174,-246) scale(1,1)"><path fill="none" stroke="#000000" d="M 488 393 L 538 393" stroke-miterlimit="10"/></g><g transform="translate(-174,-246) scale(1,1)"><path fill="none" stroke="#000000" d="M 488 403 L 538 403" stroke-miterlimit="10"/></g><g transform="translate(-174,-246) scale(1,1)"><g><path fill="none" stroke="none"/><text fill="#000000" stroke="none" font-family="Arial" font-size="13px" font-style="normal" font-weight="bold" text-decoration="none" x="501.5" y="387.5">Usa</text></g></g><g transform="translate(-174,-246) scale(1,1)"><rect fill="#C0C0C0" stroke="none" x="591" y="375" width="50" height="44" opacity="0.2"/></g><g transform="translate(-174,-246) scale(1,1)"><rect fill="#ffffff" stroke="none" x="584" y="368" width="50" height="44"/></g><g transform="translate(-174,-246) scale(1,1)"><path fill="none" stroke="#000000" d="M 584 368 L 634 368 L 634 412 L 584 412 L 584 368 Z Z" stroke-miterlimit="10"/></g><g transform="translate(-174,-246) scale(1,1)"><path fill="none" stroke="#000000" d="M 584 393 L 634 393" stroke-miterlimit="10"/></g><g transform="translate(-174,-246) scale(1,1)"><path fill="none" stroke="#000000" d="M 584 403 L 634 403" stroke-miterlimit="10"/></g><g transform="translate(-174,-246) scale(1,1)"><g><path fill="none" stroke="none"/><text fill="#000000" stroke="none" font-family="Arial" font-size="13px" font-style="normal" font-weight="bold" text-decoration="none" x="598" y="387.5">Iraq</text></g></g><g transform="translate(-174,-246) scale(1,1)"><path fill="none" stroke="#000000" d="M 522 367 L 531 342" stroke-miterlimit="10"/></g><g transform="translate(-174,-246) scale(1,1)"><path fill="#FFFFFF" stroke="none" d="M 532.0367728853403 363.9755569209116 L 531 342 L 516.194043818647 358.27217445690195"/></g><g transform="translate(-174,-246) scale(1,1)"><path fill="none" stroke="#000000" d="M 532.0367728853403 363.9755569209116 L 531 342 L 516.194043818647 358.27217445690195 L 532.0367728853403 363.9755569209116" stroke-miterlimit="10"/></g><g transform="translate(-174,-246) scale(1,1)"><path fill="none" stroke="#000000" d="M 594 367 L 577 342" stroke-miterlimit="10"/></g><g transform="translate(-174,-246) scale(1,1)"><path fill="#FFFFFF" stroke="none" d="M 595.3910714202555 354.0734623043708 L 577 342 L 581.4672242467279 363.5416783823695"/></g><g transform="translate(-174,-246) scale(1,1)"><path fill="none" stroke="#000000" d="M 595.3910714202555 354.0734623043708 L 577 342 L 581.4672242467279 363.5416783823695 L 595.3910714202555 354.0734623043708" stroke-miterlimit="10"/></g><g transform="translate(-174,-246) scale(1,1)"><path fill="none" stroke="#000000" d="M 281 383 L 280 330" stroke-miterlimit="10"/></g><g transform="translate(-174,-246) scale(1,1)"><path fill="#FFFFFF" stroke="none" d="M 288.80096625014335 350.1629113241079 L 280 330 L 271.96589159073056 350.48055424221"/></g><g transform="translate(-174,-246) scale(1,1)"><path fill="none" stroke="#000000" d="M 288.80096625014335 350.1629113241079 L 280 330 L 271.96589159073056 350.48055424221 L 288.80096625014335 350.1629113241079" stroke-miterlimit="10"/></g><g transform="translate(-174,-246) scale(1,1)"><path fill="none" stroke="#000000" d="M 329 300 L 447 299" stroke-miterlimit="10" stroke-dasharray="3"/></g><g transform="translate(-174,-246) scale(1,1)"><path fill="none" stroke="#000000" d="M 436.8733626547987 303.29548787436005 L 447 299 L 436.8020174581266 294.8767546670558" stroke-miterlimit="10"/></g><g transform="translate(-174,-246) scale(1,1)"><path fill="none" stroke="#000000" d="M 447 307 L 386 312 L 329 306" stroke-miterlimit="10"/></g><g transform="translate(-174,-246) scale(1,1)"><path fill="none" stroke="#000000" d="M 339.5475080213879 302.87748906506994 L 329 306 L 338.6661631029611 311.2502657901247" stroke-miterlimit="10"/></g><g transform="translate(-174,-246) scale(1,1)"><path fill="none" stroke="#000000" d="M 380 407 L 487 393" stroke-miterlimit="10"/></g><g transform="translate(-174,-246) scale(1,1)"><path fill="none" stroke="#000000" d="M 477.4693365902147 398.4923997459562 L 487 393 L 476.3770901683814 390.14451637908724" stroke-miterlimit="10"/></g><g transform="translate(-174,-246) scale(1,1)"><path fill="none" stroke="#000000" d="M 380 411 L 583 392" stroke-miterlimit="10"/></g><g transform="translate(-174,-246) scale(1,1)"><path fill="none" stroke="#000000" d="M 573.273828234734 397.13824705444785 L 583 392 L 572.4892686541833 388.75584732540716" stroke-miterlimit="10"/></g></g></svg>