<svg version="1.1" xmlns="http://www.w3.org/2000/svg" xmlns:xlink="http://www.w3.org/1999/xlink" width="599.18798828125" height="253"><defs/><g><g transform="translate(-102,-150) scale(1,1)"><rect fill="#C0C0C0" stroke="none" x="175" y="167" width="88" height="87" opacity="0.2"/></g><g transform="translate(-102,-150) scale(1,1)"><rect fill="#ffffff" stroke="none" x="168" y="160" width="88" height="87"/></g><g transform="translate(-102,-150) scale(1,1)"><path fill="none" stroke="#000000" d="M 168 160 L 256 160 L 256 247 L 168 247 L 168 160 Z Z" stroke-miterlimit="10"/></g><g transform="translate(-102,-150) scale(1,1)"><path fill="none" stroke="#000000" d="M 168 185 L 256 185" stroke-miterlimit="10"/></g><g transform="translate(-102,-150) scale(1,1)"><path fill="none" stroke="#000000" d="M 168 195 L 256 195" stroke-miterlimit="10"/></g><g transform="translate(-102,-150) scale(1,1)"><g><path fill="none" stroke="none"/><text fill="#000000" stroke="none" font-family="Arial" font-size="13px" font-style="italic" font-weight="bold" text-decoration="none" x="189" y="179.5">LeiFeng</text></g></g><g transform="translate(-102,-150) scale(1,1)"><g><path fill="none" stroke="none"/><text fill="#000000" stroke="none" font-family="Arial" font-size="13px" font-style="italic" font-weight="normal" text-decoration="none" x="173" y="212.5">+Wash()</text></g></g><g transform="translate(-102,-150) scale(1,1)"><g><path fill="none" stroke="none"/><text fill="#000000" stroke="none" font-family="Arial" font-size="13px" font-style="italic" font-weight="normal" text-decoration="none" x="173" y="227.5">+Sweep()</text></g></g><g transform="translate(-102,-150) scale(1,1)"><g><path fill="none" stroke="none"/><text fill="#000000" stroke="none" font-family="Arial" font-size="13px" font-style="italic" font-weight="normal" text-decoration="none" x="173" y="242.5">+BuyRice()</text></g></g><g transform="translate(-102,-150) scale(1,1)"><rect fill="#C0C0C0" stroke="none" x="119" y="295" width="109.05810546875" height="44" opacity="0.2"/></g><g transform="translate(-102,-150) scale(1,1)"><rect fill="#ffffff" stroke="none" x="112" y="288" width="109.05810546875" height="44"/></g><g transform="translate(-102,-150) scale(1,1)"><path fill="none" stroke="#000000" d="M 112 288 L 221.05810546875 288 L 221.05810546875 332 L 112 332 L 112 288 Z Z" stroke-miterlimit="10"/></g><g transform="translate(-102,-150) scale(1,1)"><path fill="none" stroke="#000000" d="M 112 313 L 221.05810546875 313" stroke-miterlimit="10"/></g><g transform="translate(-102,-150) scale(1,1)"><path fill="none" stroke="#000000" d="M 112 323 L 221.05810546875 323" stroke-miterlimit="10"/></g><g transform="translate(-102,-150) scale(1,1)"><g><path fill="none" stroke="none"/><text fill="#000000" stroke="none" font-family="Arial" font-size="13px" font-style="normal" font-weight="bold" text-decoration="none" x="124.529052734375" y="307.5">Undergraduate</text></g></g><g transform="translate(-102,-150) scale(1,1)"><rect fill="#C0C0C0" stroke="none" x="247" y="295" width="74.1015625" height="44" opacity="0.2"/></g><g transform="translate(-102,-150) scale(1,1)"><rect fill="#ffffff" stroke="none" x="240" y="288" width="74.1015625" height="44"/></g><g transform="translate(-102,-150) scale(1,1)"><path fill="none" stroke="#000000" d="M 240 288 L 314.1015625 288 L 314.1015625 332 L 240 332 L 240 288 Z Z" stroke-miterlimit="10"/></g><g transform="translate(-102,-150) scale(1,1)"><path fill="none" stroke="#000000" d="M 240 313 L 314.1015625 313" stroke-miterlimit="10"/></g><g transform="translate(-102,-150) scale(1,1)"><path fill="none" stroke="#000000" d="M 240 323 L 314.1015625 323" stroke-miterlimit="10"/></g><g transform="translate(-102,-150) scale(1,1)"><g><path fill="none" stroke="none"/><text fill="#000000" stroke="none" font-family="Arial" font-size="13px" font-style="normal" font-weight="bold" text-decoration="none" x="249.55078125" y="307.5">Volunteer</text></g></g><g transform="translate(-102,-150) scale(1,1)"><path fill="#C0C0C0" stroke="none" d="M 524.47607421875 186.5 C 524.47607421875 180.1487248 529.62479901875 175 535.97607421875 175 C 542.32734941875 175 547.47607421875 180.1487248 547.47607421875 186.5 C 547.47607421875 192.8512752 542.32734941875 198 535.97607421875 198 C 529.62479901875 198 524.47607421875 192.8512752 524.47607421875 186.5 Z" opacity="0.2"/></g><g transform="translate(-102,-150) scale(1,1)"><path fill="#ffffff" stroke="none" d="M 517.47607421875 179.5 C 517.47607421875 173.1487248 522.62479901875 168 528.97607421875 168 C 535.32734941875 168 540.47607421875 173.1487248 540.47607421875 179.5 C 540.47607421875 185.8512752 535.32734941875 191 528.97607421875 191 C 522.62479901875 191 517.47607421875 185.8512752 517.47607421875 179.5 Z"/></g><g transform="translate(-102,-150) scale(1,1)"><path fill="none" stroke="#000000" d="M 517.47607421875 179.5 C 517.47607421875 173.1487248 522.62479901875 168 528.97607421875 168 C 535.32734941875 168 540.47607421875 173.1487248 540.47607421875 179.5 C 540.47607421875 185.8512752 535.32734941875 191 528.97607421875 191 C 522.62479901875 191 517.47607421875 185.8512752 517.47607421875 179.5 Z" stroke-miterlimit="10"/></g><g transform="translate(-102,-150) scale(1,1)"><path fill="none" stroke="#000000" d="M 472 216 L 585.9521484375 216" stroke-miterlimit="10"/></g><g transform="translate(-102,-150) scale(1,1)"><g><path fill="none" stroke="none"/><text fill="#000000" stroke="none" font-family="Arial" font-size="13px" font-style="italic" font-weight="bold" text-decoration="none" x="504.97607421875" y="210.5">IFactory</text></g></g><g transform="translate(-102,-150) scale(1,1)"><g><path fill="none" stroke="none"/><text fill="#000000" stroke="none" font-family="Arial" font-size="13px" font-style="italic" font-weight="normal" text-decoration="none" x="477" y="233.5">+CreateLeiFeng()</text></g></g><g transform="translate(-102,-150) scale(1,1)"><rect fill="#C0C0C0" stroke="none" x="399" y="295" width="158.14453125" height="44" opacity="0.2"/></g><g transform="translate(-102,-150) scale(1,1)"><rect fill="#ffffff" stroke="none" x="392" y="288" width="158.14453125" height="44"/></g><g transform="translate(-102,-150) scale(1,1)"><path fill="none" stroke="#000000" d="M 392 288 L 550.14453125 288 L 550.14453125 332 L 392 332 L 392 288 Z Z" stroke-miterlimit="10"/></g><g transform="translate(-102,-150) scale(1,1)"><path fill="none" stroke="#000000" d="M 392 313 L 550.14453125 313" stroke-miterlimit="10"/></g><g transform="translate(-102,-150) scale(1,1)"><path fill="none" stroke="#000000" d="M 392 323 L 550.14453125 323" stroke-miterlimit="10"/></g><g transform="translate(-102,-150) scale(1,1)"><g><path fill="none" stroke="none"/><text fill="#000000" stroke="none" font-family="Arial" font-size="13px" font-style="normal" font-weight="bold" text-decoration="none" x="407.072265625" y="307.5">UndergraduateFactory</text></g></g><g transform="translate(-102,-150) scale(1,1)"><rect fill="#C0C0C0" stroke="none" x="575" y="295" width="123.18798828125" height="44" opacity="0.2"/></g><g transform="translate(-102,-150) scale(1,1)"><rect fill="#ffffff" stroke="none" x="568" y="288" width="123.18798828125" height="44"/></g><g transform="translate(-102,-150) scale(1,1)"><path fill="none" stroke="#000000" d="M 568 288 L 691.18798828125 288 L 691.18798828125 332 L 568 332 L 568 288 Z Z" stroke-miterlimit="10"/></g><g transform="translate(-102,-150) scale(1,1)"><path fill="none" stroke="#000000" d="M 568 313 L 691.18798828125 313" stroke-miterlimit="10"/></g><g transform="translate(-102,-150) scale(1,1)"><path fill="none" stroke="#000000" d="M 568 323 L 691.18798828125 323" stroke-miterlimit="10"/></g><g transform="translate(-102,-150) scale(1,1)"><g><path fill="none" stroke="none"/><text fill="#000000" stroke="none" font-family="Arial" font-size="13px" font-style="normal" font-weight="bold" text-decoration="none" x="580.093994140625" y="307.5">VolunteerFactory</text></g></g><g transform="translate(-102,-150) scale(1,1)"><path fill="none" stroke="#000000" d="M 422 333 L 296 392 L 202 333" stroke-miterlimit="10" stroke-dasharray="3"/></g><g transform="translate(-102,-150) scale(1,1)"><path fill="none" stroke="#000000" d="M 212.84548120865105 334.8372635501738 L 202 333 L 208.36977179271366 341.9680548230232" stroke-miterlimit="10"/></g><g transform="translate(-102,-150) scale(1,1)"><path fill="none" stroke="#000000" d="M 596 333 L 513 392 L 315 323" stroke-miterlimit="10" stroke-dasharray="3"/></g><g transform="translate(-102,-150) scale(1,1)"><path fill="none" stroke="#000000" d="M 325.9818997567579 322.36922449911214 L 315 323 L 323.2114014223986 330.3193501542303" stroke-miterlimit="10"/></g><g transform="translate(-102,-150) scale(1,1)"><path fill="none" stroke="#000000" d="M 483 287 L 524.0655737704918 191" stroke-miterlimit="10"/></g><g transform="translate(-102,-150) scale(1,1)"><path fill="none" stroke="#000000" d="M 607 287 L 534.8852459016393 191" stroke-miterlimit="10"/></g><g transform="translate(-102,-150) scale(1,1)"><path fill="none" stroke="#000000" d="M 471 203 L 257 203" stroke-miterlimit="10" stroke-dasharray="3"/></g><g transform="translate(-102,-150) scale(1,1)"><path fill="none" stroke="#000000" d="M 267.16267485762415 198.790482243984 L 257 203 L 267.16267485762415 207.209517756016" stroke-miterlimit="10"/></g><g transform="translate(-102,-150) scale(1,1)"><path fill="none" stroke="#000000" d="M 176 287 L 193 248" stroke-miterlimit="10"/></g><g transform="translate(-102,-150) scale(1,1)"><path fill="#FFFFFF" stroke="none" d="M 192.5959824675565 269.99628991065265 L 193 248 L 177.16059070632323 263.26804221985867"/></g><g transform="translate(-102,-150) scale(1,1)"><path fill="none" stroke="#000000" d="M 192.5959824675565 269.99628991065265 L 193 248 L 177.16059070632323 263.26804221985867 L 192.5959824675565 269.99628991065265" stroke-miterlimit="10"/></g><g transform="translate(-102,-150) scale(1,1)"><path fill="none" stroke="#000000" d="M 263 287 L 239 248" stroke-miterlimit="10"/></g><g transform="translate(-102,-150) scale(1,1)"><path fill="#FFFFFF" stroke="none" d="M 256.8226050739419 260.897858286487 L 239 248 L 242.48232184903603 269.72264796335213"/></g><g transform="translate(-102,-150) scale(1,1)"><path fill="none" stroke="#000000" d="M 256.8226050739419 260.897858286487 L 239 248 L 242.48232184903603 269.72264796335213 L 256.8226050739419 260.897858286487" stroke-miterlimit="10"/></g></g></svg>