<svg version="1.1" xmlns="http://www.w3.org/2000/svg" xmlns:xlink="http://www.w3.org/1999/xlink" width="631" height="248"><defs/><g><g transform="translate(-118,-270) scale(1,1)"><rect fill="#C0C0C0" stroke="none" x="215" y="311" width="95" height="100" opacity="0.2"/></g><g transform="translate(-118,-270) scale(1,1)"><rect fill="#ffffff" stroke="none" x="208" y="304" width="95" height="100"/></g><g transform="translate(-118,-270) scale(1,1)"><path fill="none" stroke="#000000" d="M 208 304 L 303 304 L 303 404 L 208 404 L 208 304 Z Z" stroke-miterlimit="10"/></g><g transform="translate(-118,-270) scale(1,1)"><path fill="none" stroke="#000000" d="M 208 329 L 303 329" stroke-miterlimit="10"/></g><g transform="translate(-118,-270) scale(1,1)"><path fill="none" stroke="#000000" d="M 208 367 L 303 367" stroke-miterlimit="10"/></g><g transform="translate(-118,-270) scale(1,1)"><g><path fill="none" stroke="none"/><text fill="#000000" stroke="none" font-family="Arial" font-size="13px" font-style="italic" font-weight="bold" text-decoration="none" x="229" y="323.5">Observer</text></g></g><g transform="translate(-118,-270) scale(1,1)"><g><path fill="none" stroke="none"/><text fill="#000000" stroke="none" font-family="Arial" font-size="13px" font-style="normal" font-weight="normal" text-decoration="none" x="213" y="346.5">#name_: string</text></g></g><g transform="translate(-118,-270) scale(1,1)"><g><path fill="none" stroke="none"/><text fill="#000000" stroke="none" font-family="Arial" font-size="13px" font-style="normal" font-weight="normal" text-decoration="none" x="213" y="361.5">#*notifier_</text></g></g><g transform="translate(-118,-270) scale(1,1)"><g><path fill="none" stroke="none"/><text fill="#000000" stroke="none" font-family="Arial" font-size="13px" font-style="normal" font-weight="normal" text-decoration="none" x="213" y="384.5">+SetNotifier()</text></g></g><g transform="translate(-118,-270) scale(1,1)"><g><path fill="none" stroke="none"/><text fill="#000000" stroke="none" font-family="Arial" font-size="13px" font-style="italic" font-weight="normal" text-decoration="none" x="213" y="399.5">+Update()</text></g></g><g transform="translate(-118,-270) scale(1,1)"><rect fill="#C0C0C0" stroke="none" x="135" y="471" width="100" height="44" opacity="0.2"/></g><g transform="translate(-118,-270) scale(1,1)"><rect fill="#ffffff" stroke="none" x="128" y="464" width="100" height="44"/></g><g transform="translate(-118,-270) scale(1,1)"><path fill="none" stroke="#000000" d="M 128 464 L 228 464 L 228 508 L 128 508 L 128 464 Z Z" stroke-miterlimit="10"/></g><g transform="translate(-118,-270) scale(1,1)"><path fill="none" stroke="#000000" d="M 128 489 L 228 489" stroke-miterlimit="10"/></g><g transform="translate(-118,-270) scale(1,1)"><path fill="none" stroke="#000000" d="M 128 499 L 228 499" stroke-miterlimit="10"/></g><g transform="translate(-118,-270) scale(1,1)"><g><path fill="none" stroke="none"/><text fill="#000000" stroke="none" font-family="Arial" font-size="13px" font-style="normal" font-weight="bold" text-decoration="none" x="134.5" y="483.5">StockObserver</text></g></g><g transform="translate(-118,-270) scale(1,1)"><rect fill="#C0C0C0" stroke="none" x="295" y="471" width="89" height="44" opacity="0.2"/></g><g transform="translate(-118,-270) scale(1,1)"><rect fill="#ffffff" stroke="none" x="288" y="464" width="89" height="44"/></g><g transform="translate(-118,-270) scale(1,1)"><path fill="none" stroke="#000000" d="M 288 464 L 377 464 L 377 508 L 288 508 L 288 464 Z Z" stroke-miterlimit="10"/></g><g transform="translate(-118,-270) scale(1,1)"><path fill="none" stroke="#000000" d="M 288 489 L 377 489" stroke-miterlimit="10"/></g><g transform="translate(-118,-270) scale(1,1)"><path fill="none" stroke="#000000" d="M 288 499 L 377 499" stroke-miterlimit="10"/></g><g transform="translate(-118,-270) scale(1,1)"><g><path fill="none" stroke="none"/><text fill="#000000" stroke="none" font-family="Arial" font-size="13px" font-style="normal" font-weight="bold" text-decoration="none" x="294.5" y="483.5">NbaObserver</text></g></g><g transform="translate(-118,-270) scale(1,1)"><rect fill="#C0C0C0" stroke="none" x="503" y="287" width="199" height="145" opacity="0.2"/></g><g transform="translate(-118,-270) scale(1,1)"><rect fill="#ffffff" stroke="none" x="496" y="280" width="199" height="145"/></g><g transform="translate(-118,-270) scale(1,1)"><path fill="none" stroke="#000000" d="M 496 280 L 695 280 L 695 425 L 496 425 L 496 280 Z Z" stroke-miterlimit="10"/></g><g transform="translate(-118,-270) scale(1,1)"><path fill="none" stroke="#000000" d="M 496 305 L 695 305" stroke-miterlimit="10"/></g><g transform="translate(-118,-270) scale(1,1)"><path fill="none" stroke="#000000" d="M 496 343 L 695 343" stroke-miterlimit="10"/></g><g transform="translate(-118,-270) scale(1,1)"><g><path fill="none" stroke="none"/><text fill="#000000" stroke="none" font-family="Arial" font-size="13px" font-style="normal" font-weight="bold" text-decoration="none" x="575" y="299.5">Notifier</text></g></g><g transform="translate(-118,-270) scale(1,1)"><g><path fill="none" stroke="none"/><text fill="#000000" stroke="none" font-family="Arial" font-size="13px" font-style="normal" font-weight="normal" text-decoration="none" x="501" y="322.5">#observers_: vector&lt;Observer*&gt;</text></g></g><g transform="translate(-118,-270) scale(1,1)"><g><path fill="none" stroke="none"/><text fill="#000000" stroke="none" font-family="Arial" font-size="13px" font-style="normal" font-weight="normal" text-decoration="none" x="501" y="337.5">#state_: string</text></g></g><g transform="translate(-118,-270) scale(1,1)"><g><path fill="none" stroke="none"/><text fill="#000000" stroke="none" font-family="Arial" font-size="13px" font-style="normal" font-weight="normal" text-decoration="none" x="501" y="360.5">+Attach()</text></g></g><g transform="translate(-118,-270) scale(1,1)"><g><path fill="none" stroke="none"/><text fill="#000000" stroke="none" font-family="Arial" font-size="13px" font-style="normal" font-weight="normal" text-decoration="none" x="501" y="375.5">+Detach()</text></g></g><g transform="translate(-118,-270) scale(1,1)"><g><path fill="none" stroke="none"/><text fill="#000000" stroke="none" font-family="Arial" font-size="13px" font-style="normal" font-weight="normal" text-decoration="none" x="501" y="390.5">+SetState()</text></g></g><g transform="translate(-118,-270) scale(1,1)"><g><path fill="none" stroke="none"/><text fill="#000000" stroke="none" font-family="Arial" font-size="13px" font-style="normal" font-weight="normal" text-decoration="none" x="501" y="405.5">+GetState()</text></g></g><g transform="translate(-118,-270) scale(1,1)"><g><path fill="none" stroke="none"/><text fill="#000000" stroke="none" font-family="Arial" font-size="13px" font-style="normal" font-weight="normal" text-decoration="none" x="501" y="420.5">+Notify()</text></g></g><g transform="translate(-118,-270) scale(1,1)"><rect fill="#C0C0C0" stroke="none" x="471" y="471" width="50" height="44" opacity="0.2"/></g><g transform="translate(-118,-270) scale(1,1)"><rect fill="#ffffff" stroke="none" x="464" y="464" width="50" height="44"/></g><g transform="translate(-118,-270) scale(1,1)"><path fill="none" stroke="#000000" d="M 464 464 L 514 464 L 514 508 L 464 508 L 464 464 Z Z" stroke-miterlimit="10"/></g><g transform="translate(-118,-270) scale(1,1)"><path fill="none" stroke="#000000" d="M 464 489 L 514 489" stroke-miterlimit="10"/></g><g transform="translate(-118,-270) scale(1,1)"><path fill="none" stroke="#000000" d="M 464 499 L 514 499" stroke-miterlimit="10"/></g><g transform="translate(-118,-270) scale(1,1)"><g><path fill="none" stroke="none"/><text fill="#000000" stroke="none" font-family="Arial" font-size="13px" font-style="normal" font-weight="bold" text-decoration="none" x="474" y="483.5">Boss</text></g></g><g transform="translate(-118,-270) scale(1,1)"><rect fill="#C0C0C0" stroke="none" x="679" y="471" width="67" height="44" opacity="0.2"/></g><g transform="translate(-118,-270) scale(1,1)"><rect fill="#ffffff" stroke="none" x="672" y="464" width="67" height="44"/></g><g transform="translate(-118,-270) scale(1,1)"><path fill="none" stroke="#000000" d="M 672 464 L 739 464 L 739 508 L 672 508 L 672 464 Z Z" stroke-miterlimit="10"/></g><g transform="translate(-118,-270) scale(1,1)"><path fill="none" stroke="#000000" d="M 672 489 L 739 489" stroke-miterlimit="10"/></g><g transform="translate(-118,-270) scale(1,1)"><path fill="none" stroke="#000000" d="M 672 499 L 739 499" stroke-miterlimit="10"/></g><g transform="translate(-118,-270) scale(1,1)"><g><path fill="none" stroke="none"/><text fill="#000000" stroke="none" font-family="Arial" font-size="13px" font-style="normal" font-weight="bold" text-decoration="none" x="677.5" y="483.5">Secretary</text></g></g><g transform="translate(-118,-270) scale(1,1)"><path fill="none" stroke="#000000" d="M 191 463 L 225 405" stroke-miterlimit="10"/></g><g transform="translate(-118,-270) scale(1,1)"><path fill="#FFFFFF" stroke="none" d="M 221.98415915693474 426.7923083680756 L 225 405 L 207.45798946411458 418.2769675136638"/></g><g transform="translate(-118,-270) scale(1,1)"><path fill="none" stroke="#000000" d="M 221.98415915693474 426.7923083680756 L 225 405 L 207.45798946411458 418.2769675136638 L 221.98415915693474 426.7923083680756" stroke-miterlimit="10"/></g><g transform="translate(-118,-270) scale(1,1)"><path fill="none" stroke="#000000" d="M 319 463 L 285 405" stroke-miterlimit="10"/></g><g transform="translate(-118,-270) scale(1,1)"><path fill="#FFFFFF" stroke="none" d="M 302.5420105358854 418.2769675136638 L 285 405 L 288.0158408430653 426.7923083680756"/></g><g transform="translate(-118,-270) scale(1,1)"><path fill="none" stroke="#000000" d="M 302.5420105358854 418.2769675136638 L 285 405 L 288.0158408430653 426.7923083680756 L 302.5420105358854 418.2769675136638" stroke-miterlimit="10"/></g><g transform="translate(-118,-270) scale(1,1)"><path fill="none" stroke="#000000" d="M 507 463 L 536 426" stroke-miterlimit="10"/></g><g transform="translate(-118,-270) scale(1,1)"><path fill="#FFFFFF" stroke="none" d="M 530.0879161616069 447.19073535033203 L 536 426 L 516.8354127623796 436.80363809147815"/></g><g transform="translate(-118,-270) scale(1,1)"><path fill="none" stroke="#000000" d="M 530.0879161616069 447.19073535033203 L 536 426 L 516.8354127623796 436.80363809147815 L 530.0879161616069 447.19073535033203" stroke-miterlimit="10"/></g><g transform="translate(-118,-270) scale(1,1)"><path fill="none" stroke="#000000" d="M 686 463 L 656 426" stroke-miterlimit="10"/></g><g transform="translate(-118,-270) scale(1,1)"><path fill="#FFFFFF" stroke="none" d="M 675.340479288904 436.4855071825579 L 656 426 L 662.261410823615 447.090157289549"/></g><g transform="translate(-118,-270) scale(1,1)"><path fill="none" stroke="#000000" d="M 675.340479288904 436.4855071825579 L 656 426 L 662.261410823615 447.090157289549 L 675.340479288904 436.4855071825579" stroke-miterlimit="10"/></g><g transform="translate(-118,-270) scale(1,1)"><path fill="none" stroke="#000000" d="M 304 354 L 495 353" stroke-miterlimit="10"/></g><g transform="translate(-118,-270) scale(1,1)"><path fill="none" stroke="#000000" d="M 484.85950348466116 357.2626670550726 L 495 353 L 484.815425368823 348.8437469299877" stroke-miterlimit="10"/></g><g transform="translate(-118,-270) scale(1,1)"><path fill="none" stroke="#000000" d="M 495 353 L 304 354" stroke-miterlimit="10"/></g><g transform="translate(-118,-270) scale(1,1)"><path fill="none" stroke="#000000" d="M 314.14049651533884 349.7373329449274 L 304 354 L 314.18457463117693 358.1562530700123" stroke-miterlimit="10"/></g></g></svg>