<svg version="1.1" xmlns="http://www.w3.org/2000/svg" xmlns:xlink="http://www.w3.org/1999/xlink" width="667" height="229"><defs/><g><g transform="translate(-142,-214) scale(1,1)"><rect fill="#C0C0C0" stroke="none" x="159" y="295" width="104" height="145" opacity="0.2"/></g><g transform="translate(-142,-214) scale(1,1)"><rect fill="#ffffff" stroke="none" x="152" y="288" width="104" height="145"/></g><g transform="translate(-142,-214) scale(1,1)"><path fill="none" stroke="#000000" d="M 152 288 L 256 288 L 256 433 L 152 433 L 152 288 Z Z" stroke-miterlimit="10"/></g><g transform="translate(-142,-214) scale(1,1)"><path fill="none" stroke="#000000" d="M 152 313 L 256 313" stroke-miterlimit="10"/></g><g transform="translate(-142,-214) scale(1,1)"><path fill="none" stroke="#000000" d="M 152 366 L 256 366" stroke-miterlimit="10"/></g><g transform="translate(-142,-214) scale(1,1)"><g><path fill="none" stroke="none"/><text fill="#000000" stroke="none" font-family="Arial" font-size="13px" font-style="normal" font-weight="bold" text-decoration="none" x="189" y="307.5">Work</text></g></g><g transform="translate(-142,-214) scale(1,1)"><g><path fill="none" stroke="none"/><text fill="#000000" stroke="none" font-family="Arial" font-size="13px" font-style="normal" font-weight="normal" text-decoration="none" x="157" y="330.5">+finished_</text></g></g><g transform="translate(-142,-214) scale(1,1)"><g><path fill="none" stroke="none"/><text fill="#000000" stroke="none" font-family="Arial" font-size="13px" font-style="normal" font-weight="normal" text-decoration="none" x="157" y="345.5">+hour_</text></g></g><g transform="translate(-142,-214) scale(1,1)"><g><path fill="none" stroke="none"/><text fill="#000000" stroke="none" font-family="Arial" font-size="13px" font-style="normal" font-weight="normal" text-decoration="none" x="157" y="360.5">-*state_: State</text></g></g><g transform="translate(-142,-214) scale(1,1)"><g><path fill="none" stroke="none"/><text fill="#000000" stroke="none" font-family="Arial" font-size="13px" font-style="normal" font-weight="normal" text-decoration="none" x="157" y="383.5">+WriteProgram()</text></g></g><g transform="translate(-142,-214) scale(1,1)"><g><path fill="none" stroke="none"/><text fill="#000000" stroke="none" font-family="Arial" font-size="13px" font-style="normal" font-weight="normal" text-decoration="none" x="157" y="398.5">+SetState()</text></g></g><g transform="translate(-142,-214) scale(1,1)"><g><path fill="none" stroke="none"/><text fill="#000000" stroke="none" font-family="Arial" font-size="13px" font-style="normal" font-weight="normal" text-decoration="none" x="157" y="413.5">+Work()</text></g></g><g transform="translate(-142,-214) scale(1,1)"><g><path fill="none" stroke="none"/><text fill="#000000" stroke="none" font-family="Arial" font-size="13px" font-style="normal" font-weight="normal" text-decoration="none" x="157" y="428.5">+~Work()</text></g></g><g transform="translate(-142,-214) scale(1,1)"><rect fill="#C0C0C0" stroke="none" x="543" y="231" width="104" height="57" opacity="0.2"/></g><g transform="translate(-142,-214) scale(1,1)"><rect fill="#ffffff" stroke="none" x="536" y="224" width="104" height="57"/></g><g transform="translate(-142,-214) scale(1,1)"><path fill="none" stroke="#000000" d="M 536 224 L 640 224 L 640 281 L 536 281 L 536 224 Z Z" stroke-miterlimit="10"/></g><g transform="translate(-142,-214) scale(1,1)"><path fill="none" stroke="#000000" d="M 536 249 L 640 249" stroke-miterlimit="10"/></g><g transform="translate(-142,-214) scale(1,1)"><path fill="none" stroke="#000000" d="M 536 259 L 640 259" stroke-miterlimit="10"/></g><g transform="translate(-142,-214) scale(1,1)"><g><path fill="none" stroke="none"/><text fill="#000000" stroke="none" font-family="Arial" font-size="13px" font-style="italic" font-weight="bold" text-decoration="none" x="572.5" y="243.5">State</text></g></g><g transform="translate(-142,-214) scale(1,1)"><g><path fill="none" stroke="none"/><text fill="#000000" stroke="none" font-family="Arial" font-size="13px" font-style="italic" font-weight="normal" text-decoration="none" x="541" y="276.5">+WriteProgram()</text></g></g><g transform="translate(-142,-214) scale(1,1)"><rect fill="#C0C0C0" stroke="none" x="391" y="343" width="92" height="44" opacity="0.2"/></g><g transform="translate(-142,-214) scale(1,1)"><rect fill="#ffffff" stroke="none" x="384" y="336" width="92" height="44"/></g><g transform="translate(-142,-214) scale(1,1)"><path fill="none" stroke="#000000" d="M 384 336 L 476 336 L 476 380 L 384 380 L 384 336 Z Z" stroke-miterlimit="10"/></g><g transform="translate(-142,-214) scale(1,1)"><path fill="none" stroke="#000000" d="M 384 361 L 476 361" stroke-miterlimit="10"/></g><g transform="translate(-142,-214) scale(1,1)"><path fill="none" stroke="#000000" d="M 384 371 L 476 371" stroke-miterlimit="10"/></g><g transform="translate(-142,-214) scale(1,1)"><g><path fill="none" stroke="none"/><text fill="#000000" stroke="none" font-family="Arial" font-size="13px" font-style="normal" font-weight="bold" text-decoration="none" x="391" y="355.5">WorkingState</text></g></g><g transform="translate(-142,-214) scale(1,1)"><rect fill="#C0C0C0" stroke="none" x="503" y="343" width="96" height="44" opacity="0.2"/></g><g transform="translate(-142,-214) scale(1,1)"><rect fill="#ffffff" stroke="none" x="496" y="336" width="96" height="44"/></g><g transform="translate(-142,-214) scale(1,1)"><path fill="none" stroke="#000000" d="M 496 336 L 592 336 L 592 380 L 496 380 L 496 336 Z Z" stroke-miterlimit="10"/></g><g transform="translate(-142,-214) scale(1,1)"><path fill="none" stroke="#000000" d="M 496 361 L 592 361" stroke-miterlimit="10"/></g><g transform="translate(-142,-214) scale(1,1)"><path fill="none" stroke="#000000" d="M 496 371 L 592 371" stroke-miterlimit="10"/></g><g transform="translate(-142,-214) scale(1,1)"><g><path fill="none" stroke="none"/><text fill="#000000" stroke="none" font-family="Arial" font-size="13px" font-style="normal" font-weight="bold" text-decoration="none" x="502" y="355.5">OvertimeState</text></g></g><g transform="translate(-142,-214) scale(1,1)"><rect fill="#C0C0C0" stroke="none" x="623" y="343" width="67" height="44" opacity="0.2"/></g><g transform="translate(-142,-214) scale(1,1)"><rect fill="#ffffff" stroke="none" x="616" y="336" width="67" height="44"/></g><g transform="translate(-142,-214) scale(1,1)"><path fill="none" stroke="#000000" d="M 616 336 L 683 336 L 683 380 L 616 380 L 616 336 Z Z" stroke-miterlimit="10"/></g><g transform="translate(-142,-214) scale(1,1)"><path fill="none" stroke="#000000" d="M 616 361 L 683 361" stroke-miterlimit="10"/></g><g transform="translate(-142,-214) scale(1,1)"><path fill="none" stroke="#000000" d="M 616 371 L 683 371" stroke-miterlimit="10"/></g><g transform="translate(-142,-214) scale(1,1)"><g><path fill="none" stroke="none"/><text fill="#000000" stroke="none" font-family="Arial" font-size="13px" font-style="normal" font-weight="bold" text-decoration="none" x="620.5" y="355.5">RestState</text></g></g><g transform="translate(-142,-214) scale(1,1)"><rect fill="#C0C0C0" stroke="none" x="711" y="343" width="95" height="44" opacity="0.2"/></g><g transform="translate(-142,-214) scale(1,1)"><rect fill="#ffffff" stroke="none" x="704" y="336" width="95" height="44"/></g><g transform="translate(-142,-214) scale(1,1)"><path fill="none" stroke="#000000" d="M 704 336 L 799 336 L 799 380 L 704 380 L 704 336 Z Z" stroke-miterlimit="10"/></g><g transform="translate(-142,-214) scale(1,1)"><path fill="none" stroke="#000000" d="M 704 361 L 799 361" stroke-miterlimit="10"/></g><g transform="translate(-142,-214) scale(1,1)"><path fill="none" stroke="#000000" d="M 704 371 L 799 371" stroke-miterlimit="10"/></g><g transform="translate(-142,-214) scale(1,1)"><g><path fill="none" stroke="none"/><text fill="#000000" stroke="none" font-family="Arial" font-size="13px" font-style="normal" font-weight="bold" text-decoration="none" x="711" y="355.5">SleepingState</text></g></g><g transform="translate(-142,-214) scale(1,1)"><path fill="none" stroke="#000000" d="M 464 335 L 543 282" stroke-miterlimit="10"/></g><g transform="translate(-142,-214) scale(1,1)"><path fill="#FFFFFF" stroke="none" d="M 530.8116723460744 300.3151486207607 L 543 282 L 521.4307850764063 286.332316652765"/></g><g transform="translate(-142,-214) scale(1,1)"><path fill="none" stroke="#000000" d="M 530.8116723460744 300.3151486207607 L 543 282 L 521.4307850764063 286.332316652765 L 530.8116723460744 300.3151486207607" stroke-miterlimit="10"/></g><g transform="translate(-142,-214) scale(1,1)"><path fill="none" stroke="#000000" d="M 554 335 L 576 282" stroke-miterlimit="10"/></g><g transform="translate(-142,-214) scale(1,1)"><path fill="#FFFFFF" stroke="none" d="M 575.9834657644918 303.99999378679587 L 576 282 L 560.4319637372452 297.54465332265573"/></g><g transform="translate(-142,-214) scale(1,1)"><path fill="none" stroke="#000000" d="M 575.9834657644918 303.99999378679587 L 576 282 L 560.4319637372452 297.54465332265573 L 575.9834657644918 303.99999378679587" stroke-miterlimit="10"/></g><g transform="translate(-142,-214) scale(1,1)"><path fill="none" stroke="#000000" d="M 636 335 L 605 282" stroke-miterlimit="10"/></g><g transform="translate(-142,-214) scale(1,1)"><path fill="#FFFFFF" stroke="none" d="M 622.5291370278325 295.29395934473513 L 605 282 L 607.9947228592481 303.79522046220904"/></g><g transform="translate(-142,-214) scale(1,1)"><path fill="none" stroke="#000000" d="M 622.5291370278325 295.29395934473513 L 605 282 L 607.9947228592481 303.79522046220904 L 622.5291370278325 295.29395934473513" stroke-miterlimit="10"/></g><g transform="translate(-142,-214) scale(1,1)"><path fill="none" stroke="#000000" d="M 716 335 L 634 282" stroke-miterlimit="10"/></g><g transform="translate(-142,-214) scale(1,1)"><path fill="#FFFFFF" stroke="none" d="M 655.6402159025109 285.96245576539536 L 634 282 L 646.5000640691436 300.1038227528692"/></g><g transform="translate(-142,-214) scale(1,1)"><path fill="none" stroke="#000000" d="M 655.6402159025109 285.96245576539536 L 634 282 L 646.5000640691436 300.1038227528692 L 655.6402159025109 285.96245576539536" stroke-miterlimit="10"/></g><g transform="translate(-142,-214) scale(1,1)"><path fill="none" stroke="#000000" d="M 535 253 L 200 256 L 201 287" stroke-miterlimit="10" stroke-dasharray="3"/></g><g transform="translate(-142,-214) scale(1,1)"><path fill="none" stroke="#000000" d="M 196.46501292387973 276.9783288709207 L 201 287 L 204.87967150007543 276.70688827168857" stroke-miterlimit="10"/></g><g transform="translate(-142,-214) scale(1,1)"><path fill="none" stroke="#000000" d="M 535 267 L 257 345" stroke-miterlimit="10"/></g><g transform="translate(-142,-214) scale(1,1)"><path fill="#FFFFFF" stroke="none" d="M 265.6476517613502 338.201609086378 L 257 345 L 267.9220015179696 346.3076248856114 L 278.18204007196215 339.0568376776509"/></g><g transform="translate(-142,-214) scale(1,1)"><path fill="none" stroke="#000000" d="M 265.6476517613502 338.201609086378 L 257 345 L 267.9220015179696 346.3076248856114 L 278.18204007196215 339.0568376776509 L 265.6476517613502 338.201609086378" stroke-miterlimit="10"/></g></g></svg>